NotoAmalgamated-DisplayItalic.ufo
<glyph name="exclam" format="2">
  <advance width="250"/>
  <unicode hex="0021"/>
  <outline>
    <contour>
      <point x="75" y="201" type="line"/>
      <point x="146" y="201" type="line"/>
      <point x="272" y="714" type="line"/>
      <point x="166" y="714" type="line"/>
    </contour>
    <contour>
      <point x="70" y="-14" type="curve" smooth="yes"/>
      <point x="119" y="-14"/>
      <point x="142" y="29"/>
      <point x="142" y="68" type="curve" smooth="yes"/>
      <point x="142" y="102"/>
      <point x="122" y="121"/>
      <point x="93" y="121" type="curve" smooth="yes"/>
      <point x="41" y="121"/>
      <point x="19" y="81"/>
      <point x="19" y="39" type="curve" smooth="yes"/>
      <point x="19" y="6"/>
      <point x="37" y="-14"/>
    </contour>
  </outline>
</glyph>
<glyph name="quotedbl" format="2">
  <advance width="377"/>
  <unicode hex="0022"/>
  <outline>
    <contour>
      <point x="273" y="456" type="line"/>
      <point x="329" y="456" type="line"/>
      <point x="403" y="714" type="line"/>
      <point x="309" y="714" type="line"/>
    </contour>
    <contour>
      <point x="108" y="456" type="line"/>
      <point x="164" y="456" type="line"/>
      <point x="238" y="714" type="line"/>
      <point x="144" y="714" type="line"/>
    </contour>
  </outline>
</glyph>
<glyph name="numbersign" format="2">
  <advance width="613"/>
  <unicode hex="0023"/>
  <outline>
    <contour>
      <point x="91" y="0" type="line"/>
      <point x="159" y="0" type="line"/>
      <point x="219" y="209" type="line"/>
      <point x="352" y="209" type="line"/>
      <point x="291" y="0" type="line"/>
      <point x="362" y="0" type="line"/>
      <point x="421" y="209" type="line"/>
      <point x="564" y="209" type="line"/>
      <point x="570" y="275" type="line"/>
      <point x="440" y="275" type="line"/>
      <point x="485" y="437" type="line"/>
      <point x="619" y="437" type="line"/>
      <point x="626" y="502" type="line"/>
      <point x="506" y="502" type="line"/>
      <point x="565" y="714" type="line"/>
      <point x="497" y="714" type="line"/>
      <point x="437" y="502" type="line"/>
      <point x="303" y="502" type="line"/>
      <point x="363" y="714" type="line"/>
      <point x="292" y="714" type="line"/>
      <point x="233" y="502" type="line"/>
      <point x="95" y="502" type="line"/>
      <point x="88" y="437" type="line"/>
      <point x="215" y="437" type="line"/>
      <point x="168" y="275" type="line"/>
      <point x="37" y="275" type="line"/>
      <point x="30" y="209" type="line"/>
      <point x="149" y="209" type="line"/>
    </contour>
    <contour>
      <point x="238" y="275" type="line"/>
      <point x="283" y="437" type="line"/>
      <point x="415" y="437" type="line"/>
      <point x="372" y="275" type="line"/>
    </contour>
  </outline>
</glyph>
<glyph name="dollar" format="2">
  <advance width="523"/>
  <unicode hex="0024"/>
  <outline>
    <contour>
      <point x="182" y="50" type="curve"/>
      <point x="158" y="-58" type="line"/>
      <point x="220" y="-58" type="line"/>
      <point x="244" y="51" type="line"/>
      <point x="360" y="64"/>
      <point x="447" y="125"/>
      <point x="447" y="242" type="curve" smooth="yes"/>
      <point x="447" y="319"/>
      <point x="402" y="357"/>
      <point x="317" y="391" type="curve"/>
      <point x="361" y="600" type="line"/>
      <point x="404" y="597"/>
      <point x="444" y="581"/>
      <point x="474" y="564" type="curve"/>
      <point x="508" y="635" type="line"/>
      <point x="469" y="656"/>
      <point x="425" y="668"/>
      <point x="376" y="672" type="curve"/>
      <point x="394" y="758" type="line"/>
      <point x="332" y="758" type="line"/>
      <point x="313" y="673" type="line"/>
      <point x="202" y="662"/>
      <point x="117" y="604"/>
      <point x="117" y="490" type="curve" smooth="yes"/>
      <point x="117" y="407"/>
      <point x="166" y="367"/>
      <point x="243" y="337" type="curve"/>
      <point x="197" y="122" type="line"/>
      <point x="146" y="123"/>
      <point x="83" y="139"/>
      <point x="34" y="166" type="curve"/>
      <point x="33" y="86" type="line"/>
      <point x="72" y="66"/>
      <point x="129" y="53"/>
    </contour>
    <contour>
      <point x="260" y="125" type="curve"/>
      <point x="300" y="314" type="line"/>
      <point x="345" y="294"/>
      <point x="362" y="268"/>
      <point x="362" y="234" type="curve" smooth="yes"/>
      <point x="362" y="170"/>
      <point x="317" y="133"/>
    </contour>
    <contour>
      <point x="298" y="600" type="curve"/>
      <point x="260" y="414" type="line"/>
      <point x="219" y="431"/>
      <point x="199" y="460"/>
      <point x="199" y="493" type="curve" smooth="yes"/>
      <point x="199" y="559"/>
      <point x="239" y="593"/>
    </contour>
  </outline>
</glyph>
<glyph name="percent" format="2">
  <advance width="763"/>
  <unicode hex="0025"/>
  <outline>
    <contour>
      <point x="108" y="0" type="line"/>
      <point x="185" y="0" type="line"/>
      <point x="696" y="714" type="line"/>
      <point x="619" y="714" type="line"/>
    </contour>
    <contour>
      <point x="188" y="276" type="curve" smooth="yes"/>
      <point x="333" y="276"/>
      <point x="375" y="501"/>
      <point x="375" y="590" type="curve" smooth="yes"/>
      <point x="375" y="676"/>
      <point x="336" y="724"/>
      <point x="264" y="724" type="curve" smooth="yes"/>
      <point x="115" y="724"/>
      <point x="79" y="513"/>
      <point x="79" y="418" type="curve" smooth="yes"/>
      <point x="79" y="326"/>
      <point x="119" y="276"/>
    </contour>
    <contour>
      <point x="196" y="342" type="curve" smooth="yes"/>
      <point x="165" y="342"/>
      <point x="151" y="368"/>
      <point x="151" y="420" type="curve" smooth="yes"/>
      <point x="151" y="485"/>
      <point x="177" y="659"/>
      <point x="257" y="659" type="curve" smooth="yes"/>
      <point x="287" y="659"/>
      <point x="303" y="637"/>
      <point x="303" y="583" type="curve" smooth="yes"/>
      <point x="303" y="533"/>
      <point x="277" y="342"/>
    </contour>
    <contour>
      <point x="538" y="-10" type="curve" smooth="yes"/>
      <point x="682" y="-10"/>
      <point x="725" y="215"/>
      <point x="725" y="304" type="curve" smooth="yes"/>
      <point x="725" y="390"/>
      <point x="686" y="438"/>
      <point x="613" y="438" type="curve" smooth="yes"/>
      <point x="466" y="438"/>
      <point x="428" y="229"/>
      <point x="428" y="131" type="curve" smooth="yes"/>
      <point x="428" y="39"/>
      <point x="468" y="-10"/>
    </contour>
    <contour>
      <point x="545" y="56" type="curve" smooth="yes"/>
      <point x="515" y="56"/>
      <point x="501" y="82"/>
      <point x="501" y="133" type="curve" smooth="yes"/>
      <point x="501" y="199"/>
      <point x="526" y="373"/>
      <point x="607" y="373" type="curve" smooth="yes"/>
      <point x="636" y="373"/>
      <point x="653" y="351"/>
      <point x="653" y="297" type="curve" smooth="yes"/>
      <point x="653" y="248"/>
      <point x="627" y="56"/>
    </contour>
  </outline>
</glyph>
<glyph name="ampersand" format="2">
  <advance width="642"/>
  <unicode hex="0026"/>
  <outline>
    <contour>
      <point x="207" y="-10" type="curve" smooth="yes"/>
      <point x="302" y="-10"/>
      <point x="364" y="27"/>
      <point x="424" y="78" type="curve"/>
      <point x="474" y="0" type="line"/>
      <point x="578" y="0" type="line"/>
      <point x="485" y="133" type="line"/>
      <point x="541" y="189"/>
      <point x="586" y="256"/>
      <point x="620" y="338" type="curve"/>
      <point x="532" y="338" type="line"/>
      <point x="512" y="285"/>
      <point x="483" y="232"/>
      <point x="442" y="194" type="curve"/>
      <point x="321" y="378" type="line"/>
      <point x="422" y="431"/>
      <point x="506" y="481"/>
      <point x="506" y="584" type="curve" smooth="yes"/>
      <point x="506" y="671"/>
      <point x="449" y="725"/>
      <point x="355" y="725" type="curve" smooth="yes"/>
      <point x="238" y="725"/>
      <point x="170" y="645"/>
      <point x="170" y="543" type="curve" smooth="yes"/>
      <point x="170" y="488"/>
      <point x="190" y="437"/>
      <point x="214" y="396" type="curve"/>
      <point x="96" y="337"/>
      <point x="32" y="273"/>
      <point x="32" y="166" type="curve" smooth="yes"/>
      <point x="32" y="51"/>
      <point x="103" y="-10"/>
    </contour>
    <contour>
      <point x="224" y="63" type="curve" smooth="yes"/>
      <point x="162" y="63"/>
      <point x="120" y="105"/>
      <point x="120" y="173" type="curve" smooth="yes"/>
      <point x="120" y="262"/>
      <point x="181" y="304"/>
      <point x="250" y="342" type="curve"/>
      <point x="383" y="136" type="line"/>
      <point x="336" y="96"/>
      <point x="290" y="63"/>
    </contour>
    <contour>
      <point x="287" y="433" type="curve"/>
      <point x="264" y="468"/>
      <point x="253" y="504"/>
      <point x="253" y="543" type="curve" smooth="yes"/>
      <point x="253" y="612"/>
      <point x="289" y="654"/>
      <point x="350" y="654" type="curve" smooth="yes"/>
      <point x="397" y="654"/>
      <point x="422" y="622"/>
      <point x="422" y="576" type="curve" smooth="yes"/>
      <point x="422" y="504"/>
      <point x="346" y="465"/>
    </contour>
  </outline>
</glyph>
<glyph name="parenleft" format="2">
  <advance width="279"/>
  <unicode hex="0028"/>
  <outline>
    <contour>
      <point x="104" y="-158" type="curve"/>
      <point x="172" y="-158" type="line"/>
      <point x="139" y="-76"/>
      <point x="122" y="18"/>
      <point x="122" y="134" type="curve" smooth="yes"/>
      <point x="122" y="365"/>
      <point x="223" y="557"/>
      <point x="359" y="714" type="curve"/>
      <point x="279" y="714" type="line"/>
      <point x="128" y="552"/>
      <point x="39" y="371"/>
      <point x="39" y="133" type="curve" smooth="yes"/>
      <point x="39" y="24"/>
      <point x="61" y="-77"/>
    </contour>
  </outline>
</glyph>
<glyph name="parenright" format="2">
  <advance width="279"/>
  <unicode hex="0029"/>
  <outline>
    <contour>
      <point x="-74" y="-158" type="curve"/>
      <point x="5" y="-158" type="line"/>
      <point x="157" y="3"/>
      <point x="243" y="184"/>
      <point x="245" y="422" type="curve"/>
      <point x="247" y="533"/>
      <point x="223" y="632"/>
      <point x="181" y="714" type="curve"/>
      <point x="113" y="714" type="line"/>
      <point x="146" y="632"/>
      <point x="163" y="537"/>
      <point x="162" y="422" type="curve"/>
      <point x="160" y="191"/>
      <point x="63" y="-1"/>
    </contour>
  </outline>
</glyph>
<glyph name="asterisk" format="2">
  <advance width="523"/>
  <unicode hex="002A"/>
  <outline>
    <contour>
      <point x="355" y="300" type="line"/>
      <point x="438" y="326" type="line"/>
      <point x="358" y="511" type="line"/>
      <point x="536" y="488" type="line"/>
      <point x="541" y="570" type="line"/>
      <point x="349" y="560" type="line"/>
      <point x="406" y="746" type="line"/>
      <point x="321" y="763" type="line"/>
      <point x="300" y="570" type="line"/>
      <point x="131" y="659" type="line"/>
      <point x="103" y="581" type="line"/>
      <point x="272" y="528" type="line"/>
      <point x="130" y="391" type="line"/>
      <point x="190" y="330" type="line"/>
      <point x="307" y="495" type="line"/>
    </contour>
  </outline>
</glyph>
<glyph name="plus" format="2">
  <advance width="537"/>
  <unicode hex="002B"/>
  <outline>
    <contour>
      <point x="323" y="388" type="line"/>
      <point x="323" y="595" type="line"/>
      <point x="252" y="595" type="line"/>
      <point x="252" y="388" type="line"/>
      <point x="66" y="388" type="line"/>
      <point x="66" y="317" type="line"/>
      <point x="252" y="317" type="line"/>
      <point x="252" y="111" type="line"/>
      <point x="323" y="111" type="line"/>
      <point x="323" y="317" type="line"/>
      <point x="509" y="317" type="line"/>
      <point x="509" y="388" type="line"/>
    </contour>
  </outline>
</glyph>
<glyph name="comma" format="2">
  <advance width="245"/>
  <unicode hex="002C"/>
  <outline>
    <contour>
      <point x="-43" y="-129" type="curve"/>
      <point x="24" y="-129" type="line"/>
      <point x="69" y="-56"/>
      <point x="119" y="34"/>
      <point x="151" y="105" type="curve"/>
      <point x="148" y="116" type="line"/>
      <point x="53" y="116" type="line"/>
      <point x="29" y="47"/>
      <point x="-9" y="-50"/>
    </contour>
  </outline>
</glyph>
<glyph name="period" format="2">
  <advance width="245"/>
  <unicode hex="002E"/>
  <outline>
    <contour>
      <point x="70" y="-14" type="curve"/>
      <point x="118" y="-14"/>
      <point x="142" y="27"/>
      <point x="142" y="68" type="curve"/>
      <point x="143" y="103"/>
      <point x="123" y="121"/>
      <point x="95" y="121" type="curve"/>
      <point x="43" y="121"/>
      <point x="19" y="82"/>
      <point x="19" y="38" type="curve"/>
      <point x="19" y="5"/>
      <point x="37" y="-14"/>
    </contour>
  </outline>
</glyph>
<glyph name="zero" format="2">
  <advance width="523"/>
  <unicode hex="0030"/>
  <outline>
    <contour>
      <point x="224" y="-10" type="curve" smooth="yes"/>
      <point x="428" y="-10"/>
      <point x="513" y="262"/>
      <point x="513" y="500" type="curve" smooth="yes"/>
      <point x="513" y="645"/>
      <point x="459" y="725"/>
      <point x="344" y="725" type="curve" smooth="yes"/>
      <point x="135" y="725"/>
      <point x="55" y="423"/>
      <point x="55" y="228" type="curve" smooth="yes"/>
      <point x="55" y="75"/>
      <point x="113" y="-10"/>
    </contour>
    <contour>
      <point x="234" y="65" type="curve" smooth="yes"/>
      <point x="171" y="65"/>
      <point x="144" y="123"/>
      <point x="144" y="228" type="curve" smooth="yes"/>
      <point x="144" y="409"/>
      <point x="217" y="650"/>
      <point x="338" y="650" type="curve" smooth="yes"/>
      <point x="396" y="650"/>
      <point x="424" y="597"/>
      <point x="424" y="501" type="curve" smooth="yes"/>
      <point x="424" y="311"/>
      <point x="359" y="65"/>
    </contour>
  </outline>
</glyph>
<glyph name="one" format="2">
  <advance width="523"/>
  <unicode hex="0031"/>
  <outline>
    <contour>
      <point x="285" y="442" type="curve" smooth="yes"/>
      <point x="191" y="0" type="line"/>
      <point x="280" y="0" type="line"/>
      <point x="432" y="714" type="line"/>
      <point x="356" y="714" type="line"/>
      <point x="138" y="572" type="line"/>
      <point x="178" y="506" type="line"/>
      <point x="263" y="561" type="line" smooth="yes"/>
      <point x="289" y="578"/>
      <point x="308" y="593"/>
      <point x="327" y="614" type="curve"/>
      <point x="315" y="575"/>
      <point x="298" y="504"/>
    </contour>
  </outline>
</glyph>
<glyph name="two" format="2">
  <advance width="523"/>
  <unicode hex="0032"/>
  <outline>
    <contour>
      <point x="1" y="0" type="line"/>
      <point x="423" y="0" type="line"/>
      <point x="439" y="80" type="line"/>
      <point x="133" y="80" type="line"/>
      <point x="133" y="84" type="line"/>
      <point x="291" y="230" type="line" smooth="yes"/>
      <point x="448" y="375"/>
      <point x="508" y="447"/>
      <point x="508" y="563" type="curve" smooth="yes"/>
      <point x="508" y="658"/>
      <point x="446" y="724"/>
      <point x="330" y="724" type="curve" smooth="yes"/>
      <point x="248" y="724"/>
      <point x="186" y="691"/>
      <point x="132" y="647" type="curve"/>
      <point x="173" y="587" type="line"/>
      <point x="219" y="622"/>
      <point x="264" y="649"/>
      <point x="319" y="649" type="curve" smooth="yes"/>
      <point x="382" y="649"/>
      <point x="416" y="608"/>
      <point x="416" y="548" type="curve" smooth="yes"/>
      <point x="416" y="454"/>
      <point x="362" y="400"/>
      <point x="235" y="280" type="curve" smooth="yes"/>
      <point x="17" y="75" type="line"/>
    </contour>
  </outline>
</glyph>
<glyph name="three" format="2">
  <advance width="523"/>
  <unicode hex="0033"/>
  <outline>
    <contour>
      <point x="198" y="-10" type="curve" smooth="yes"/>
      <point x="375" y="-10"/>
      <point x="450" y="98"/>
      <point x="450" y="212" type="curve" smooth="yes"/>
      <point x="450" y="297"/>
      <point x="400" y="350"/>
      <point x="329" y="364" type="curve"/>
      <point x="329" y="368" type="line"/>
      <point x="440" y="389"/>
      <point x="506" y="466"/>
      <point x="506" y="568" type="curve" smooth="yes"/>
      <point x="506" y="661"/>
      <point x="445" y="724"/>
      <point x="332" y="724" type="curve" smooth="yes"/>
      <point x="246" y="724"/>
      <point x="184" y="694"/>
      <point x="130" y="654" type="curve"/>
      <point x="170" y="592" type="line"/>
      <point x="217" y="627"/>
      <point x="264" y="650"/>
      <point x="321" y="650" type="curve" smooth="yes"/>
      <point x="378" y="650"/>
      <point x="416" y="616"/>
      <point x="416" y="556" type="curve" smooth="yes"/>
      <point x="416" y="461"/>
      <point x="333" y="405"/>
      <point x="238" y="405" type="curve" smooth="yes"/>
      <point x="179" y="405" type="line"/>
      <point x="163" y="332" type="line"/>
      <point x="224" y="332" type="line" smooth="yes"/>
      <point x="311" y="332"/>
      <point x="358" y="289"/>
      <point x="358" y="208" type="curve" smooth="yes"/>
      <point x="358" y="120"/>
      <point x="301" y="64"/>
      <point x="199" y="64" type="curve" smooth="yes"/>
      <point x="135" y="64"/>
      <point x="66" y="88"/>
      <point x="21" y="114" type="curve"/>
      <point x="20" y="29" type="line"/>
      <point x="69" y="5"/>
      <point x="125" y="-10"/>
    </contour>
  </outline>
</glyph>
<glyph name="four" format="2">
  <advance width="523"/>
  <unicode hex="0034"/>
  <outline>
    <contour>
      <point x="270" y="0" type="line"/>
      <point x="355" y="0" type="line"/>
      <point x="390" y="162" type="line"/>
      <point x="493" y="162" type="line"/>
      <point x="511" y="240" type="line"/>
      <point x="408" y="240" type="line"/>
      <point x="507" y="714" type="line"/>
      <point x="408" y="714" type="line"/>
      <point x="22" y="242" type="line"/>
      <point x="6" y="162" type="line"/>
      <point x="305" y="162" type="line"/>
    </contour>
    <contour>
      <point x="111" y="240" type="line"/>
      <point x="344" y="531" type="line" smooth="yes"/>
      <point x="360" y="551"/>
      <point x="393" y="598"/>
      <point x="408" y="624" type="curve"/>
      <point x="412" y="624" type="line"/>
      <point x="400" y="578"/>
      <point x="373" y="484"/>
      <point x="358" y="411" type="curve" smooth="yes"/>
      <point x="322" y="240" type="line"/>
    </contour>
  </outline>
</glyph>
<glyph name="five" format="2">
  <advance width="523"/>
  <unicode hex="0035"/>
  <outline>
    <contour>
      <point x="190" y="-10" type="curve" smooth="yes"/>
      <point x="399" y="-10"/>
      <point x="466" y="131"/>
      <point x="466" y="250" type="curve" smooth="yes"/>
      <point x="466" y="366"/>
      <point x="394" y="437"/>
      <point x="284" y="437" type="curve" smooth="yes"/>
      <point x="251" y="437"/>
      <point x="225" y="432"/>
      <point x="203" y="427" type="curve"/>
      <point x="261" y="634" type="line"/>
      <point x="500" y="634" type="line"/>
      <point x="518" y="714" type="line"/>
      <point x="203" y="714" type="line"/>
      <point x="107" y="378" type="line"/>
      <point x="143" y="349" type="line"/>
      <point x="182" y="360"/>
      <point x="212" y="367"/>
      <point x="250" y="367" type="curve" smooth="yes"/>
      <point x="328" y="367"/>
      <point x="374" y="320"/>
      <point x="374" y="239" type="curve" smooth="yes"/>
      <point x="374" y="146"/>
      <point x="323" y="64"/>
      <point x="190" y="64" type="curve" smooth="yes"/>
      <point x="133" y="64"/>
      <point x="80" y="84"/>
      <point x="35" y="114" type="curve"/>
      <point x="34" y="29" type="line"/>
      <point x="75" y="3"/>
      <point x="129" y="-10"/>
    </contour>
  </outline>
</glyph>
<glyph name="six" format="2">
  <advance width="523"/>
  <unicode hex="0036"/>
  <outline>
    <contour>
      <point x="239" y="-10" type="curve" smooth="yes"/>
      <point x="405" y="-10"/>
      <point x="479" y="138"/>
      <point x="479" y="272" type="curve" smooth="yes"/>
      <point x="479" y="385"/>
      <point x="420" y="449"/>
      <point x="327" y="449" type="curve" smooth="yes"/>
      <point x="262" y="449"/>
      <point x="207" y="416"/>
      <point x="171" y="366" type="curve"/>
      <point x="167" y="366" type="line"/>
      <point x="213" y="567"/>
      <point x="308" y="649"/>
      <point x="429" y="649" type="curve" smooth="yes"/>
      <point x="463" y="649"/>
      <point x="489" y="644"/>
      <point x="509" y="637" type="curve"/>
      <point x="528" y="713" type="line"/>
      <point x="505" y="720"/>
      <point x="473" y="724"/>
      <point x="439" y="724" type="curve" smooth="yes"/>
      <point x="341" y="724"/>
      <point x="267" y="690"/>
      <point x="211" y="632" type="curve" smooth="yes"/>
      <point x="109" y="526"/>
      <point x="61" y="344"/>
      <point x="61" y="205" type="curve" smooth="yes"/>
      <point x="61" y="59"/>
      <point x="132" y="-10"/>
    </contour>
    <contour>
      <point x="248" y="64" type="curve" smooth="yes"/>
      <point x="175" y="64"/>
      <point x="148" y="130"/>
      <point x="148" y="201" type="curve" smooth="yes"/>
      <point x="148" y="228"/>
      <point x="150" y="256"/>
      <point x="159" y="279" type="curve" smooth="yes"/>
      <point x="176" y="321"/>
      <point x="228" y="378"/>
      <point x="297" y="378" type="curve" smooth="yes"/>
      <point x="361" y="378"/>
      <point x="392" y="337"/>
      <point x="392" y="263" type="curve" smooth="yes"/>
      <point x="392" y="162"/>
      <point x="340" y="64"/>
    </contour>
  </outline>
</glyph>
<glyph name="seven" format="2">
  <advance width="523"/>
  <unicode hex="0037"/>
  <outline>
    <contour>
      <point x="74" y="0" type="line"/>
      <point x="170" y="0" type="line"/>
      <point x="530" y="644" type="line"/>
      <point x="544" y="714" type="line"/>
      <point x="124" y="714" type="line"/>
      <point x="107" y="636" type="line"/>
      <point x="434" y="636" type="line"/>
    </contour>
  </outline>
</glyph>
<glyph name="eight" format="2">
  <advance width="523"/>
  <unicode hex="0038"/>
  <outline>
    <contour>
      <point x="234" y="-10" type="curve" smooth="yes"/>
      <point x="395" y="-10"/>
      <point x="467" y="87"/>
      <point x="467" y="195" type="curve" smooth="yes"/>
      <point x="467" y="281"/>
      <point x="426" y="330"/>
      <point x="363" y="372" type="curve"/>
      <point x="446" y="409"/>
      <point x="522" y="462"/>
      <point x="522" y="569" type="curve" smooth="yes"/>
      <point x="522" y="650"/>
      <point x="473" y="725"/>
      <point x="350" y="725" type="curve" smooth="yes"/>
      <point x="233" y="725"/>
      <point x="145" y="653"/>
      <point x="145" y="535" type="curve" smooth="yes"/>
      <point x="145" y="463"/>
      <point x="177" y="421"/>
      <point x="223" y="384" type="curve"/>
      <point x="110" y="339"/>
      <point x="43" y="271"/>
      <point x="43" y="167" type="curve" smooth="yes"/>
      <point x="43" y="71"/>
      <point x="103" y="-10"/>
    </contour>
    <contour>
      <point x="243" y="63" type="curve" smooth="yes"/>
      <point x="178" y="63"/>
      <point x="133" y="103"/>
      <point x="133" y="173" type="curve" smooth="yes"/>
      <point x="133" y="267"/>
      <point x="197" y="310"/>
      <point x="284" y="339" type="curve"/>
      <point x="347" y="301"/>
      <point x="378" y="256"/>
      <point x="378" y="193" type="curve" smooth="yes"/>
      <point x="378" y="128"/>
      <point x="337" y="63"/>
    </contour>
    <contour>
      <point x="304" y="412" type="curve"/>
      <point x="261" y="441"/>
      <point x="231" y="476"/>
      <point x="231" y="535" type="curve" smooth="yes"/>
      <point x="231" y="606"/>
      <point x="275" y="651"/>
      <point x="342" y="651" type="curve" smooth="yes"/>
      <point x="398" y="651"/>
      <point x="434" y="615"/>
      <point x="434" y="559" type="curve" smooth="yes"/>
      <point x="434" y="488"/>
      <point x="389" y="446"/>
    </contour>
  </outline>
</glyph>
<glyph name="nine" format="2">
  <advance width="523"/>
  <unicode hex="0039"/>
  <outline>
    <contour>
      <point x="156" y="-10" type="curve" smooth="yes"/>
      <point x="239" y="-10"/>
      <point x="312" y="17"/>
      <point x="371" y="85" type="curve" smooth="yes"/>
      <point x="453" y="180"/>
      <point x="502" y="368"/>
      <point x="502" y="508" type="curve" smooth="yes"/>
      <point x="502" y="650"/>
      <point x="436" y="724"/>
      <point x="326" y="724" type="curve" smooth="yes"/>
      <point x="174" y="724"/>
      <point x="85" y="596"/>
      <point x="85" y="451" type="curve" smooth="yes"/>
      <point x="85" y="331"/>
      <point x="143" y="265"/>
      <point x="246" y="265" type="curve" smooth="yes"/>
      <point x="307" y="265"/>
      <point x="359" y="296"/>
      <point x="391" y="343" type="curve"/>
      <point x="396" y="343" type="line"/>
      <point x="356" y="157"/>
      <point x="285" y="66"/>
      <point x="158" y="66" type="curve" smooth="yes"/>
      <point x="114" y="66"/>
      <point x="78" y="76"/>
      <point x="45" y="88" type="curve"/>
      <point x="44" y="7" type="line"/>
      <point x="76" y="-4"/>
      <point x="118" y="-10"/>
    </contour>
    <contour>
      <point x="266" y="336" type="curve" smooth="yes"/>
      <point x="204" y="336"/>
      <point x="172" y="379"/>
      <point x="172" y="456" type="curve" smooth="yes"/>
      <point x="172" y="562"/>
      <point x="226" y="650"/>
      <point x="320" y="650" type="curve" smooth="yes"/>
      <point x="381" y="650"/>
      <point x="415" y="596"/>
      <point x="415" y="518" type="curve" smooth="yes"/>
      <point x="415" y="484"/>
      <point x="410" y="454"/>
      <point x="402" y="432" type="curve" smooth="yes"/>
      <point x="378" y="369"/>
      <point x="326" y="336"/>
    </contour>
  </outline>
</glyph>
<glyph name="colon" format="2">
  <advance width="245"/>
  <unicode hex="003A"/>
  <outline>
    <contour>
      <point x="150" y="415" type="curve" smooth="yes"/>
      <point x="199" y="415"/>
      <point x="223" y="456"/>
      <point x="223" y="498" type="curve" smooth="yes"/>
      <point x="223" y="533"/>
      <point x="203" y="550"/>
      <point x="175" y="550" type="curve" smooth="yes"/>
      <point x="123" y="550"/>
      <point x="99" y="510"/>
      <point x="99" y="465" type="curve" smooth="yes"/>
      <point x="99" y="434"/>
      <point x="117" y="415"/>
    </contour>
    <contour>
      <point x="70" y="-14" type="curve" smooth="yes"/>
      <point x="118" y="-14"/>
      <point x="142" y="28"/>
      <point x="142" y="69" type="curve" smooth="yes"/>
      <point x="142" y="103"/>
      <point x="123" y="121"/>
      <point x="95" y="121" type="curve" smooth="yes"/>
      <point x="42" y="121"/>
      <point x="19" y="81"/>
      <point x="19" y="37" type="curve" smooth="yes"/>
      <point x="19" y="5"/>
      <point x="37" y="-14"/>
    </contour>
  </outline>
</glyph>
<glyph name="semicolon" format="2">
  <advance width="245"/>
  <unicode hex="003B"/>
  <outline>
    <contour>
      <point x="-48" y="-129" type="curve"/>
      <point x="19" y="-129" type="line"/>
      <point x="64" y="-56"/>
      <point x="114" y="34"/>
      <point x="146" y="105" type="curve"/>
      <point x="143" y="116" type="line"/>
      <point x="48" y="116" type="line"/>
      <point x="24" y="47"/>
      <point x="-14" y="-50"/>
    </contour>
    <contour>
      <point x="150" y="415" type="curve" smooth="yes"/>
      <point x="198" y="415"/>
      <point x="223" y="456"/>
      <point x="223" y="498" type="curve" smooth="yes"/>
      <point x="223" y="533"/>
      <point x="203" y="550"/>
      <point x="175" y="550" type="curve" smooth="yes"/>
      <point x="123" y="550"/>
      <point x="99" y="510"/>
      <point x="99" y="465" type="curve" smooth="yes"/>
      <point x="99" y="434"/>
      <point x="117" y="415"/>
    </contour>
  </outline>
</glyph>
<glyph name="equal" format="2">
  <advance width="538"/>
  <unicode hex="003D"/>
  <outline>
    <contour>
      <point x="72" y="416" type="line"/>
      <point x="504" y="416" type="line"/>
      <point x="504" y="487" type="line"/>
      <point x="72" y="487" type="line"/>
    </contour>
    <contour>
      <point x="72" y="217" type="line"/>
      <point x="504" y="217" type="line"/>
      <point x="504" y="288" type="line"/>
      <point x="72" y="288" type="line"/>
    </contour>
  </outline>
</glyph>
<glyph name="question" format="2">
  <advance width="411"/>
  <unicode hex="003F"/>
  <outline>
    <contour>
      <point x="123" y="201" type="curve"/>
      <point x="194" y="201" type="line"/>
      <point x="210" y="270"/>
      <point x="228" y="291"/>
      <point x="302" y="348" type="curve" smooth="yes"/>
      <point x="392" y="417"/>
      <point x="440" y="478"/>
      <point x="440" y="569" type="curve" smooth="yes"/>
      <point x="440" y="673"/>
      <point x="376" y="724"/>
      <point x="276" y="724" type="curve" smooth="yes"/>
      <point x="215" y="724"/>
      <point x="149" y="703"/>
      <point x="97" y="674" type="curve"/>
      <point x="128" y="607" type="line"/>
      <point x="171" y="628"/>
      <point x="217" y="648"/>
      <point x="265" y="648" type="curve" smooth="yes"/>
      <point x="322" y="648"/>
      <point x="352" y="615"/>
      <point x="352" y="557" type="curve" smooth="yes"/>
      <point x="352" y="480"/>
      <point x="298" y="440"/>
      <point x="237" y="391" type="curve" smooth="yes"/>
      <point x="167" y="334"/>
      <point x="137" y="287"/>
    </contour>
    <contour>
      <point x="125" y="-14" type="curve" smooth="yes"/>
      <point x="173" y="-14"/>
      <point x="197" y="28"/>
      <point x="197" y="69" type="curve" smooth="yes"/>
      <point x="197" y="103"/>
      <point x="178" y="121"/>
      <point x="150" y="121" type="curve" smooth="yes"/>
      <point x="97" y="121"/>
      <point x="74" y="81"/>
      <point x="74" y="37" type="curve" smooth="yes"/>
      <point x="74" y="5"/>
      <point x="92" y="-14"/>
    </contour>
  </outline>
</glyph>
<glyph name="at" format="2">
  <advance width="806"/>
  <unicode hex="0040"/>
  <outline>
    <contour>
      <point x="365" y="-91" type="curve" smooth="yes"/>
      <point x="434" y="-91"/>
      <point x="507" y="-75"/>
      <point x="572" y="-47" type="curve"/>
      <point x="573" y="18" type="line"/>
      <point x="516" y="-5"/>
      <point x="445" y="-24"/>
      <point x="376" y="-24" type="curve" smooth="yes"/>
      <point x="210" y="-24"/>
      <point x="126" y="79"/>
      <point x="126" y="246" type="curve" smooth="yes"/>
      <point x="126" y="470"/>
      <point x="271" y="647"/>
      <point x="488" y="647" type="curve" smooth="yes"/>
      <point x="654" y="647"/>
      <point x="715" y="541"/>
      <point x="715" y="412" type="curve" smooth="yes"/>
      <point x="715" y="295"/>
      <point x="664" y="169"/>
      <point x="585" y="169" type="curve" smooth="yes"/>
      <point x="560" y="169"/>
      <point x="541" y="183"/>
      <point x="541" y="223" type="curve" smooth="yes"/>
      <point x="541" y="246"/>
      <point x="546" y="269"/>
      <point x="557" y="310" type="curve" smooth="yes"/>
      <point x="604" y="489" type="line"/>
      <point x="571" y="503"/>
      <point x="533" y="518"/>
      <point x="472" y="518" type="curve" smooth="yes"/>
      <point x="340" y="518"/>
      <point x="229" y="407"/>
      <point x="229" y="244" type="curve" smooth="yes"/>
      <point x="229" y="155"/>
      <point x="274" y="106"/>
      <point x="343" y="106" type="curve" smooth="yes"/>
      <point x="406" y="106"/>
      <point x="448" y="145"/>
      <point x="476" y="195" type="curve"/>
      <point x="480" y="195" type="line"/>
      <point x="485" y="148"/>
      <point x="509" y="106"/>
      <point x="579" y="106" type="curve" smooth="yes"/>
      <point x="699" y="106"/>
      <point x="787" y="239"/>
      <point x="787" y="419" type="curve" smooth="yes"/>
      <point x="787" y="576"/>
      <point x="699" y="713"/>
      <point x="501" y="713" type="curve" smooth="yes"/>
      <point x="227" y="713"/>
      <point x="52" y="486"/>
      <point x="52" y="241" type="curve" smooth="yes"/>
      <point x="52" y="32"/>
      <point x="173" y="-91"/>
    </contour>
    <contour>
      <point x="362" y="169" type="curve" smooth="yes"/>
      <point x="325" y="169"/>
      <point x="304" y="193"/>
      <point x="304" y="251" type="curve" smooth="yes"/>
      <point x="304" y="366"/>
      <point x="373" y="456"/>
      <point x="462" y="456" type="curve" smooth="yes"/>
      <point x="486" y="456"/>
      <point x="505" y="450"/>
      <point x="518" y="445" type="curve"/>
      <point x="485" y="321" type="line" smooth="yes"/>
      <point x="461" y="231"/>
      <point x="422" y="169"/>
    </contour>
  </outline>
</glyph>
<glyph name="A" format="2">
  <advance width="539"/>
  <unicode hex="0041"/>
  <anchor x="215" y="0" name="bottom"/>
  <anchor x="367" y="714" name="top"/>
  <anchor x="618" y="714" name="topright"/>
  <outline>
    <contour>
      <point x="-54" y="0" type="line"/>
      <point x="43" y="0" type="line"/>
      <point x="154" y="222" type="line"/>
      <point x="382" y="222" type="line"/>
      <point x="404" y="0" type="line"/>
      <point x="492" y="0" type="line"/>
      <point x="417" y="714" type="line"/>
      <point x="321" y="714" type="line"/>
    </contour>
    <contour>
      <point x="197" y="302" type="line"/>
      <point x="272" y="448" type="line" smooth="yes"/>
      <point x="302" y="507"/>
      <point x="328" y="566"/>
      <point x="349" y="617" type="curve"/>
      <point x="352" y="617" type="line"/>
      <point x="352" y="570"/>
      <point x="357" y="503"/>
      <point x="361" y="452" type="curve" smooth="yes"/>
      <point x="374" y="302" type="line"/>
    </contour>
  </outline>
</glyph>
<glyph name="C" format="2">
  <advance width="559"/>
  <unicode hex="0043"/>
  <anchor x="291" y="0" name="bottom"/>
  <anchor x="429" y="714" name="top"/>
  <anchor x="638" y="714" name="topright"/>
  <outline>
    <contour>
      <point x="309" y="-10" type="curve" smooth="yes"/>
      <point x="380" y="-10"/>
      <point x="427" y="1"/>
      <point x="476" y="20" type="curve"/>
      <point x="477" y="98" type="line"/>
      <point x="428" y="81"/>
      <point x="378" y="69"/>
      <point x="326" y="69" type="curve" smooth="yes"/>
      <point x="224" y="69"/>
      <point x="164" y="143"/>
      <point x="164" y="262" type="curve" smooth="yes"/>
      <point x="164" y="442"/>
      <point x="252" y="645"/>
      <point x="440" y="645" type="curve" smooth="yes"/>
      <point x="497" y="645"/>
      <point x="538" y="629"/>
      <point x="572" y="610" type="curve"/>
      <point x="609" y="684" type="line"/>
      <point x="561" y="711"/>
      <point x="508" y="724"/>
      <point x="441" y="724" type="curve" smooth="yes"/>
      <point x="191" y="724"/>
      <point x="70" y="474"/>
      <point x="70" y="259" type="curve" smooth="yes"/>
      <point x="70" y="92"/>
      <point x="158" y="-10"/>
    </contour>
  </outline>
</glyph>
<glyph name="D" format="2">
  <advance width="635"/>
  <unicode hex="0044"/>
  <anchor x="264" y="0" name="bottom"/>
  <anchor x="358" y="357" name="center"/>
  <anchor x="395" y="714" name="top"/>
  <anchor x="713" y="714" name="topright"/>
  <outline>
    <contour>
      <point x="38" y="0" type="line"/>
      <point x="208" y="0" type="line" smooth="yes"/>
      <point x="466" y="0"/>
      <point x="610" y="184"/>
      <point x="610" y="434" type="curve" smooth="yes"/>
      <point x="610" y="623"/>
      <point x="513" y="714"/>
      <point x="351" y="714" type="curve" smooth="yes"/>
      <point x="189" y="714" type="line"/>
    </contour>
    <contour>
      <point x="214" y="77" type="curve" smooth="yes"/>
      <point x="144" y="77" type="line"/>
      <point x="261" y="637" type="line"/>
      <point x="340" y="637" type="line" smooth="yes"/>
      <point x="447" y="637"/>
      <point x="516" y="577"/>
      <point x="516" y="434" type="curve" smooth="yes"/>
      <point x="516" y="233"/>
      <point x="410" y="77"/>
    </contour>
  </outline>
</glyph>
<glyph name="E" format="2">
  <advance width="491"/>
  <unicode hex="0045"/>
  <anchor x="225" y="0" name="bottom"/>
  <anchor x="378" y="714" name="top"/>
  <anchor x="569" y="714" name="topright"/>
  <outline>
    <contour>
      <point x="38" y="0" type="line"/>
      <point x="385" y="0" type="line"/>
      <point x="402" y="79" type="line"/>
      <point x="144" y="79" type="line"/>
      <point x="197" y="334" type="line"/>
      <point x="439" y="334" type="line"/>
      <point x="455" y="412" type="line"/>
      <point x="214" y="412" type="line"/>
      <point x="260" y="635" type="line"/>
      <point x="518" y="635" type="line"/>
      <point x="536" y="714" type="line"/>
      <point x="189" y="714" type="line"/>
    </contour>
  </outline>
</glyph>
<glyph name="F" format="2">
  <advance width="457"/>
  <unicode hex="0046"/>
  <anchor x="175" y="0" name="bottom"/>
  <anchor x="367" y="714" name="top"/>
  <anchor x="536" y="714" name="topright"/>
  <outline>
    <contour>
      <point x="38" y="0" type="line"/>
      <point x="127" y="0" type="line"/>
      <point x="191" y="302" type="line"/>
      <point x="432" y="302" type="line"/>
      <point x="450" y="381" type="line"/>
      <point x="208" y="381" type="line"/>
      <point x="260" y="635" type="line"/>
      <point x="519" y="635" type="line"/>
      <point x="535" y="714" type="line"/>
      <point x="189" y="714" type="line"/>
    </contour>
  </outline>
</glyph>
<glyph name="G" format="2">
  <advance width="645"/>
  <unicode hex="0047"/>
  <anchor x="313" y="0" name="bottom"/>
  <anchor x="447" y="714" name="top"/>
  <anchor x="723" y="714" name="topright"/>
  <outline>
    <contour>
      <point x="324" y="-10" type="curve" smooth="yes"/>
      <point x="406" y="-10"/>
      <point x="467" y="6"/>
      <point x="524" y="27" type="curve"/>
      <point x="601" y="376" type="line"/>
      <point x="380" y="376" type="line"/>
      <point x="362" y="298" type="line"/>
      <point x="494" y="298" type="line"/>
      <point x="449" y="87" type="line"/>
      <point x="422" y="77"/>
      <point x="382" y="69"/>
      <point x="335" y="69" type="curve" smooth="yes"/>
      <point x="217" y="69"/>
      <point x="164" y="153"/>
      <point x="164" y="262" type="curve" smooth="yes"/>
      <point x="164" y="485"/>
      <point x="282" y="645"/>
      <point x="441" y="645" type="curve" smooth="yes"/>
      <point x="505" y="645"/>
      <point x="557" y="626"/>
      <point x="604" y="604" type="curve"/>
      <point x="639" y="682" type="line"/>
      <point x="583" y="708"/>
      <point x="525" y="724"/>
      <point x="443" y="724" type="curve" smooth="yes"/>
      <point x="220" y="724"/>
      <point x="70" y="517"/>
      <point x="70" y="255" type="curve" smooth="yes"/>
      <point x="70" y="88"/>
      <point x="164" y="-10"/>
    </contour>
  </outline>
</glyph>
<glyph name="H" format="2">
  <advance width="648"/>
  <unicode hex="0048"/>
  <anchor x="267" y="0" name="bottom"/>
  <anchor x="343" y="357" name="center"/>
  <anchor x="419" y="714" name="top"/>
  <anchor x="723" y="714" name="topright"/>
  <outline>
    <contour>
      <point x="39" y="0" type="line"/>
      <point x="128" y="0" type="line"/>
      <point x="198" y="333" type="line"/>
      <point x="490" y="333" type="line"/>
      <point x="420" y="0" type="line"/>
      <point x="508" y="0" type="line"/>
      <point x="659" y="714" type="line"/>
      <point x="571" y="714" type="line"/>
      <point x="508" y="412" type="line"/>
      <point x="215" y="412" type="line"/>
      <point x="279" y="714" type="line"/>
      <point x="190" y="714" type="line"/>
    </contour>
  </outline>
</glyph>
<glyph name="I" format="2">
  <advance width="311"/>
  <unicode hex="0049"/>
  <anchor x="101" y="0" name="bottom"/>
  <anchor x="253" y="714" name="top"/>
  <anchor x="390" y="714" name="topright"/>
  <outline>
    <contour>
      <point x="-20" y="0" type="line"/>
      <point x="222" y="0" type="line"/>
      <point x="233" y="49" type="line"/>
      <point x="160" y="69" type="line"/>
      <point x="280" y="645" type="line"/>
      <point x="363" y="664" type="line"/>
      <point x="373" y="714" type="line"/>
      <point x="131" y="714" type="line"/>
      <point x="120" y="664" type="line"/>
      <point x="192" y="645" type="line"/>
      <point x="72" y="69" type="line"/>
      <point x="-9" y="49" type="line"/>
    </contour>
  </outline>
</glyph>
<glyph name="K" format="2">
  <advance width="538"/>
  <unicode hex="004B"/>
  <anchor x="237" y="0" name="bottom"/>
  <anchor x="391" y="714" name="top"/>
  <anchor x="616" y="714" name="topright"/>
  <outline>
    <contour>
      <point x="38" y="0" type="line"/>
      <point x="127" y="0" type="line"/>
      <point x="186" y="285" type="line"/>
      <point x="264" y="346" type="line"/>
      <point x="390" y="0" type="line"/>
      <point x="488" y="0" type="line"/>
      <point x="334" y="400" type="line"/>
      <point x="630" y="714" type="line"/>
      <point x="523" y="714" type="line"/>
      <point x="264" y="433" type="line"/>
      <point x="204" y="367" type="line"/>
      <point x="278" y="714" type="line"/>
      <point x="189" y="714" type="line"/>
    </contour>
  </outline>
</glyph>
<glyph name="L" format="2">
  <advance width="457"/>
  <unicode hex="004C"/>
  <anchor x="202" y="0" name="bottom"/>
  <anchor x="158" y="357" name="center"/>
  <anchor x="234" y="714" name="top"/>
  <anchor x="412" y="714" name="topright"/>
  <outline>
    <contour>
      <point x="38" y="0" type="line"/>
      <point x="385" y="0" type="line"/>
      <point x="402" y="80" type="line"/>
      <point x="144" y="80" type="line"/>
      <point x="278" y="714" type="line"/>
      <point x="189" y="714" type="line"/>
    </contour>
  </outline>
</glyph>
<glyph name="M" format="2">
  <advance width="801"/>
  <unicode hex="004D"/>
  <anchor x="344" y="0" name="bottom"/>
  <anchor x="486" y="714" name="top"/>
  <anchor x="881" y="714" name="topright"/>
  <outline>
    <contour>
      <point x="37" y="0" type="line"/>
      <point x="121" y="0" type="line"/>
      <point x="210" y="429" type="line" smooth="yes"/>
      <point x="224" y="498"/>
      <point x="239" y="585"/>
      <point x="243" y="626" type="curve"/>
      <point x="247" y="626" type="line"/>
      <point x="309" y="0" type="line"/>
      <point x="381" y="0" type="line"/>
      <point x="710" y="627" type="line"/>
      <point x="712" y="627" type="line"/>
      <point x="700" y="584"/>
      <point x="682" y="511"/>
      <point x="664" y="424" type="curve" smooth="yes"/>
      <point x="575" y="0" type="line"/>
      <point x="664" y="0" type="line"/>
      <point x="812" y="714" type="line"/>
      <point x="677" y="714" type="line"/>
      <point x="373" y="131" type="line"/>
      <point x="370" y="131" type="line"/>
      <point x="313" y="714" type="line"/>
      <point x="188" y="714" type="line"/>
    </contour>
  </outline>
</glyph>
<glyph name="N" format="2">
  <advance width="675"/>
  <unicode hex="004E"/>
  <anchor x="283" y="0" name="bottom"/>
  <anchor x="431" y="714" name="top"/>
  <anchor x="754" y="714" name="topright"/>
  <outline>
    <contour>
      <point x="37" y="0" type="line"/>
      <point x="120" y="0" type="line"/>
      <point x="202" y="388" type="line" smooth="yes"/>
      <point x="217" y="461"/>
      <point x="233" y="550"/>
      <point x="238" y="592" type="curve"/>
      <point x="241" y="592" type="line"/>
      <point x="441" y="0" type="line"/>
      <point x="536" y="0" type="line"/>
      <point x="687" y="714" type="line"/>
      <point x="604" y="714" type="line"/>
      <point x="520" y="321" type="line" smooth="yes"/>
      <point x="506" y="254"/>
      <point x="491" y="172"/>
      <point x="485" y="124" type="curve"/>
      <point x="482" y="124" type="line"/>
      <point x="284" y="714" type="line"/>
      <point x="188" y="714" type="line"/>
    </contour>
  </outline>
</glyph>
<glyph name="O" format="2">
  <advance width="686"/>
  <unicode hex="004F"/>
  <anchor x="307" y="0" name="bottom"/>
  <anchor x="371" y="357" name="center"/>
  <anchor x="441" y="714" name="top"/>
  <anchor x="764" y="714" name="topright"/>
  <outline>
    <contour>
      <point x="319" y="-10" type="curve" smooth="yes"/>
      <point x="543" y="-10"/>
      <point x="661" y="201"/>
      <point x="661" y="448" type="curve" smooth="yes"/>
      <point x="661" y="620"/>
      <point x="572" y="725"/>
      <point x="419" y="725" type="curve" smooth="yes"/>
      <point x="201" y="725"/>
      <point x="70" y="510"/>
      <point x="70" y="263" type="curve" smooth="yes"/>
      <point x="70" y="94"/>
      <point x="158" y="-10"/>
    </contour>
    <contour>
      <point x="323" y="69" type="curve" smooth="yes"/>
      <point x="224" y="69"/>
      <point x="164" y="142"/>
      <point x="164" y="266" type="curve" smooth="yes"/>
      <point x="164" y="474"/>
      <point x="261" y="646"/>
      <point x="412" y="646" type="curve" smooth="yes"/>
      <point x="508" y="646"/>
      <point x="566" y="574"/>
      <point x="566" y="450" type="curve" smooth="yes"/>
      <point x="566" y="247"/>
      <point x="473" y="69"/>
    </contour>
  </outline>
</glyph>
<glyph name="P" format="2">
  <advance width="542"/>
  <unicode hex="0050"/>
  <anchor x="217" y="0" name="bottom"/>
  <anchor x="363" y="714" name="top"/>
  <anchor x="621" y="714" name="topright"/>
  <outline>
    <contour>
      <point x="38" y="0" type="line"/>
      <point x="127" y="0" type="line"/>
      <point x="185" y="279" type="line"/>
      <point x="247" y="279" type="line" smooth="yes"/>
      <point x="441" y="279"/>
      <point x="548" y="368"/>
      <point x="548" y="531" type="curve" smooth="yes"/>
      <point x="548" y="640"/>
      <point x="491" y="714"/>
      <point x="345" y="714" type="curve" smooth="yes"/>
      <point x="189" y="714" type="line"/>
    </contour>
    <contour>
      <point x="261" y="354" type="curve" smooth="yes"/>
      <point x="202" y="354" type="line"/>
      <point x="261" y="637" type="line"/>
      <point x="333" y="637" type="line" smooth="yes"/>
      <point x="417" y="637"/>
      <point x="457" y="605"/>
      <point x="457" y="527" type="curve" smooth="yes"/>
      <point x="457" y="408"/>
      <point x="381" y="354"/>
    </contour>
  </outline>
</glyph>
<glyph name="Q" format="2">
  <advance width="686"/>
  <unicode hex="0051"/>
  <anchor x="283" y="-110" name="bottom"/>
  <anchor x="441" y="714" name="top"/>
  <anchor x="764" y="714" name="topright"/>
  <outline>
    <contour>
      <point x="334" y="-9" type="curve"/>
      <point x="433" y="-170" type="line"/>
      <point x="546" y="-170" type="line"/>
      <point x="421" y="7" type="line"/>
      <point x="574" y="61"/>
      <point x="661" y="242"/>
      <point x="661" y="448" type="curve" smooth="yes"/>
      <point x="661" y="620"/>
      <point x="572" y="725"/>
      <point x="419" y="725" type="curve" smooth="yes"/>
      <point x="201" y="725"/>
      <point x="70" y="510"/>
      <point x="70" y="263" type="curve" smooth="yes"/>
      <point x="70" y="94"/>
      <point x="158" y="-10"/>
      <point x="319" y="-10" type="curve" smooth="yes"/>
      <point x="324" y="-10"/>
      <point x="328" y="-10"/>
    </contour>
    <contour>
      <point x="323" y="69" type="curve" smooth="yes"/>
      <point x="224" y="69"/>
      <point x="164" y="142"/>
      <point x="164" y="266" type="curve" smooth="yes"/>
      <point x="164" y="474"/>
      <point x="261" y="646"/>
      <point x="412" y="646" type="curve" smooth="yes"/>
      <point x="508" y="646"/>
      <point x="566" y="574"/>
      <point x="566" y="450" type="curve" smooth="yes"/>
      <point x="566" y="247"/>
      <point x="476" y="69"/>
    </contour>
  </outline>
</glyph>
<glyph name="S" format="2">
  <advance width="482"/>
  <unicode hex="0053"/>
  <anchor x="176" y="0" name="bottom"/>
  <anchor x="329" y="714" name="top"/>
  <anchor x="560" y="714" name="topright"/>
  <outline>
    <contour>
      <point x="176" y="-10" type="curve" smooth="yes"/>
      <point x="326" y="-10"/>
      <point x="428" y="65"/>
      <point x="428" y="209" type="curve" smooth="yes"/>
      <point x="428" y="306"/>
      <point x="374" y="347"/>
      <point x="294" y="398" type="curve" smooth="yes"/>
      <point x="230" y="439"/>
      <point x="199" y="462"/>
      <point x="199" y="521" type="curve" smooth="yes"/>
      <point x="199" y="599"/>
      <point x="254" y="645"/>
      <point x="330" y="645" type="curve" smooth="yes"/>
      <point x="382" y="645"/>
      <point x="433" y="625"/>
      <point x="467" y="606" type="curve"/>
      <point x="502" y="682" type="line"/>
      <point x="453" y="708"/>
      <point x="402" y="724"/>
      <point x="331" y="724" type="curve" smooth="yes"/>
      <point x="206" y="724"/>
      <point x="105" y="648"/>
      <point x="105" y="515" type="curve" smooth="yes"/>
      <point x="105" y="423"/>
      <point x="157" y="378"/>
      <point x="226" y="334" type="curve" smooth="yes"/>
      <point x="303" y="285"/>
      <point x="334" y="253"/>
      <point x="334" y="201" type="curve" smooth="yes"/>
      <point x="334" y="108"/>
      <point x="262" y="68"/>
      <point x="178" y="68" type="curve" smooth="yes"/>
      <point x="110" y="68"/>
      <point x="58" y="89"/>
      <point x="19" y="110" type="curve"/>
      <point x="18" y="22" type="line"/>
      <point x="61" y="0"/>
      <point x="110" y="-10"/>
    </contour>
  </outline>
</glyph>
<glyph name="T" format="2">
  <advance width="478"/>
  <unicode hex="0054"/>
  <anchor x="186" y="0" name="bottom"/>
  <anchor x="267" y="357" name="center"/>
  <anchor x="338" y="714" name="top"/>
  <anchor x="557" y="714" name="topright"/>
  <outline>
    <contour>
      <point x="143" y="0" type="line"/>
      <point x="233" y="0" type="line"/>
      <point x="367" y="635" type="line"/>
      <point x="552" y="635" type="line"/>
      <point x="568" y="714" type="line"/>
      <point x="110" y="714" type="line"/>
      <point x="92" y="635" type="line"/>
      <point x="276" y="635" type="line"/>
    </contour>
  </outline>
</glyph>
<glyph name="U" format="2">
  <advance width="644"/>
  <unicode hex="0055"/>
  <anchor x="278" y="0" name="bottom"/>
  <anchor x="410" y="714" name="top"/>
  <anchor x="723" y="714" name="topright"/>
  <outline>
    <contour>
      <point x="284" y="-10" type="curve" smooth="yes"/>
      <point x="451" y="-10"/>
      <point x="529" y="87"/>
      <point x="562" y="243" type="curve"/>
      <point x="662" y="714" type="line"/>
      <point x="573" y="714" type="line"/>
      <point x="474" y="250" type="line" smooth="yes"/>
      <point x="448" y="131"/>
      <point x="400" y="69"/>
      <point x="291" y="69" type="curve" smooth="yes"/>
      <point x="207" y="69"/>
      <point x="165" y="113"/>
      <point x="165" y="187" type="curve" smooth="yes"/>
      <point x="165" y="208"/>
      <point x="169" y="246"/>
      <point x="176" y="278" type="curve" smooth="yes"/>
      <point x="269" y="714" type="line"/>
      <point x="181" y="714" type="line"/>
      <point x="89" y="283" type="line" smooth="yes"/>
      <point x="80" y="244"/>
      <point x="76" y="209"/>
      <point x="76" y="185" type="curve" smooth="yes"/>
      <point x="76" y="60"/>
      <point x="144" y="-10"/>
    </contour>
  </outline>
</glyph>
<glyph name="V" format="2">
  <advance width="527"/>
  <unicode hex="0056"/>
  <anchor x="208" y="0" name="bottom"/>
  <anchor x="351" y="714" name="top"/>
  <anchor x="606" y="714" name="topright"/>
  <outline>
    <contour>
      <point x="159" y="0" type="line"/>
      <point x="255" y="0" type="line"/>
      <point x="622" y="714" type="line"/>
      <point x="524" y="714" type="line"/>
      <point x="301" y="263" type="line" smooth="yes"/>
      <point x="270" y="200"/>
      <point x="246" y="149"/>
      <point x="227" y="101" type="curve"/>
      <point x="225" y="101" type="line"/>
      <point x="227" y="149"/>
      <point x="224" y="207"/>
      <point x="219" y="262" type="curve" smooth="yes"/>
      <point x="182" y="714" type="line"/>
      <point x="95" y="714" type="line"/>
    </contour>
  </outline>
</glyph>
<glyph name="W" format="2">
  <advance width="816"/>
  <unicode hex="0057"/>
  <anchor x="364" y="0" name="bottom"/>
  <anchor x="506" y="714" name="top"/>
  <anchor x="895" y="714" name="topright"/>
  <outline>
    <contour>
      <point x="128" y="0" type="line"/>
      <point x="221" y="0" type="line"/>
      <point x="422" y="457" type="line" smooth="yes"/>
      <point x="451" y="523"/>
      <point x="467" y="559"/>
      <point x="480" y="599" type="curve"/>
      <point x="483" y="599" type="line"/>
      <point x="482" y="558"/>
      <point x="483" y="504"/>
      <point x="484" y="460" type="curve" smooth="yes"/>
      <point x="500" y="0" type="line"/>
      <point x="592" y="0" type="line"/>
      <point x="907" y="714" type="line"/>
      <point x="812" y="714" type="line"/>
      <point x="632" y="282" type="line" smooth="yes"/>
      <point x="608" y="223"/>
      <point x="587" y="161"/>
      <point x="569" y="110" type="curve"/>
      <point x="567" y="110" type="line"/>
      <point x="568" y="159"/>
      <point x="568" y="233"/>
      <point x="566" y="296" type="curve" smooth="yes"/>
      <point x="551" y="714" type="line"/>
      <point x="462" y="714" type="line"/>
      <point x="273" y="294" type="line" smooth="yes"/>
      <point x="246" y="235"/>
      <point x="219" y="162"/>
      <point x="200" y="110" type="curve"/>
      <point x="197" y="110" type="line"/>
      <point x="201" y="163"/>
      <point x="204" y="224"/>
      <point x="203" y="279" type="curve" smooth="yes"/>
      <point x="195" y="714" type="line"/>
      <point x="108" y="714" type="line"/>
    </contour>
  </outline>
</glyph>
<glyph name="X" format="2">
  <advance width="506"/>
  <unicode hex="0058"/>
  <anchor x="199" y="0" name="bottom"/>
  <anchor x="337" y="714" name="top"/>
  <anchor x="585" y="714" name="topright"/>
  <outline>
    <contour>
      <point x="-50" y="0" type="line"/>
      <point x="48" y="0" type="line"/>
      <point x="269" y="309" type="line"/>
      <point x="361" y="0" type="line"/>
      <point x="455" y="0" type="line"/>
      <point x="331" y="374" type="line"/>
      <point x="591" y="714" type="line"/>
      <point x="493" y="714" type="line"/>
      <point x="291" y="441" type="line"/>
      <point x="204" y="714" type="line"/>
      <point x="113" y="714" type="line"/>
      <point x="230" y="378" type="line"/>
    </contour>
  </outline>
</glyph>
<glyph name="Y" format="2">
  <advance width="488"/>
  <unicode hex="0059"/>
  <anchor x="188" y="0" name="bottom"/>
  <anchor x="336" y="714" name="top"/>
  <anchor x="566" y="714" name="topright"/>
  <outline>
    <contour>
      <point x="142" y="0" type="line"/>
      <point x="232" y="0" type="line"/>
      <point x="287" y="265" type="line"/>
      <point x="583" y="714" type="line"/>
      <point x="482" y="714" type="line"/>
      <point x="259" y="356" type="line"/>
      <point x="184" y="714" type="line"/>
      <point x="95" y="714" type="line"/>
      <point x="200" y="268" type="line"/>
    </contour>
  </outline>
</glyph>
<glyph name="Z" format="2">
  <advance width="505"/>
  <unicode hex="005A"/>
  <anchor x="204" y="0" name="bottom"/>
  <anchor x="341" y="714" name="top"/>
  <anchor x="577" y="714" name="topright"/>
  <outline>
    <contour>
      <point x="-11" y="0" type="line"/>
      <point x="413" y="0" type="line"/>
      <point x="430" y="80" type="line"/>
      <point x="115" y="80" type="line"/>
      <point x="539" y="643" type="line"/>
      <point x="553" y="714" type="line"/>
      <point x="149" y="714" type="line"/>
      <point x="132" y="634" type="line"/>
      <point x="427" y="634" type="line"/>
      <point x="3" y="70" type="line"/>
    </contour>
  </outline>
</glyph>
<glyph name="bracketleft" format="2">
  <advance width="278"/>
  <unicode hex="005B"/>
  <outline>
    <contour>
      <point x="-11" y="-158" type="line"/>
      <point x="175" y="-158" type="line"/>
      <point x="191" y="-86" type="line"/>
      <point x="87" y="-86" type="line"/>
      <point x="241" y="642" type="line"/>
      <point x="345" y="642" type="line"/>
      <point x="361" y="714" type="line"/>
      <point x="175" y="714" type="line"/>
    </contour>
  </outline>
</glyph>
<glyph name="bracketright" format="2">
  <advance width="278"/>
  <unicode hex="005D"/>
  <outline>
    <contour>
      <point x="-70" y="-158" type="line"/>
      <point x="115" y="-158" type="line"/>
      <point x="301" y="714" type="line"/>
      <point x="115" y="714" type="line"/>
      <point x="99" y="642" type="line"/>
      <point x="203" y="642" type="line"/>
      <point x="50" y="-86" type="line"/>
      <point x="-54" y="-86" type="line"/>
    </contour>
  </outline>
</glyph>
<glyph name="asciicircum" format="2">
  <advance width="541"/>
  <unicode hex="005E"/>
  <outline>
    <contour>
      <point x="37" y="267" type="line"/>
      <point x="114" y="267" type="line"/>
      <point x="272" y="626" type="line"/>
      <point x="433" y="267" type="line"/>
      <point x="509" y="267" type="line"/>
      <point x="299" y="719" type="line"/>
      <point x="250" y="719" type="line"/>
    </contour>
  </outline>
</glyph>
<glyph name="grave" format="2">
  <advance width="271"/>
  <unicode hex="0060"/>
  <anchor x="233" y="536" name="_top"/>
  <outline>
    <contour>
      <point x="249" y="606" type="curve"/>
      <point x="303" y="606" type="line"/>
      <point x="304" y="618" type="line"/>
      <point x="278" y="663"/>
      <point x="253" y="717"/>
      <point x="240" y="766" type="curve"/>
      <point x="146" y="766" type="line"/>
      <point x="146" y="756" type="line"/>
      <point x="165" y="714"/>
      <point x="214" y="644"/>
    </contour>
  </outline>
</glyph>
<glyph name="a" format="2">
  <advance width="541"/>
  <unicode hex="0061"/>
  <anchor x="206" y="0" name="bottom"/>
  <anchor x="321" y="536" name="top"/>
  <anchor x="562" y="536" name="topright"/>
  <outline>
    <contour>
      <point x="183" y="-10" type="curve" smooth="yes"/>
      <point x="254" y="-10"/>
      <point x="312" y="40"/>
      <point x="356" y="99" type="curve"/>
      <point x="359" y="99" type="line"/>
      <point x="346" y="0" type="line"/>
      <point x="416" y="0" type="line"/>
      <point x="530" y="536" type="line"/>
      <point x="463" y="536" type="line"/>
      <point x="432" y="453" type="line"/>
      <point x="427" y="453" type="line"/>
      <point x="407" y="502"/>
      <point x="367" y="546"/>
      <point x="300" y="546" type="curve" smooth="yes"/>
      <point x="152" y="546"/>
      <point x="47" y="370"/>
      <point x="47" y="170" type="curve" smooth="yes"/>
      <point x="47" y="52"/>
      <point x="103" y="-10"/>
    </contour>
    <contour>
      <point x="214" y="63" type="curve" smooth="yes"/>
      <point x="165" y="63"/>
      <point x="137" y="98"/>
      <point x="137" y="169" type="curve" smooth="yes"/>
      <point x="137" y="326"/>
      <point x="211" y="472"/>
      <point x="309" y="472" type="curve" smooth="yes"/>
      <point x="363" y="472"/>
      <point x="397" y="429"/>
      <point x="397" y="366" type="curve" smooth="yes"/>
      <point x="397" y="340"/>
      <point x="394" y="306"/>
      <point x="384" y="266" type="curve" smooth="yes"/>
      <point x="355" y="151"/>
      <point x="282" y="63"/>
    </contour>
  </outline>
</glyph>
<glyph name="c" format="2">
  <advance width="432"/>
  <unicode hex="0063"/>
  <anchor x="220" y="0" name="bottom"/>
  <anchor x="318" y="536" name="top"/>
  <anchor x="453" y="536" name="topright"/>
  <outline>
    <contour>
      <point x="234" y="-10" type="curve"/>
      <point x="287" y="-10"/>
      <point x="332" y="3"/>
      <point x="368" y="22" type="curve"/>
      <point x="368" y="96" type="line"/>
      <point x="329" y="78"/>
      <point x="290" y="63"/>
      <point x="245" y="63" type="curve" smooth="yes"/>
      <point x="177" y="63"/>
      <point x="137" y="109"/>
      <point x="137" y="189" type="curve" smooth="yes"/>
      <point x="137" y="341"/>
      <point x="210" y="472"/>
      <point x="318" y="472" type="curve"/>
      <point x="359" y="472"/>
      <point x="393" y="459"/>
      <point x="420" y="447" type="curve"/>
      <point x="445" y="520" type="line"/>
      <point x="409" y="536"/>
      <point x="363" y="546"/>
      <point x="317" y="546" type="curve"/>
      <point x="151" y="546"/>
      <point x="47" y="379"/>
      <point x="47" y="187" type="curve" smooth="yes"/>
      <point x="47" y="55"/>
      <point x="123" y="-10"/>
    </contour>
  </outline>
</glyph>
<glyph name="e" format="2">
  <advance width="478"/>
  <unicode hex="0065"/>
  <anchor x="225" y="0" name="bottom"/>
  <anchor x="307" y="536" name="top"/>
  <anchor x="518" y="536" name="topright"/>
  <outline>
    <contour>
      <point x="231" y="-10" type="curve" smooth="yes"/>
      <point x="296" y="-10"/>
      <point x="338" y="6"/>
      <point x="387" y="29" type="curve"/>
      <point x="388" y="104" type="line"/>
      <point x="336" y="78"/>
      <point x="296" y="63"/>
      <point x="248" y="63" type="curve" smooth="yes"/>
      <point x="172" y="63"/>
      <point x="136" y="112"/>
      <point x="136" y="193" type="curve" smooth="yes"/>
      <point x="136" y="205"/>
      <point x="137" y="219"/>
      <point x="138" y="232" type="curve"/>
      <point x="155" y="232" type="line" smooth="yes"/>
      <point x="365" y="232"/>
      <point x="454" y="317"/>
      <point x="454" y="423" type="curve" smooth="yes"/>
      <point x="454" y="500"/>
      <point x="405" y="546"/>
      <point x="308" y="546" type="curve" smooth="yes"/>
      <point x="146" y="546"/>
      <point x="47" y="359"/>
      <point x="47" y="189" type="curve" smooth="yes"/>
      <point x="47" y="67"/>
      <point x="114" y="-10"/>
    </contour>
    <contour>
      <point x="159" y="303" type="curve" smooth="yes"/>
      <point x="151" y="303" type="line"/>
      <point x="179" y="411"/>
      <point x="242" y="473"/>
      <point x="302" y="473" type="curve" smooth="yes"/>
      <point x="347" y="473"/>
      <point x="368" y="448"/>
      <point x="368" y="415" type="curve" smooth="yes"/>
      <point x="368" y="332"/>
      <point x="273" y="303"/>
    </contour>
  </outline>
</glyph>
<glyph name="f" format="2">
  <advance width="306"/>
  <unicode hex="0066"/>
  <anchor x="-46" y="-240" name="bottom"/>
  <anchor x="341" y="765" name="top"/>
  <anchor x="443" y="765" name="topright"/>
  <outline>
    <contour>
      <point x="-46" y="-240" type="curve"/>
      <point x="47" y="-240"/>
      <point x="92" y="-174"/>
      <point x="115" y="-63" type="curve" smooth="yes"/>
      <point x="227" y="469" type="line"/>
      <point x="336" y="469" type="line"/>
      <point x="350" y="536" type="line"/>
      <point x="241" y="536" type="line"/>
      <point x="252" y="587" type="line" smooth="yes"/>
      <point x="270" y="670"/>
      <point x="297" y="693"/>
      <point x="345" y="693" type="curve"/>
      <point x="370" y="693"/>
      <point x="390" y="686"/>
      <point x="408" y="679" type="curve"/>
      <point x="432" y="746" type="line"/>
      <point x="411" y="756"/>
      <point x="374" y="765"/>
      <point x="341" y="765" type="curve"/>
      <point x="247" y="765"/>
      <point x="197" y="724"/>
      <point x="165" y="587" type="curve" smooth="yes"/>
      <point x="154" y="539" type="line"/>
      <point x="60" y="506" type="line"/>
      <point x="52" y="469" type="line"/>
      <point x="140" y="469" type="line"/>
      <point x="30" y="-53" type="line" smooth="yes"/>
      <point x="14" y="-127"/>
      <point x="-9" y="-167"/>
      <point x="-54" y="-167" type="curve" smooth="yes"/>
      <point x="-74" y="-167"/>
      <point x="-90" y="-162"/>
      <point x="-107" y="-156" type="curve"/>
      <point x="-108" y="-230" type="line"/>
      <point x="-92" y="-236"/>
      <point x="-71" y="-240"/>
    </contour>
  </outline>
</glyph>
<glyph name="h" format="2">
  <advance width="551"/>
  <unicode hex="0068"/>
  <anchor x="221" y="0" name="bottom"/>
  <anchor x="275" y="268" name="center"/>
  <anchor x="230" y="760" name="top"/>
  <anchor x="582" y="760" name="topright"/>
  <outline>
    <contour>
      <point x="26" y="0" type="line"/>
      <point x="114" y="0" type="line"/>
      <point x="162" y="231" type="line" smooth="yes"/>
      <point x="199" y="407"/>
      <point x="285" y="472"/>
      <point x="350" y="472" type="curve" smooth="yes"/>
      <point x="395" y="472"/>
      <point x="415" y="446"/>
      <point x="415" y="403" type="curve" smooth="yes"/>
      <point x="415" y="387"/>
      <point x="412" y="367"/>
      <point x="405" y="336" type="curve" smooth="yes"/>
      <point x="335" y="0" type="line"/>
      <point x="423" y="0" type="line"/>
      <point x="492" y="326" type="line"/>
      <point x="498" y="357"/>
      <point x="503" y="383"/>
      <point x="503" y="410" type="curve" smooth="yes"/>
      <point x="503" y="500"/>
      <point x="455" y="545"/>
      <point x="376" y="545" type="curve" smooth="yes"/>
      <point x="296" y="545"/>
      <point x="242" y="486"/>
      <point x="205" y="436" type="curve"/>
      <point x="200" y="436" type="line"/>
      <point x="211" y="478"/>
      <point x="225" y="523"/>
      <point x="233" y="563" type="curve" smooth="yes"/>
      <point x="275" y="760" type="line"/>
      <point x="187" y="760" type="line"/>
    </contour>
  </outline>
</glyph>
<glyph name="i" format="2">
  <advance width="249"/>
  <unicode hex="0069"/>
  <anchor x="70" y="0" name="bottom"/>
  <anchor x="227" y="736" name="top"/>
  <anchor x="322" y="736" name="topright"/>
  <outline>
    <contour>
      <point x="26" y="0" type="line"/>
      <point x="114" y="0" type="line"/>
      <point x="228" y="536" type="line"/>
      <point x="140" y="536" type="line"/>
    </contour>
    <contour>
      <point x="210" y="625" type="curve" smooth="yes"/>
      <point x="240" y="625"/>
      <point x="268" y="650"/>
      <point x="268" y="692" type="curve" smooth="yes"/>
      <point x="268" y="719"/>
      <point x="252" y="736"/>
      <point x="222" y="736" type="curve" smooth="yes"/>
      <point x="185" y="736"/>
      <point x="163" y="706"/>
      <point x="163" y="671" type="curve" smooth="yes"/>
      <point x="163" y="642"/>
      <point x="183" y="625"/>
    </contour>
  </outline>
</glyph>
<glyph name="k" format="2">
  <advance width="475"/>
  <unicode hex="006B"/>
  <anchor x="213" y="0" name="bottom"/>
  <anchor x="228" y="760" name="top"/>
  <anchor x="504" y="840" name="topright"/>
  <outline>
    <contour>
      <point x="25" y="0" type="line"/>
      <point x="114" y="0" type="line"/>
      <point x="154" y="194" type="line"/>
      <point x="222" y="251" type="line"/>
      <point x="325" y="0" type="line"/>
      <point x="422" y="0" type="line"/>
      <point x="289" y="306" type="line"/>
      <point x="511" y="536" type="line"/>
      <point x="408" y="536" type="line"/>
      <point x="166" y="277" type="line"/>
      <point x="164" y="277" type="line"/>
      <point x="170" y="296"/>
      <point x="187" y="351"/>
      <point x="210" y="458" type="curve" smooth="yes"/>
      <point x="274" y="760" type="line"/>
      <point x="186" y="760" type="line"/>
    </contour>
  </outline>
</glyph>
<glyph name="l" format="2">
  <advance width="248"/>
  <unicode hex="006C"/>
  <anchor x="67" y="0" name="bottom"/>
  <anchor x="124" y="268" name="center"/>
  <anchor x="229" y="760" name="top"/>
  <anchor x="333" y="760" name="topright"/>
  <outline>
    <contour>
      <point x="25" y="0" type="line"/>
      <point x="113" y="0" type="line"/>
      <point x="275" y="760" type="line"/>
      <point x="187" y="760" type="line"/>
    </contour>
  </outline>
</glyph>
<glyph name="m" format="2">
  <advance width="833"/>
  <unicode hex="006D"/>
  <anchor x="360" y="0" name="bottom"/>
  <anchor x="474" y="536" name="top"/>
  <anchor x="870" y="536" name="topright"/>
  <outline>
    <contour>
      <point x="26" y="0" type="line"/>
      <point x="114" y="0" type="line"/>
      <point x="162" y="231" type="line" smooth="yes"/>
      <point x="199" y="407"/>
      <point x="279" y="472"/>
      <point x="341" y="472" type="curve" smooth="yes"/>
      <point x="384" y="472"/>
      <point x="401" y="447"/>
      <point x="401" y="403" type="curve" smooth="yes"/>
      <point x="401" y="387"/>
      <point x="398" y="366"/>
      <point x="392" y="336" type="curve" smooth="yes"/>
      <point x="322" y="0" type="line"/>
      <point x="409" y="0" type="line"/>
      <point x="460" y="242" type="line" smooth="yes"/>
      <point x="494" y="403"/>
      <point x="573" y="472"/>
      <point x="635" y="472" type="curve" smooth="yes"/>
      <point x="678" y="472"/>
      <point x="697" y="446"/>
      <point x="697" y="407" type="curve" smooth="yes"/>
      <point x="697" y="387"/>
      <point x="695" y="367"/>
      <point x="688" y="336" type="curve" smooth="yes"/>
      <point x="617" y="0" type="line"/>
      <point x="705" y="0" type="line"/>
      <point x="774" y="326" type="line"/>
      <point x="781" y="357"/>
      <point x="785" y="384"/>
      <point x="785" y="416" type="curve" smooth="yes"/>
      <point x="785" y="500"/>
      <point x="741" y="546"/>
      <point x="663" y="546" type="curve" smooth="yes"/>
      <point x="585" y="546"/>
      <point x="526" y="486"/>
      <point x="487" y="427" type="curve"/>
      <point x="483" y="427" type="line"/>
      <point x="476" y="501"/>
      <point x="439" y="546"/>
      <point x="369" y="546" type="curve" smooth="yes"/>
      <point x="292" y="546"/>
      <point x="240" y="486"/>
      <point x="205" y="437" type="curve"/>
      <point x="200" y="437" type="line"/>
      <point x="211" y="536" type="line"/>
      <point x="140" y="536" type="line"/>
    </contour>
  </outline>
</glyph>
<glyph name="n" format="2">
  <advance width="552"/>
  <unicode hex="006E"/>
  <anchor x="219" y="0" name="bottom"/>
  <anchor x="333" y="536" name="top"/>
  <anchor x="589" y="536" name="topright"/>
  <outline>
    <contour>
      <point x="22" y="0" type="line"/>
      <point x="115" y="0" type="line"/>
      <point x="165" y="230" type="line" smooth="yes"/>
      <point x="200" y="405"/>
      <point x="286" y="469"/>
      <point x="350" y="469" type="curve" smooth="yes"/>
      <point x="392" y="469"/>
      <point x="412" y="447"/>
      <point x="412" y="405" type="curve" smooth="yes"/>
      <point x="412" y="386"/>
      <point x="408" y="367"/>
      <point x="402" y="337" type="curve"/>
      <point x="331" y="0" type="line"/>
      <point x="424" y="0" type="line"/>
      <point x="494" y="325" type="line"/>
      <point x="499" y="349"/>
      <point x="506" y="383"/>
      <point x="506" y="414" type="curve" smooth="yes"/>
      <point x="506" y="499"/>
      <point x="457" y="549"/>
      <point x="375" y="549" type="curve" smooth="yes"/>
      <point x="293" y="549"/>
      <point x="241" y="489"/>
      <point x="204" y="440" type="curve"/>
      <point x="202" y="440" type="line"/>
      <point x="214" y="539" type="line"/>
      <point x="137" y="539" type="line"/>
    </contour>
  </outline>
</glyph>
<glyph name="o" format="2">
  <advance width="536"/>
  <unicode hex="006F"/>
  <anchor x="211" y="0" name="bottom"/>
  <anchor x="268" y="268" name="center"/>
  <anchor x="325" y="536" name="top"/>
  <anchor x="573" y="536" name="topright"/>
  <outline>
    <contour>
      <point x="235" y="-8" type="curve" smooth="yes"/>
      <point x="408" y="-8"/>
      <point x="495" y="176"/>
      <point x="495" y="339" type="curve" smooth="yes"/>
      <point x="495" y="465"/>
      <point x="425" y="543"/>
      <point x="307" y="543" type="curve" smooth="yes"/>
      <point x="136" y="543"/>
      <point x="47" y="359"/>
      <point x="47" y="195" type="curve" smooth="yes"/>
      <point x="47" y="70"/>
      <point x="119" y="-8"/>
    </contour>
    <contour>
      <point x="242" y="65" type="curve" smooth="yes"/>
      <point x="174" y="65"/>
      <point x="136" y="111"/>
      <point x="136" y="193" type="curve" smooth="yes"/>
      <point x="136" y="342"/>
      <point x="201" y="470"/>
      <point x="306" y="470" type="curve" smooth="yes"/>
      <point x="379" y="470"/>
      <point x="406" y="406"/>
      <point x="406" y="348" type="curve" smooth="yes"/>
      <point x="406" y="171"/>
      <point x="332" y="65"/>
    </contour>
  </outline>
</glyph>
<glyph name="p" format="2">
  <advance width="551"/>
  <unicode hex="0070"/>
  <anchor x="19" y="-240" name="bottom"/>
  <anchor x="333" y="536" name="top"/>
  <anchor x="588" y="536" name="topright"/>
  <outline>
    <contour>
      <point x="-24" y="-240" type="line"/>
      <point x="63" y="-240" type="line"/>
      <point x="111" y="-9" type="line" smooth="yes"/>
      <point x="116" y="15"/>
      <point x="123" y="60"/>
      <point x="125" y="82" type="curve"/>
      <point x="130" y="82" type="line"/>
      <point x="151" y="33"/>
      <point x="190" y="-10"/>
      <point x="258" y="-10" type="curve" smooth="yes"/>
      <point x="412" y="-10"/>
      <point x="509" y="169"/>
      <point x="509" y="365" type="curve" smooth="yes"/>
      <point x="509" y="484"/>
      <point x="453" y="545"/>
      <point x="373" y="545" type="curve" smooth="yes"/>
      <point x="302" y="545"/>
      <point x="248" y="495"/>
      <point x="203" y="436" type="curve"/>
      <point x="199" y="436" type="line"/>
      <point x="212" y="536" type="line"/>
      <point x="140" y="536" type="line"/>
    </contour>
    <contour>
      <point x="251" y="63" type="curve" smooth="yes"/>
      <point x="187" y="63"/>
      <point x="157" y="106"/>
      <point x="157" y="169" type="curve" smooth="yes"/>
      <point x="157" y="328"/>
      <point x="256" y="472"/>
      <point x="341" y="472" type="curve" smooth="yes"/>
      <point x="393" y="472"/>
      <point x="419" y="437"/>
      <point x="419" y="366" type="curve" smooth="yes"/>
      <point x="419" y="217"/>
      <point x="351" y="63"/>
    </contour>
  </outline>
</glyph>
<glyph name="q" format="2">
  <advance width="551"/>
  <unicode hex="0071"/>
  <anchor x="320" y="-240" name="bottom"/>
  <anchor x="333" y="536" name="top"/>
  <anchor x="568" y="536" name="topright"/>
  <outline>
    <contour>
      <point x="326" y="-12" type="curve" smooth="yes"/>
      <point x="278" y="-240" type="line"/>
      <point x="365" y="-240" type="line"/>
      <point x="530" y="536" type="line"/>
      <point x="464" y="536" type="line"/>
      <point x="432" y="453" type="line"/>
      <point x="427" y="453" type="line"/>
      <point x="407" y="502"/>
      <point x="368" y="546"/>
      <point x="301" y="546" type="curve" smooth="yes"/>
      <point x="145" y="546"/>
      <point x="47" y="364"/>
      <point x="47" y="170" type="curve" smooth="yes"/>
      <point x="47" y="51"/>
      <point x="103" y="-10"/>
      <point x="184" y="-10" type="curve" smooth="yes"/>
      <point x="255" y="-10"/>
      <point x="307" y="40"/>
      <point x="351" y="99" type="curve"/>
      <point x="355" y="99" type="line"/>
      <point x="346" y="66"/>
      <point x="331" y="13"/>
    </contour>
    <contour>
      <point x="215" y="63" type="curve" smooth="yes"/>
      <point x="164" y="63"/>
      <point x="137" y="98"/>
      <point x="137" y="169" type="curve" smooth="yes"/>
      <point x="137" y="318"/>
      <point x="208" y="472"/>
      <point x="307" y="472" type="curve" smooth="yes"/>
      <point x="370" y="472"/>
      <point x="397" y="424"/>
      <point x="397" y="366" type="curve" smooth="yes"/>
      <point x="397" y="211"/>
      <point x="301" y="63"/>
    </contour>
  </outline>
</glyph>
<glyph name="s" format="2">
  <advance width="413"/>
  <unicode hex="0073"/>
  <anchor x="150" y="0" name="bottom"/>
  <anchor x="264" y="536" name="top"/>
  <anchor x="420" y="536" name="topright"/>
  <outline>
    <contour>
      <point x="148" y="-10" type="curve"/>
      <point x="269" y="-10"/>
      <point x="348" y="47"/>
      <point x="349" y="155" type="curve"/>
      <point x="350" y="230"/>
      <point x="302" y="265"/>
      <point x="238" y="305" type="curve"/>
      <point x="173" y="344"/>
      <point x="156" y="364"/>
      <point x="156" y="398" type="curve" smooth="yes"/>
      <point x="156" y="442"/>
      <point x="191" y="472"/>
      <point x="244" y="472" type="curve"/>
      <point x="298" y="472"/>
      <point x="337" y="455"/>
      <point x="371" y="439" type="curve"/>
      <point x="399" y="509" type="line"/>
      <point x="360" y="528"/>
      <point x="306" y="546"/>
      <point x="245" y="546" type="curve"/>
      <point x="138" y="546"/>
      <point x="69" y="485"/>
      <point x="68" y="394" type="curve"/>
      <point x="68" y="326"/>
      <point x="104" y="286"/>
      <point x="175" y="243" type="curve"/>
      <point x="240" y="204"/>
      <point x="259" y="185"/>
      <point x="259" y="147" type="curve" smooth="yes"/>
      <point x="259" y="96"/>
      <point x="219" y="62"/>
      <point x="146" y="62" type="curve"/>
      <point x="93" y="62"/>
      <point x="39" y="84"/>
      <point x="6" y="105" type="curve"/>
      <point x="5" y="24" type="line"/>
      <point x="41" y="4"/>
      <point x="86" y="-10"/>
    </contour>
  </outline>
</glyph>
<glyph name="t" format="2">
  <advance width="321"/>
  <unicode hex="0074"/>
  <anchor x="134" y="0" name="bottom"/>
  <anchor x="126" y="268" name="center"/>
  <anchor x="215" y="658" name="top"/>
  <anchor x="354" y="840" name="topright"/>
  <outline>
    <contour>
      <point x="177" y="-10" type="curve"/>
      <point x="206" y="-10"/>
      <point x="244" y="0"/>
      <point x="260" y="8" type="curve"/>
      <point x="261" y="75" type="line"/>
      <point x="236" y="67"/>
      <point x="216" y="62"/>
      <point x="193" y="62" type="curve"/>
      <point x="157" y="62"/>
      <point x="143" y="86"/>
      <point x="144" y="117" type="curve"/>
      <point x="144" y="136"/>
      <point x="148" y="159"/>
      <point x="152" y="177" type="curve" smooth="yes"/>
      <point x="214" y="469" type="line"/>
      <point x="342" y="469" type="line"/>
      <point x="356" y="536" type="line"/>
      <point x="228" y="536" type="line"/>
      <point x="255" y="658" type="line"/>
      <point x="202" y="658" type="line"/>
      <point x="142" y="547" type="line"/>
      <point x="55" y="509" type="line"/>
      <point x="47" y="469" type="line"/>
      <point x="125" y="469" type="line"/>
      <point x="64" y="178" type="line" smooth="yes"/>
      <point x="59" y="152"/>
      <point x="56" y="127"/>
      <point x="55" y="107" type="curve"/>
      <point x="55" y="20"/>
      <point x="107" y="-10"/>
    </contour>
  </outline>
</glyph>
<glyph name="u" format="2">
  <advance width="551"/>
  <unicode hex="0075"/>
  <anchor x="182" y="0" name="bottom"/>
  <anchor x="332" y="536" name="top"/>
  <anchor x="578" y="536" name="topright"/>
  <outline>
    <contour>
      <point x="179" y="-10" type="curve" smooth="yes"/>
      <point x="261" y="-10"/>
      <point x="315" y="50"/>
      <point x="352" y="99" type="curve"/>
      <point x="356" y="99" type="line"/>
      <point x="345" y="0" type="line"/>
      <point x="416" y="0" type="line"/>
      <point x="530" y="536" type="line"/>
      <point x="444" y="536" type="line"/>
      <point x="395" y="305" type="line" smooth="yes"/>
      <point x="357" y="129"/>
      <point x="271" y="63"/>
      <point x="206" y="63" type="curve" smooth="yes"/>
      <point x="160" y="63"/>
      <point x="142" y="89"/>
      <point x="142" y="131" type="curve" smooth="yes"/>
      <point x="142" y="148"/>
      <point x="145" y="169"/>
      <point x="152" y="199" type="curve" smooth="yes"/>
      <point x="223" y="536" type="line"/>
      <point x="134" y="536" type="line"/>
      <point x="64" y="209" type="line"/>
      <point x="58" y="178"/>
      <point x="53" y="152"/>
      <point x="53" y="121" type="curve" smooth="yes"/>
      <point x="53" y="35"/>
      <point x="102" y="-10"/>
    </contour>
  </outline>
</glyph>
<glyph name="v" format="2">
  <advance width="446"/>
  <unicode hex="0076"/>
  <anchor x="166" y="0" name="bottom"/>
  <anchor x="280" y="536" name="top"/>
  <anchor x="483" y="536" name="topright"/>
  <outline>
    <contour>
      <point x="105" y="0" type="line"/>
      <point x="217" y="0" type="line"/>
      <point x="498" y="536" type="line"/>
      <point x="405" y="536" type="line"/>
      <point x="252" y="241" type="line"/>
      <point x="231" y="198"/>
      <point x="195" y="116"/>
      <point x="174" y="67" type="curve"/>
      <point x="171" y="67" type="line"/>
      <point x="172" y="95"/>
      <point x="168" y="185"/>
      <point x="164" y="238" type="curve" smooth="yes"/>
      <point x="139" y="536" type="line"/>
      <point x="51" y="536" type="line"/>
    </contour>
  </outline>
</glyph>
<glyph name="w" format="2">
  <advance width="691"/>
  <unicode hex="0077"/>
  <anchor x="279" y="0" name="bottom"/>
  <anchor x="393" y="536" name="top"/>
  <anchor x="728" y="536" name="topright"/>
  <outline>
    <contour>
      <point x="75" y="0" type="line"/>
      <point x="178" y="0" type="line"/>
      <point x="312" y="300" type="line" smooth="yes"/>
      <point x="342" y="368"/>
      <point x="357" y="402"/>
      <point x="374" y="451" type="curve"/>
      <point x="378" y="451" type="line"/>
      <point x="377" y="388"/>
      <point x="375" y="343"/>
      <point x="377" y="290" type="curve" smooth="yes"/>
      <point x="387" y="0" type="line"/>
      <point x="492" y="0" type="line"/>
      <point x="734" y="536" type="line"/>
      <point x="641" y="536" type="line"/>
      <point x="529" y="273" type="line" smooth="yes"/>
      <point x="498" y="200"/>
      <point x="471" y="128"/>
      <point x="455" y="77" type="curve"/>
      <point x="451" y="77" type="line"/>
      <point x="453" y="128"/>
      <point x="454" y="200"/>
      <point x="452" y="249" type="curve" smooth="yes"/>
      <point x="441" y="536" type="line"/>
      <point x="345" y="536" type="line"/>
      <point x="210" y="233" type="line" smooth="yes"/>
      <point x="191" y="191"/>
      <point x="162" y="119"/>
      <point x="148" y="77" type="curve"/>
      <point x="144" y="77" type="line"/>
      <point x="147" y="115"/>
      <point x="151" y="177"/>
      <point x="150" y="250" type="curve" smooth="yes"/>
      <point x="146" y="536" type="line"/>
      <point x="60" y="536" type="line"/>
    </contour>
  </outline>
</glyph>
<glyph name="y" format="2">
  <advance width="447"/>
  <unicode hex="0079"/>
  <anchor x="-30" y="-240" name="bottom"/>
  <anchor x="281" y="536" name="top"/>
  <anchor x="484" y="536" name="topright"/>
  <outline>
    <contour>
      <point x="-24" y="-240" type="curve" smooth="yes"/>
      <point x="65" y="-240"/>
      <point x="117" y="-190"/>
      <point x="170" y="-90" type="curve" smooth="yes"/>
      <point x="499" y="536" type="line"/>
      <point x="405" y="536" type="line"/>
      <point x="255" y="242" type="line" smooth="yes"/>
      <point x="232" y="198"/>
      <point x="194" y="104"/>
      <point x="182" y="72" type="curve"/>
      <point x="179" y="72" type="line"/>
      <point x="179" y="114"/>
      <point x="176" y="206"/>
      <point x="169" y="271" type="curve" smooth="yes"/>
      <point x="139" y="536" type="line"/>
      <point x="51" y="536" type="line"/>
      <point x="123" y="-8" type="line"/>
      <point x="90" y="-70" type="line" smooth="yes"/>
      <point x="56" y="-134"/>
      <point x="23" y="-168"/>
      <point x="-29" y="-168" type="curve" smooth="yes"/>
      <point x="-52" y="-168"/>
      <point x="-72" y="-164"/>
      <point x="-89" y="-159" type="curve"/>
      <point x="-90" y="-230" type="line"/>
      <point x="-72" y="-236"/>
      <point x="-55" y="-240"/>
    </contour>
  </outline>
</glyph>
<glyph name="z" format="2">
  <advance width="423"/>
  <unicode hex="007A"/>
  <anchor x="155" y="0" name="bottom"/>
  <anchor x="269" y="536" name="top"/>
  <anchor x="450" y="536" name="topright"/>
  <outline>
    <contour>
      <point x="-15" y="0" type="line"/>
      <point x="325" y="0" type="line"/>
      <point x="338" y="66" type="line"/>
      <point x="99" y="66" type="line"/>
      <point x="410" y="465" type="line"/>
      <point x="425" y="536" type="line"/>
      <point x="113" y="536" type="line"/>
      <point x="98" y="470" type="line"/>
      <point x="314" y="470" type="line"/>
      <point x="-3" y="60" type="line"/>
    </contour>
  </outline>
</glyph>
<glyph name="braceleft" format="2">
  <advance width="333"/>
  <unicode hex="007B"/>
  <outline>
    <contour>
      <point x="205" y="-158" type="curve" smooth="yes"/>
      <point x="219" y="-158" type="line"/>
      <point x="220" y="-85" type="line"/>
      <point x="177" y="-85"/>
      <point x="150" y="-75"/>
      <point x="150" y="-37" type="curve" smooth="yes"/>
      <point x="150" y="-24"/>
      <point x="153" y="-7"/>
      <point x="157" y="10" type="curve" smooth="yes"/>
      <point x="178" y="112" type="line"/>
      <point x="183" y="134"/>
      <point x="187" y="158"/>
      <point x="187" y="177" type="curve" smooth="yes"/>
      <point x="187" y="228"/>
      <point x="166" y="265"/>
      <point x="117" y="279" type="curve"/>
      <point x="117" y="281" type="line"/>
      <point x="191" y="294"/>
      <point x="224" y="340"/>
      <point x="239" y="408" type="curve" smooth="yes"/>
      <point x="274" y="564" type="line"/>
      <point x="288" y="627"/>
      <point x="318" y="641"/>
      <point x="374" y="641" type="curve"/>
      <point x="389" y="714" type="line"/>
      <point x="371" y="714" type="line"/>
      <point x="264" y="714"/>
      <point x="216" y="677"/>
      <point x="194" y="572" type="curve" smooth="yes"/>
      <point x="162" y="415" type="line"/>
      <point x="147" y="347"/>
      <point x="103" y="322"/>
      <point x="29" y="322" type="curve"/>
      <point x="12" y="249" type="line"/>
      <point x="75" y="249"/>
      <point x="108" y="226"/>
      <point x="108" y="180" type="curve" smooth="yes"/>
      <point x="108" y="164"/>
      <point x="106" y="146"/>
      <point x="101" y="125" type="curve" smooth="yes"/>
      <point x="78" y="20" type="line"/>
      <point x="71" y="-6"/>
      <point x="67" y="-28"/>
      <point x="67" y="-50" type="curve" smooth="yes"/>
      <point x="67" y="-124"/>
      <point x="115" y="-158"/>
    </contour>
  </outline>
</glyph>
<glyph name="braceright" format="2">
  <advance width="333"/>
  <unicode hex="007D"/>
  <outline>
    <contour>
      <point x="-37" y="-85" type="curve"/>
      <point x="-38" y="-158" type="line"/>
      <point x="-30" y="-158" type="line" smooth="yes"/>
      <point x="76" y="-158"/>
      <point x="128" y="-128"/>
      <point x="151" y="-16" type="curve" smooth="yes"/>
      <point x="183" y="141" type="line" smooth="yes"/>
      <point x="197" y="209"/>
      <point x="242" y="234"/>
      <point x="315" y="234" type="curve"/>
      <point x="332" y="307" type="line"/>
      <point x="269" y="307"/>
      <point x="236" y="330"/>
      <point x="236" y="376" type="curve" smooth="yes"/>
      <point x="236" y="392"/>
      <point x="239" y="409"/>
      <point x="244" y="430" type="curve" smooth="yes"/>
      <point x="267" y="536" type="line" smooth="yes"/>
      <point x="273" y="562"/>
      <point x="277" y="584"/>
      <point x="277" y="606" type="curve" smooth="yes"/>
      <point x="277" y="680"/>
      <point x="230" y="714"/>
      <point x="137" y="714" type="curve" smooth="yes"/>
      <point x="131" y="714" type="line"/>
      <point x="116" y="641" type="line"/>
      <point x="166" y="641"/>
      <point x="197" y="631"/>
      <point x="197" y="593" type="curve" smooth="yes"/>
      <point x="197" y="580"/>
      <point x="194" y="562"/>
      <point x="190" y="546" type="curve" smooth="yes"/>
      <point x="167" y="443" type="line" smooth="yes"/>
      <point x="162" y="422"/>
      <point x="158" y="397"/>
      <point x="158" y="378" type="curve" smooth="yes"/>
      <point x="158" y="327"/>
      <point x="179" y="291"/>
      <point x="228" y="277" type="curve"/>
      <point x="228" y="274" type="line"/>
      <point x="154" y="261"/>
      <point x="121" y="216"/>
      <point x="106" y="148" type="curve" smooth="yes"/>
      <point x="71" y="-8" type="line" smooth="yes"/>
      <point x="57" y="-71"/>
      <point x="22" y="-85"/>
    </contour>
  </outline>
</glyph>
<glyph name="asciitilde" format="2">
  <advance width="537"/>
  <unicode hex="007E"/>
  <outline>
    <contour>
      <point x="273" y="319" type="curve" smooth="yes"/>
      <point x="329" y="293"/>
      <point x="361" y="287"/>
      <point x="397" y="287" type="curve" smooth="yes"/>
      <point x="442" y="287"/>
      <point x="480" y="306"/>
      <point x="510" y="341" type="curve"/>
      <point x="510" y="418" type="line"/>
      <point x="480" y="385"/>
      <point x="438" y="359"/>
      <point x="402" y="359" type="curve" smooth="yes"/>
      <point x="375" y="359"/>
      <point x="350" y="365"/>
      <point x="304" y="386" type="curve" smooth="yes"/>
      <point x="246" y="412"/>
      <point x="215" y="418"/>
      <point x="179" y="418" type="curve" smooth="yes"/>
      <point x="134" y="418"/>
      <point x="96" y="400"/>
      <point x="66" y="365" type="curve"/>
      <point x="66" y="287" type="line"/>
      <point x="96" y="320"/>
      <point x="138" y="346"/>
      <point x="173" y="346" type="curve" smooth="yes"/>
      <point x="200" y="346"/>
      <point x="227" y="340"/>
    </contour>
  </outline>
</glyph>
<glyph name="exclamdown" format="2">
  <advance width="250"/>
  <unicode hex="00A1"/>
  <outline>
    <contour>
      <point x="-13" y="-182" type="line"/>
      <point x="93" y="-182" type="line"/>
      <point x="185" y="331" type="line"/>
      <point x="114" y="331" type="line"/>
    </contour>
    <contour>
      <point x="168" y="411" type="curve" smooth="yes"/>
      <point x="217" y="411"/>
      <point x="240" y="454"/>
      <point x="240" y="493" type="curve" smooth="yes"/>
      <point x="240" y="527"/>
      <point x="222" y="546"/>
      <point x="192" y="546" type="curve" smooth="yes"/>
      <point x="142" y="546"/>
      <point x="117" y="506"/>
      <point x="117" y="462" type="curve" smooth="yes"/>
      <point x="117" y="429"/>
      <point x="136" y="411"/>
    </contour>
  </outline>
</glyph>
<glyph name="cent" format="2">
  <advance width="523"/>
  <unicode hex="00A2"/>
  <outline>
    <contour>
      <point x="228" y="95" type="curve"/>
      <point x="207" y="-10" type="line"/>
      <point x="270" y="-10" type="line"/>
      <point x="290" y="87" type="line"/>
      <point x="346" y="88"/>
      <point x="389" y="101"/>
      <point x="424" y="119" type="curve"/>
      <point x="424" y="194" type="line"/>
      <point x="386" y="175"/>
      <point x="347" y="160"/>
      <point x="302" y="160" type="curve" smooth="yes"/>
      <point x="234" y="160"/>
      <point x="193" y="207"/>
      <point x="193" y="287" type="curve" smooth="yes"/>
      <point x="193" y="439"/>
      <point x="267" y="570"/>
      <point x="375" y="570" type="curve" smooth="yes"/>
      <point x="416" y="570"/>
      <point x="450" y="557"/>
      <point x="476" y="545" type="curve"/>
      <point x="502" y="618" type="line"/>
      <point x="473" y="631"/>
      <point x="438" y="639"/>
      <point x="401" y="642" type="curve"/>
      <point x="419" y="724" type="line"/>
      <point x="357" y="724" type="line"/>
      <point x="341" y="642" type="line"/>
      <point x="195" y="619"/>
      <point x="103" y="466"/>
      <point x="103" y="285" type="curve" smooth="yes"/>
      <point x="103" y="180"/>
      <point x="153" y="116"/>
    </contour>
  </outline>
</glyph>
<glyph name="sterling" format="2">
  <advance width="523"/>
  <unicode hex="00A3"/>
  <outline>
    <contour>
      <point x="5" y="74" type="curve"/>
      <point x="-10" y="0" type="line"/>
      <point x="435" y="0" type="line"/>
      <point x="453" y="80" type="line"/>
      <point x="121" y="80" type="line"/>
      <point x="160" y="101"/>
      <point x="196" y="134"/>
      <point x="213" y="215" type="curve" smooth="yes"/>
      <point x="234" y="316" type="line"/>
      <point x="401" y="316" type="line"/>
      <point x="415" y="382" type="line"/>
      <point x="249" y="382" type="line"/>
      <point x="281" y="537" type="line" smooth="yes"/>
      <point x="300" y="627"/>
      <point x="347" y="650"/>
      <point x="398" y="650" type="curve" smooth="yes"/>
      <point x="450" y="650"/>
      <point x="493" y="629"/>
      <point x="524" y="612" type="curve"/>
      <point x="558" y="681" type="line"/>
      <point x="520" y="703"/>
      <point x="467" y="723"/>
      <point x="400" y="723" type="curve" smooth="yes"/>
      <point x="301" y="723"/>
      <point x="223" y="677"/>
      <point x="196" y="549" type="curve" smooth="yes"/>
      <point x="161" y="382" type="line"/>
      <point x="68" y="382" type="line"/>
      <point x="54" y="316" type="line"/>
      <point x="146" y="316" type="line"/>
      <point x="125" y="214" type="line" smooth="yes"/>
      <point x="107" y="126"/>
      <point x="60" y="87"/>
    </contour>
  </outline>
</glyph>
<glyph name="currency" format="2">
  <advance width="523"/>
  <unicode hex="00A4"/>
  <outline>
    <contour>
      <point x="379" y="201" type="curve"/>
      <point x="438" y="139" type="line"/>
      <point x="485" y="186" type="line"/>
      <point x="427" y="248" type="line"/>
      <point x="446" y="277"/>
      <point x="458" y="313"/>
      <point x="459" y="353" type="curve"/>
      <point x="459" y="392"/>
      <point x="446" y="428"/>
      <point x="429" y="458" type="curve"/>
      <point x="489" y="521" type="line"/>
      <point x="443" y="568" type="line"/>
      <point x="382" y="505" type="line"/>
      <point x="354" y="525"/>
      <point x="321" y="538"/>
      <point x="284" y="538" type="curve"/>
      <point x="248" y="538"/>
      <point x="213" y="525"/>
      <point x="185" y="505" type="curve"/>
      <point x="127" y="568" type="line"/>
      <point x="80" y="520" type="line"/>
      <point x="139" y="457" type="line"/>
      <point x="119" y="427"/>
      <point x="107" y="391"/>
      <point x="107" y="353" type="curve"/>
      <point x="106" y="313"/>
      <point x="117" y="278"/>
      <point x="137" y="249" type="curve"/>
      <point x="77" y="187" type="line"/>
      <point x="122" y="140" type="line"/>
      <point x="181" y="202" type="line"/>
      <point x="209" y="182"/>
      <point x="243" y="169"/>
      <point x="280" y="169" type="curve"/>
      <point x="317" y="169"/>
      <point x="351" y="181"/>
    </contour>
    <contour>
      <point x="281" y="236" type="curve"/>
      <point x="220" y="236"/>
      <point x="172" y="287"/>
      <point x="173" y="353" type="curve"/>
      <point x="174" y="420"/>
      <point x="223" y="472"/>
      <point x="284" y="472" type="curve"/>
      <point x="346" y="472"/>
      <point x="395" y="420"/>
      <point x="394" y="353" type="curve"/>
      <point x="394" y="287"/>
      <point x="344" y="236"/>
    </contour>
  </outline>
</glyph>
<glyph name="yen" format="2">
  <advance width="524"/>
  <unicode hex="00A5"/>
  <outline>
    <contour>
      <point x="163" y="0" type="line"/>
      <point x="244" y="0" type="line"/>
      <point x="272" y="128" type="line"/>
      <point x="405" y="128" type="line"/>
      <point x="420" y="195" type="line"/>
      <point x="285" y="195" type="line"/>
      <point x="301" y="272" type="line"/>
      <point x="436" y="272" type="line"/>
      <point x="450" y="339" type="line"/>
      <point x="345" y="339" type="line"/>
      <point x="594" y="714" type="line"/>
      <point x="498" y="714" type="line"/>
      <point x="275" y="356" type="line"/>
      <point x="201" y="714" type="line"/>
      <point x="115" y="714" type="line"/>
      <point x="205" y="339" type="line"/>
      <point x="102" y="339" type="line"/>
      <point x="87" y="272" type="line"/>
      <point x="220" y="272" type="line"/>
      <point x="204" y="195" type="line"/>
      <point x="72" y="195" type="line"/>
      <point x="57" y="128" type="line"/>
      <point x="190" y="128" type="line"/>
    </contour>
  </outline>
</glyph>
<glyph name="section" format="2">
  <advance width="462"/>
  <unicode hex="00A7"/>
  <outline>
    <contour>
      <point x="165" y="-5" type="curve" smooth="yes"/>
      <point x="299" y="-5"/>
      <point x="370" y="62"/>
      <point x="370" y="155" type="curve" smooth="yes"/>
      <point x="370" y="199"/>
      <point x="347" y="227"/>
      <point x="319" y="247" type="curve"/>
      <point x="381" y="280"/>
      <point x="426" y="335"/>
      <point x="426" y="403" type="curve" smooth="yes"/>
      <point x="426" y="474"/>
      <point x="379" y="511"/>
      <point x="312" y="543" type="curve" smooth="yes"/>
      <point x="248" y="574"/>
      <point x="223" y="592"/>
      <point x="223" y="626" type="curve" smooth="yes"/>
      <point x="223" y="678"/>
      <point x="273" y="698"/>
      <point x="321" y="698" type="curve" smooth="yes"/>
      <point x="364" y="698"/>
      <point x="404" y="686"/>
      <point x="445" y="668" type="curve"/>
      <point x="473" y="731" type="line"/>
      <point x="433" y="752"/>
      <point x="382" y="765"/>
      <point x="322" y="765" type="curve" smooth="yes"/>
      <point x="206" y="765"/>
      <point x="140" y="701"/>
      <point x="140" y="623" type="curve" smooth="yes"/>
      <point x="140" y="576"/>
      <point x="162" y="546"/>
      <point x="192" y="525" type="curve"/>
      <point x="133" y="497"/>
      <point x="83" y="451"/>
      <point x="83" y="374" type="curve" smooth="yes"/>
      <point x="83" y="300"/>
      <point x="127" y="263"/>
      <point x="197" y="230" type="curve" smooth="yes"/>
      <point x="264" y="198"/>
      <point x="287" y="175"/>
      <point x="287" y="145" type="curve" smooth="yes"/>
      <point x="287" y="92"/>
      <point x="245" y="62"/>
      <point x="166" y="62" type="curve" smooth="yes"/>
      <point x="113" y="62"/>
      <point x="59" y="82"/>
      <point x="26" y="101" type="curve"/>
      <point x="25" y="26" type="line"/>
      <point x="54" y="10"/>
      <point x="101" y="-5"/>
    </contour>
    <contour>
      <point x="270" y="277" type="curve"/>
      <point x="187" y="317"/>
      <point x="160" y="340"/>
      <point x="160" y="385" type="curve" smooth="yes"/>
      <point x="160" y="440"/>
      <point x="204" y="478"/>
      <point x="244" y="491" type="curve"/>
      <point x="318" y="457"/>
      <point x="347" y="431"/>
      <point x="347" y="391" type="curve" smooth="yes"/>
      <point x="347" y="340"/>
      <point x="310" y="300"/>
    </contour>
  </outline>
</glyph>
<glyph name="dieresis" format="2">
  <advance width="526"/>
  <unicode hex="00A8"/>
  <outline>
    <contour>
      <point x="427" y="631" type="curve"/>
      <point x="453" y="631"/>
      <point x="478" y="653"/>
      <point x="478" y="690" type="curve"/>
      <point x="478" y="714"/>
      <point x="465" y="730"/>
      <point x="439" y="730" type="curve"/>
      <point x="406" y="730"/>
      <point x="387" y="703"/>
      <point x="387" y="673" type="curve"/>
      <point x="386" y="646"/>
      <point x="404" y="631"/>
    </contour>
    <contour>
      <point x="257" y="631" type="curve"/>
      <point x="282" y="631"/>
      <point x="306" y="653"/>
      <point x="307" y="690" type="curve"/>
      <point x="307" y="714"/>
      <point x="294" y="730"/>
      <point x="267" y="730" type="curve"/>
      <point x="234" y="730"/>
      <point x="215" y="703"/>
      <point x="215" y="673" type="curve"/>
      <point x="215" y="646"/>
      <point x="232" y="631"/>
    </contour>
  </outline>
</glyph>
<glyph name="copyright" format="2">
  <advance width="790"/>
  <unicode hex="00A9"/>
  <outline>
    <contour>
      <point x="412" y="-10" type="curve" smooth="yes"/>
      <point x="606" y="-10"/>
      <point x="764" y="156"/>
      <point x="764" y="360" type="curve" smooth="yes"/>
      <point x="764" y="562"/>
      <point x="612" y="724"/>
      <point x="420" y="724" type="curve" smooth="yes"/>
      <point x="225" y="724"/>
      <point x="67" y="558"/>
      <point x="67" y="354" type="curve" smooth="yes"/>
      <point x="67" y="152"/>
      <point x="220" y="-10"/>
    </contour>
    <contour>
      <point x="428" y="133" type="curve" smooth="yes"/>
      <point x="472" y="133"/>
      <point x="502" y="144"/>
      <point x="530" y="157" type="curve"/>
      <point x="531" y="220" type="line"/>
      <point x="501" y="208"/>
      <point x="460" y="198"/>
      <point x="432" y="198" type="curve" smooth="yes"/>
      <point x="352" y="198"/>
      <point x="316" y="253"/>
      <point x="316" y="353" type="curve" smooth="yes"/>
      <point x="316" y="456"/>
      <point x="359" y="515"/>
      <point x="435" y="515" type="curve" smooth="yes"/>
      <point x="463" y="515"/>
      <point x="492" y="506"/>
      <point x="524" y="489" type="curve"/>
      <point x="554" y="550" type="line"/>
      <point x="518" y="569"/>
      <point x="476" y="580"/>
      <point x="437" y="580" type="curve" smooth="yes"/>
      <point x="311" y="580"/>
      <point x="243" y="487"/>
      <point x="243" y="353" type="curve" smooth="yes"/>
      <point x="243" y="220"/>
      <point x="305" y="133"/>
    </contour>
    <contour>
      <point x="412" y="43" type="curve" smooth="yes"/>
      <point x="249" y="43"/>
      <point x="117" y="183"/>
      <point x="117" y="354" type="curve" smooth="yes"/>
      <point x="117" y="529"/>
      <point x="254" y="671"/>
      <point x="419" y="671" type="curve" smooth="yes"/>
      <point x="583" y="671"/>
      <point x="715" y="531"/>
      <point x="715" y="360" type="curve" smooth="yes"/>
      <point x="715" y="185"/>
      <point x="579" y="43"/>
    </contour>
  </outline>
</glyph>
<glyph name="ordfeminine" format="2">
  <advance width="325"/>
  <unicode hex="00AA"/>
  <anchor x="179" y="383" name="bottom"/>
  <anchor x="251" y="719" name="top"/>
  <outline>
    <contour>
      <point x="167" y="383" type="curve" smooth="yes"/>
      <point x="212" y="383"/>
      <point x="240" y="410"/>
      <point x="265" y="445" type="curve"/>
      <point x="268" y="445" type="line"/>
      <point x="261" y="389" type="line"/>
      <point x="307" y="389" type="line"/>
      <point x="377" y="716" type="line"/>
      <point x="332" y="716" type="line"/>
      <point x="314" y="672" type="line"/>
      <point x="311" y="672" type="line"/>
      <point x="300" y="699"/>
      <point x="279" y="722"/>
      <point x="239" y="722" type="curve" smooth="yes"/>
      <point x="137" y="722"/>
      <point x="83" y="606"/>
      <point x="83" y="493" type="curve" smooth="yes"/>
      <point x="83" y="421"/>
      <point x="120" y="383"/>
    </contour>
    <contour>
      <point x="187" y="436" type="curve" smooth="yes"/>
      <point x="159" y="436"/>
      <point x="142" y="456"/>
      <point x="142" y="500" type="curve" smooth="yes"/>
      <point x="142" y="581"/>
      <point x="181" y="670"/>
      <point x="241" y="670" type="curve" smooth="yes"/>
      <point x="276" y="670"/>
      <point x="292" y="646"/>
      <point x="292" y="608" type="curve" smooth="yes"/>
      <point x="292" y="545"/>
      <point x="256" y="436"/>
    </contour>
  </outline>
</glyph>
<glyph name="logicalnot" format="2">
  <advance width="537"/>
  <unicode hex="00AC"/>
  <outline>
    <contour>
      <point x="509" y="388" type="line"/>
      <point x="66" y="388" type="line"/>
      <point x="66" y="317" type="line"/>
      <point x="440" y="317" type="line"/>
      <point x="440" y="128" type="line"/>
      <point x="509" y="128" type="line"/>
    </contour>
  </outline>
</glyph>
<glyph name="overscore" format="2">
  <advance width="381"/>
  <unicode hex="00AF"/>
  <outline>
    <contour>
      <point x="103" y="760" type="line"/>
      <point x="485" y="760" type="line"/>
      <point x="503" y="827" type="line"/>
      <point x="119" y="827" type="line"/>
    </contour>
  </outline>
</glyph>
<glyph name="degree" format="2">
  <advance width="406"/>
  <unicode hex="00B0"/>
  <outline>
    <contour>
      <point x="250" y="417" type="curve" smooth="yes"/>
      <point x="330" y="417"/>
      <point x="396" y="483"/>
      <point x="396" y="570" type="curve" smooth="yes"/>
      <point x="396" y="657"/>
      <point x="330" y="724"/>
      <point x="250" y="724" type="curve" smooth="yes"/>
      <point x="169" y="724"/>
      <point x="104" y="657"/>
      <point x="104" y="570" type="curve" smooth="yes"/>
      <point x="104" y="483"/>
      <point x="169" y="417"/>
    </contour>
    <contour>
      <point x="251" y="476" type="curve" smooth="yes"/>
      <point x="203" y="476"/>
      <point x="163" y="518"/>
      <point x="163" y="570" type="curve" smooth="yes"/>
      <point x="163" y="623"/>
      <point x="203" y="664"/>
      <point x="251" y="664" type="curve" smooth="yes"/>
      <point x="299" y="664"/>
      <point x="337" y="623"/>
      <point x="337" y="570" type="curve" smooth="yes"/>
      <point x="337" y="518"/>
      <point x="299" y="476"/>
    </contour>
  </outline>
</glyph>
<glyph name="plusminus" format="2">
  <advance width="537"/>
  <unicode hex="00B1"/>
  <outline>
    <contour>
      <point x="86" y="0" type="line"/>
      <point x="530" y="0" type="line"/>
      <point x="530" y="71" type="line"/>
      <point x="86" y="71" type="line"/>
    </contour>
    <component base="plus" xOffset="20" yOffset="3"/>
  </outline>
</glyph>
<glyph name="twosuperior" format="2">
  <advance width="338"/>
  <unicode hex="00B2"/>
  <outline>
    <contour>
      <point x="71" y="416" type="line"/>
      <point x="338" y="416" type="line"/>
      <point x="351" y="477" type="line"/>
      <point x="171" y="477" type="line"/>
      <point x="268" y="564" type="line" smooth="yes"/>
      <point x="355" y="642"/>
      <point x="388" y="686"/>
      <point x="388" y="752" type="curve" smooth="yes"/>
      <point x="388" y="802"/>
      <point x="357" y="853"/>
      <point x="279" y="853" type="curve" smooth="yes"/>
      <point x="227" y="853"/>
      <point x="185" y="836"/>
      <point x="145" y="803" type="curve"/>
      <point x="175" y="756" type="line"/>
      <point x="206" y="782"/>
      <point x="234" y="795"/>
      <point x="265" y="795" type="curve" smooth="yes"/>
      <point x="299" y="795"/>
      <point x="318" y="773"/>
      <point x="318" y="741" type="curve" smooth="yes"/>
      <point x="318" y="688"/>
      <point x="284" y="650"/>
      <point x="207" y="581" type="curve" smooth="yes"/>
      <point x="83" y="471" type="line"/>
    </contour>
  </outline>
</glyph>
<glyph name="threesuperior" format="2">
  <advance width="338"/>
  <unicode hex="00B3"/>
  <outline>
    <contour>
      <point x="191" y="409" type="curve" smooth="yes"/>
      <point x="301" y="409"/>
      <point x="356" y="469"/>
      <point x="356" y="546" type="curve" smooth="yes"/>
      <point x="356" y="591"/>
      <point x="332" y="625"/>
      <point x="288" y="636" type="curve"/>
      <point x="288" y="640" type="line"/>
      <point x="349" y="657"/>
      <point x="386" y="693"/>
      <point x="386" y="754" type="curve" smooth="yes"/>
      <point x="386" y="812"/>
      <point x="349" y="854"/>
      <point x="272" y="854" type="curve" smooth="yes"/>
      <point x="219" y="854"/>
      <point x="175" y="835"/>
      <point x="144" y="811" type="curve"/>
      <point x="171" y="763" type="line"/>
      <point x="198" y="783"/>
      <point x="226" y="795"/>
      <point x="258" y="796" type="curve" smooth="yes"/>
      <point x="296" y="797"/>
      <point x="317" y="777"/>
      <point x="317" y="740" type="curve" smooth="yes"/>
      <point x="317" y="693"/>
      <point x="279" y="666"/>
      <point x="221" y="666" type="curve" smooth="yes"/>
      <point x="177" y="666" type="line"/>
      <point x="165" y="611" type="line"/>
      <point x="210" y="611" type="line" smooth="yes"/>
      <point x="261" y="611"/>
      <point x="287" y="589"/>
      <point x="287" y="548" type="curve" smooth="yes"/>
      <point x="287" y="497"/>
      <point x="256" y="466"/>
      <point x="193" y="466" type="curve" smooth="yes"/>
      <point x="155" y="466"/>
      <point x="115" y="481"/>
      <point x="82" y="501" type="curve"/>
      <point x="81" y="436" type="line"/>
      <point x="110" y="420"/>
      <point x="149" y="409"/>
    </contour>
  </outline>
</glyph>
<glyph name="acute" format="2">
  <advance width="258"/>
  <unicode hex="00B4"/>
  <anchor x="153" y="536" name="_top"/>
  <outline>
    <contour>
      <point x="115" y="619" type="curve"/>
      <point x="115" y="606" type="line"/>
      <point x="171" y="606" type="line"/>
      <point x="219" y="642"/>
      <point x="295" y="721"/>
      <point x="322" y="756" type="curve"/>
      <point x="322" y="766" type="line"/>
      <point x="223" y="766" type="line"/>
      <point x="195" y="721"/>
      <point x="149" y="657"/>
    </contour>
  </outline>
</glyph>
<glyph name="micro" format="2">
  <advance width="558"/>
  <unicode hex="00B5"/>
  <outline>
    <contour>
      <point x="-24" y="-240" type="line"/>
      <point x="62" y="-240" type="line"/>
      <point x="94" y="-86" type="line" smooth="yes"/>
      <point x="100" y="-59"/>
      <point x="110" y="7"/>
      <point x="114" y="36" type="curve"/>
      <point x="118" y="36" type="line"/>
      <point x="134" y="4"/>
      <point x="159" y="-10"/>
      <point x="192" y="-10" type="curve" smooth="yes"/>
      <point x="269" y="-10"/>
      <point x="321" y="48"/>
      <point x="358" y="99" type="curve"/>
      <point x="363" y="99" type="line"/>
      <point x="352" y="0" type="line"/>
      <point x="423" y="0" type="line"/>
      <point x="537" y="536" type="line"/>
      <point x="451" y="536" type="line"/>
      <point x="400" y="303" type="line" smooth="yes"/>
      <point x="362" y="128"/>
      <point x="277" y="63"/>
      <point x="213" y="63" type="curve" smooth="yes"/>
      <point x="168" y="63"/>
      <point x="148" y="89"/>
      <point x="148" y="133" type="curve" smooth="yes"/>
      <point x="148" y="148"/>
      <point x="151" y="169"/>
      <point x="157" y="199" type="curve" smooth="yes"/>
      <point x="228" y="536" type="line"/>
      <point x="140" y="536" type="line"/>
    </contour>
  </outline>
</glyph>
<glyph name="paragraph" format="2">
  <advance width="622"/>
  <unicode hex="00B6"/>
  <outline>
    <contour>
      <point x="354" y="273" type="curve"/>
      <point x="354" y="-127" type="line"/>
      <point x="411" y="-127" type="line"/>
      <point x="411" y="682" type="line"/>
      <point x="506" y="682" type="line"/>
      <point x="506" y="-127" type="line"/>
      <point x="563" y="-127" type="line"/>
      <point x="563" y="760" type="line"/>
      <point x="306" y="760" type="line" smooth="yes"/>
      <point x="181" y="760"/>
      <point x="94" y="700"/>
      <point x="94" y="509" type="curve" smooth="yes"/>
      <point x="94" y="326"/>
      <point x="168" y="264"/>
      <point x="286" y="264" type="curve"/>
      <point x="313" y="264"/>
      <point x="335" y="267"/>
    </contour>
  </outline>
</glyph>
<glyph name="cedilla" format="2">
  <advance width="195"/>
  <unicode hex="00B8"/>
  <outline>
    <contour>
      <point x="-39" y="-240" type="curve"/>
      <point x="51" y="-240"/>
      <point x="101" y="-194"/>
      <point x="101" y="-134" type="curve" smooth="yes"/>
      <point x="101" y="-85"/>
      <point x="70" y="-66"/>
      <point x="40" y="-57" type="curve"/>
      <point x="67" y="0" type="line"/>
      <point x="12" y="0" type="line"/>
      <point x="-35" y="-88" type="line"/>
      <point x="4" y="-93"/>
      <point x="29" y="-105"/>
      <point x="29" y="-134" type="curve" smooth="yes"/>
      <point x="29" y="-169"/>
      <point x="4" y="-187"/>
      <point x="-47" y="-187" type="curve"/>
      <point x="-57" y="-187"/>
      <point x="-71" y="-186"/>
      <point x="-84" y="-183" type="curve"/>
      <point x="-84" y="-235" type="line"/>
      <point x="-73" y="-238"/>
      <point x="-56" y="-240"/>
    </contour>
  </outline>
</glyph>
<glyph name="onesuperior" format="2">
  <advance width="338"/>
  <unicode hex="00B9"/>
  <outline>
    <contour>
      <point x="231" y="666" type="curve" smooth="yes"/>
      <point x="179" y="415" type="line"/>
      <point x="249" y="415" type="line"/>
      <point x="340" y="843" type="line"/>
      <point x="279" y="843" type="line"/>
      <point x="139" y="751" type="line"/>
      <point x="167" y="704" type="line"/>
      <point x="217" y="738" type="line" smooth="yes"/>
      <point x="232" y="749"/>
      <point x="248" y="765"/>
      <point x="258" y="775" type="curve"/>
      <point x="250" y="747"/>
      <point x="238" y="699"/>
    </contour>
  </outline>
</glyph>
<glyph name="ordmasculine" format="2">
  <advance width="324"/>
  <unicode hex="00BA"/>
  <anchor x="192" y="383" name="bottom"/>
  <anchor x="256" y="721" name="top"/>
  <outline>
    <contour>
      <point x="202" y="383" type="curve" smooth="yes"/>
      <point x="315" y="383"/>
      <point x="361" y="493"/>
      <point x="361" y="596" type="curve" smooth="yes"/>
      <point x="361" y="669"/>
      <point x="327" y="722"/>
      <point x="247" y="722" type="curve" smooth="yes"/>
      <point x="141" y="722"/>
      <point x="87" y="616"/>
      <point x="87" y="512" type="curve" smooth="yes"/>
      <point x="87" y="425"/>
      <point x="136" y="383"/>
    </contour>
    <contour>
      <point x="208" y="435" type="curve" smooth="yes"/>
      <point x="169" y="435"/>
      <point x="146" y="461"/>
      <point x="146" y="514" type="curve" smooth="yes"/>
      <point x="146" y="594"/>
      <point x="179" y="669"/>
      <point x="244" y="669" type="curve" smooth="yes"/>
      <point x="280" y="669"/>
      <point x="302" y="646"/>
      <point x="302" y="593" type="curve" smooth="yes"/>
      <point x="302" y="514"/>
      <point x="271" y="435"/>
    </contour>
  </outline>
</glyph>
<glyph name="AE" format="2">
  <advance width="788"/>
  <unicode hex="00C6"/>
  <anchor x="340" y="0" name="bottom"/>
  <anchor x="512" y="714" name="top"/>
  <outline>
    <contour>
      <point x="-55" y="0" type="line"/>
      <point x="46" y="0" type="line"/>
      <point x="178" y="222" type="line"/>
      <point x="381" y="222" type="line"/>
      <point x="335" y="0" type="line"/>
      <point x="682" y="0" type="line"/>
      <point x="700" y="79" type="line"/>
      <point x="442" y="79" type="line"/>
      <point x="495" y="334" type="line"/>
      <point x="737" y="334" type="line"/>
      <point x="753" y="412" type="line"/>
      <point x="511" y="412" type="line"/>
      <point x="558" y="635" type="line"/>
      <point x="817" y="635" type="line"/>
      <point x="833" y="714" type="line"/>
      <point x="386" y="714" type="line"/>
    </contour>
    <contour>
      <point x="230" y="302" type="line"/>
      <point x="429" y="635" type="line"/>
      <point x="468" y="635" type="line"/>
      <point x="398" y="302" type="line"/>
    </contour>
  </outline>
</glyph>
<glyph name="Eth" format="2">
  <advance width="635"/>
  <unicode hex="00D0"/>
  <anchor x="264" y="0" name="bottom"/>
  <anchor x="395" y="714" name="top"/>
  <outline>
    <contour>
      <point x="357" y="392" type="line"/>
      <point x="52" y="392" type="line"/>
      <point x="34" y="315" type="line"/>
      <point x="339" y="315" type="line"/>
    </contour>
    <component base="D"/>
  </outline>
</glyph>
<glyph name="multiply" format="2">
  <advance width="538"/>
  <unicode hex="00D7"/>
  <outline>
    <contour>
      <point x="447" y="574" type="line"/>
      <point x="288" y="403" type="line"/>
      <point x="130" y="574" type="line"/>
      <point x="80" y="522" type="line"/>
      <point x="238" y="353" type="line"/>
      <point x="81" y="183" type="line"/>
      <point x="131" y="132" type="line"/>
      <point x="287" y="301" type="line"/>
      <point x="446" y="132" type="line"/>
      <point x="495" y="183" type="line"/>
      <point x="337" y="353" type="line"/>
      <point x="496" y="523" type="line"/>
    </contour>
  </outline>
</glyph>
<glyph name="Oslash" format="2">
  <advance width="686"/>
  <unicode hex="00D8"/>
  <anchor x="280" y="-41" name="bottom"/>
  <anchor x="449" y="752" name="top"/>
  <outline>
    <contour>
      <point x="109" y="-41" type="line"/>
      <point x="168" y="36" type="line"/>
      <point x="209" y="5"/>
      <point x="258" y="-10"/>
      <point x="320" y="-10" type="curve"/>
      <point x="541" y="-10"/>
      <point x="659" y="197"/>
      <point x="661" y="444" type="curve"/>
      <point x="662" y="513"/>
      <point x="647" y="577"/>
      <point x="618" y="618" type="curve"/>
      <point x="686" y="706" type="line"/>
      <point x="630" y="752" type="line"/>
      <point x="570" y="673" type="line"/>
      <point x="528" y="708"/>
      <point x="480" y="725"/>
      <point x="420" y="725" type="curve"/>
      <point x="204" y="725"/>
      <point x="73" y="513"/>
      <point x="71" y="267" type="curve"/>
      <point x="70" y="196"/>
      <point x="85" y="134"/>
      <point x="117" y="87" type="curve"/>
      <point x="54" y="5" type="line"/>
    </contour>
    <contour>
      <point x="324" y="69" type="curve"/>
      <point x="281" y="69"/>
      <point x="246" y="82"/>
      <point x="221" y="103" type="curve"/>
      <point x="556" y="540" type="line"/>
      <point x="564" y="515"/>
      <point x="569" y="482"/>
      <point x="568" y="446" type="curve"/>
      <point x="566" y="244"/>
      <point x="473" y="69"/>
    </contour>
    <contour>
      <point x="515" y="606" type="curve"/>
      <point x="180" y="164" type="line"/>
      <point x="169" y="192"/>
      <point x="163" y="229"/>
      <point x="164" y="269" type="curve"/>
      <point x="166" y="477"/>
      <point x="263" y="647"/>
      <point x="413" y="647" type="curve"/>
      <point x="455" y="647"/>
      <point x="490" y="632"/>
    </contour>
  </outline>
</glyph>
<glyph name="Thorn" format="2">
  <advance width="541"/>
  <unicode hex="00DE"/>
  <anchor x="217" y="0" name="bottom"/>
  <anchor x="369" y="714" name="top"/>
  <outline>
    <contour>
      <point x="38" y="0" type="line"/>
      <point x="127" y="0" type="line"/>
      <point x="160" y="155" type="line"/>
      <point x="220" y="155" type="line" smooth="yes"/>
      <point x="413" y="155"/>
      <point x="520" y="243"/>
      <point x="522" y="404" type="curve"/>
      <point x="523" y="516"/>
      <point x="465" y="590"/>
      <point x="318" y="590" type="curve"/>
      <point x="252" y="590" type="line"/>
      <point x="278" y="714" type="line"/>
      <point x="189" y="714" type="line"/>
    </contour>
    <contour>
      <point x="235" y="231" type="curve"/>
      <point x="176" y="231" type="line"/>
      <point x="234" y="513" type="line"/>
      <point x="306" y="513" type="line" smooth="yes"/>
      <point x="391" y="513"/>
      <point x="431" y="481"/>
      <point x="431" y="401" type="curve"/>
      <point x="429" y="283"/>
      <point x="352" y="231"/>
    </contour>
  </outline>
</glyph>
<glyph name="germandbls" format="2">
  <advance width="561"/>
  <unicode hex="00DF"/>
  <anchor x="175" y="-240" name="bottom"/>
  <anchor x="389" y="765" name="top"/>
  <outline>
    <contour>
      <point x="-62" y="-240" type="curve" smooth="yes"/>
      <point x="33" y="-240"/>
      <point x="78" y="-173"/>
      <point x="101" y="-62" type="curve" smooth="yes"/>
      <point x="233" y="570" type="line" smooth="yes"/>
      <point x="250" y="651"/>
      <point x="289" y="693"/>
      <point x="362" y="693" type="curve" smooth="yes"/>
      <point x="415" y="693"/>
      <point x="450" y="669"/>
      <point x="450" y="627" type="curve" smooth="yes"/>
      <point x="450" y="579"/>
      <point x="411" y="549"/>
      <point x="369" y="519" type="curve" smooth="yes"/>
      <point x="323" y="486"/>
      <point x="277" y="451"/>
      <point x="277" y="382" type="curve" smooth="yes"/>
      <point x="277" y="341"/>
      <point x="297" y="309"/>
      <point x="349" y="266" type="curve" smooth="yes"/>
      <point x="393" y="229"/>
      <point x="411" y="207"/>
      <point x="411" y="164" type="curve" smooth="yes"/>
      <point x="411" y="108"/>
      <point x="373" y="62"/>
      <point x="297" y="62" type="curve" smooth="yes"/>
      <point x="254" y="62"/>
      <point x="209" y="84"/>
      <point x="183" y="106" type="curve"/>
      <point x="182" y="25" type="line"/>
      <point x="209" y="4"/>
      <point x="251" y="-10"/>
      <point x="308" y="-10" type="curve" smooth="yes"/>
      <point x="411" y="-10"/>
      <point x="500" y="46"/>
      <point x="500" y="175" type="curve" smooth="yes"/>
      <point x="500" y="236"/>
      <point x="469" y="274"/>
      <point x="421" y="316" type="curve" smooth="yes"/>
      <point x="402" y="333"/>
      <point x="364" y="358"/>
      <point x="364" y="388" type="curve" smooth="yes"/>
      <point x="364" y="424"/>
      <point x="401" y="451"/>
      <point x="442" y="482" type="curve" smooth="yes"/>
      <point x="491" y="519"/>
      <point x="537" y="563"/>
      <point x="537" y="633" type="curve" smooth="yes"/>
      <point x="537" y="718"/>
      <point x="471" y="765"/>
      <point x="371" y="765" type="curve" smooth="yes"/>
      <point x="246" y="765"/>
      <point x="175" y="701"/>
      <point x="147" y="570" type="curve" smooth="yes"/>
      <point x="11" y="-68" type="line" smooth="yes"/>
      <point x="-4" y="-139"/>
      <point x="-29" y="-166"/>
      <point x="-69" y="-166" type="curve" smooth="yes"/>
      <point x="-89" y="-166"/>
      <point x="-105" y="-162"/>
      <point x="-120" y="-155" type="curve"/>
      <point x="-121" y="-230" type="line"/>
      <point x="-106" y="-236"/>
      <point x="-85" y="-240"/>
    </contour>
  </outline>
</glyph>
<glyph name="ae" format="2">
  <advance width="783"/>
  <unicode hex="00E6"/>
  <anchor x="337" y="0" name="bottom"/>
  <anchor x="451" y="536" name="top"/>
  <outline>
    <contour>
      <point x="169" y="-10" type="curve" smooth="yes"/>
      <point x="239" y="-10"/>
      <point x="286" y="33"/>
      <point x="337" y="99" type="curve"/>
      <point x="341" y="99" type="line"/>
      <point x="328" y="0" type="line"/>
      <point x="387" y="0" type="line"/>
      <point x="400" y="66" type="line"/>
      <point x="426" y="15"/>
      <point x="477" y="-10"/>
      <point x="544" y="-10" type="curve"/>
      <point x="599" y="-10"/>
      <point x="647" y="3"/>
      <point x="698" y="27" type="curve"/>
      <point x="699" y="104" type="line"/>
      <point x="650" y="81"/>
      <point x="607" y="63"/>
      <point x="560" y="63" type="curve" smooth="yes"/>
      <point x="481" y="63"/>
      <point x="446" y="113"/>
      <point x="446" y="195" type="curve" smooth="yes"/>
      <point x="446" y="206"/>
      <point x="447" y="220"/>
      <point x="448" y="232" type="curve"/>
      <point x="467" y="232" type="line" smooth="yes"/>
      <point x="676" y="232"/>
      <point x="766" y="316"/>
      <point x="766" y="421" type="curve" smooth="yes"/>
      <point x="766" y="506"/>
      <point x="709" y="546"/>
      <point x="639" y="546" type="curve" smooth="yes"/>
      <point x="572" y="546"/>
      <point x="520" y="513"/>
      <point x="487" y="467" type="curve"/>
      <point x="501" y="536" type="line"/>
      <point x="445" y="536" type="line"/>
      <point x="413" y="453" type="line"/>
      <point x="409" y="453" type="line"/>
      <point x="388" y="503"/>
      <point x="354" y="546"/>
      <point x="293" y="546" type="curve" smooth="yes"/>
      <point x="154" y="546"/>
      <point x="47" y="371"/>
      <point x="47" y="168" type="curve" smooth="yes"/>
      <point x="47" y="53"/>
      <point x="96" y="-10"/>
    </contour>
    <contour>
      <point x="200" y="63" type="curve" smooth="yes"/>
      <point x="160" y="63"/>
      <point x="137" y="98"/>
      <point x="137" y="169" type="curve" smooth="yes"/>
      <point x="137" y="327"/>
      <point x="211" y="472"/>
      <point x="304" y="472" type="curve" smooth="yes"/>
      <point x="352" y="472"/>
      <point x="379" y="429"/>
      <point x="379" y="367" type="curve" smooth="yes"/>
      <point x="379" y="340"/>
      <point x="376" y="306"/>
      <point x="366" y="267" type="curve" smooth="yes"/>
      <point x="336" y="151"/>
      <point x="267" y="63"/>
    </contour>
    <contour>
      <point x="471" y="303" type="curve"/>
      <point x="461" y="303" type="line"/>
      <point x="491" y="411"/>
      <point x="553" y="473"/>
      <point x="621" y="473" type="curve" smooth="yes"/>
      <point x="653" y="473"/>
      <point x="679" y="455"/>
      <point x="679" y="413" type="curve" smooth="yes"/>
      <point x="679" y="332"/>
      <point x="585" y="303"/>
    </contour>
  </outline>
</glyph>
<glyph name="eth" format="2">
  <advance width="542"/>
  <unicode hex="00F0"/>
  <anchor x="217" y="0" name="bottom"/>
  <anchor x="380" y="765" name="top"/>
  <outline>
    <contour>
      <point x="224" y="-10" type="curve" smooth="yes"/>
      <point x="432" y="-10"/>
      <point x="501" y="211"/>
      <point x="501" y="403" type="curve" smooth="yes"/>
      <point x="501" y="511"/>
      <point x="471" y="585"/>
      <point x="428" y="644" type="curve"/>
      <point x="536" y="708" type="line"/>
      <point x="506" y="761" type="line"/>
      <point x="386" y="691" type="line"/>
      <point x="358" y="721"/>
      <point x="327" y="744"/>
      <point x="296" y="765" type="curve"/>
      <point x="250" y="705" type="line"/>
      <point x="276" y="687"/>
      <point x="297" y="669"/>
      <point x="316" y="651" type="curve"/>
      <point x="208" y="588" type="line"/>
      <point x="236" y="534" type="line"/>
      <point x="359" y="606" type="line"/>
      <point x="411" y="536"/>
      <point x="422" y="468"/>
      <point x="422" y="393" type="curve"/>
      <point x="419" y="392" type="line"/>
      <point x="400" y="435"/>
      <point x="359" y="473"/>
      <point x="287" y="473" type="curve" smooth="yes"/>
      <point x="137" y="473"/>
      <point x="42" y="335"/>
      <point x="42" y="180" type="curve" smooth="yes"/>
      <point x="42" y="59"/>
      <point x="112" y="-10"/>
    </contour>
    <contour>
      <point x="230" y="63" type="curve" smooth="yes"/>
      <point x="160" y="63"/>
      <point x="132" y="113"/>
      <point x="132" y="182" type="curve" smooth="yes"/>
      <point x="132" y="288"/>
      <point x="180" y="401"/>
      <point x="291" y="401" type="curve" smooth="yes"/>
      <point x="368" y="401"/>
      <point x="396" y="339"/>
      <point x="396" y="282" type="curve" smooth="yes"/>
      <point x="396" y="206"/>
      <point x="353" y="63"/>
    </contour>
  </outline>
</glyph>
<glyph name="divide" format="2">
  <advance width="537"/>
  <unicode hex="00F7"/>
  <outline>
    <contour>
      <point x="66" y="317" type="line"/>
      <point x="510" y="317" type="line"/>
      <point x="510" y="388" type="line"/>
      <point x="66" y="388" type="line"/>
    </contour>
    <contour>
      <point x="287" y="121" type="curve" smooth="yes"/>
      <point x="316" y="121"/>
      <point x="340" y="139"/>
      <point x="340" y="182" type="curve" smooth="yes"/>
      <point x="340" y="227"/>
      <point x="316" y="242"/>
      <point x="287" y="242" type="curve" smooth="yes"/>
      <point x="258" y="242"/>
      <point x="234" y="227"/>
      <point x="234" y="182" type="curve" smooth="yes"/>
      <point x="234" y="139"/>
      <point x="258" y="121"/>
    </contour>
    <contour>
      <point x="287" y="462" type="curve" smooth="yes"/>
      <point x="316" y="462"/>
      <point x="340" y="480"/>
      <point x="340" y="523" type="curve" smooth="yes"/>
      <point x="340" y="568"/>
      <point x="316" y="583"/>
      <point x="287" y="583" type="curve" smooth="yes"/>
      <point x="258" y="583"/>
      <point x="234" y="568"/>
      <point x="234" y="523" type="curve" smooth="yes"/>
      <point x="234" y="480"/>
      <point x="258" y="462"/>
    </contour>
  </outline>
</glyph>
<glyph name="oslash" format="2">
  <advance width="536"/>
  <unicode hex="00F8"/>
  <anchor x="206" y="-38" name="bottom"/>
  <anchor x="337" y="572" name="top"/>
  <outline>
    <contour>
      <point x="78" y="-38" type="line"/>
      <point x="125" y="23" type="line"/>
      <point x="155" y="3"/>
      <point x="193" y="-8"/>
      <point x="237" y="-8" type="curve" smooth="yes"/>
      <point x="408" y="-8"/>
      <point x="494" y="183"/>
      <point x="494" y="347" type="curve" smooth="yes"/>
      <point x="494" y="391"/>
      <point x="486" y="439"/>
      <point x="467" y="470" type="curve"/>
      <point x="519" y="532" type="line"/>
      <point x="468" y="572" type="line"/>
      <point x="422" y="511" type="line"/>
      <point x="392" y="532"/>
      <point x="354" y="543"/>
      <point x="307" y="543" type="curve" smooth="yes"/>
      <point x="136" y="543"/>
      <point x="48" y="359"/>
      <point x="48" y="195" type="curve" smooth="yes"/>
      <point x="48" y="144"/>
      <point x="58" y="103"/>
      <point x="79" y="70" type="curve"/>
      <point x="27" y="3" type="line"/>
    </contour>
    <contour>
      <point x="242" y="63" type="curve" smooth="yes"/>
      <point x="215" y="63"/>
      <point x="190" y="70"/>
      <point x="174" y="84" type="curve"/>
      <point x="404" y="388" type="line"/>
      <point x="407" y="378"/>
      <point x="409" y="359"/>
      <point x="409" y="339" type="curve" smooth="yes"/>
      <point x="409" y="170"/>
      <point x="333" y="63"/>
    </contour>
    <contour>
      <point x="372" y="449" type="curve"/>
      <point x="140" y="143" type="line"/>
      <point x="136" y="154"/>
      <point x="133" y="175"/>
      <point x="133" y="200" type="curve" smooth="yes"/>
      <point x="133" y="342"/>
      <point x="201" y="471"/>
      <point x="307" y="471" type="curve" smooth="yes"/>
      <point x="339" y="471"/>
      <point x="358" y="461"/>
    </contour>
  </outline>
</glyph>
<glyph name="thorn" format="2">
  <advance width="551"/>
  <unicode hex="00FE"/>
  <anchor x="171" y="-240" name="bottom"/>
  <anchor x="384" y="760" name="top"/>
  <outline>
    <contour>
      <point x="-24" y="-240" type="line"/>
      <point x="63" y="-240" type="line"/>
      <point x="111" y="-9" type="line" smooth="yes"/>
      <point x="116" y="15"/>
      <point x="123" y="62"/>
      <point x="124" y="82" type="curve"/>
      <point x="129" y="82" type="line"/>
      <point x="150" y="33"/>
      <point x="191" y="-10"/>
      <point x="259" y="-10" type="curve" smooth="yes"/>
      <point x="415" y="-10"/>
      <point x="509" y="171"/>
      <point x="509" y="365" type="curve" smooth="yes"/>
      <point x="509" y="483"/>
      <point x="455" y="545"/>
      <point x="372" y="545" type="curve" smooth="yes"/>
      <point x="302" y="545"/>
      <point x="250" y="495"/>
      <point x="204" y="436" type="curve"/>
      <point x="201" y="436" type="line"/>
      <point x="212" y="473"/>
      <point x="225" y="523"/>
      <point x="237" y="581" type="curve" smooth="yes"/>
      <point x="275" y="760" type="line"/>
      <point x="187" y="760" type="line"/>
    </contour>
    <contour>
      <point x="251" y="63" type="curve" smooth="yes"/>
      <point x="186" y="63"/>
      <point x="157" y="106"/>
      <point x="157" y="169" type="curve" smooth="yes"/>
      <point x="157" y="200"/>
      <point x="161" y="232"/>
      <point x="168" y="262" type="curve" smooth="yes"/>
      <point x="196" y="381"/>
      <point x="274" y="472"/>
      <point x="341" y="472" type="curve" smooth="yes"/>
      <point x="392" y="472"/>
      <point x="419" y="437"/>
      <point x="419" y="366" type="curve" smooth="yes"/>
      <point x="419" y="217"/>
      <point x="351" y="63"/>
    </contour>
  </outline>
</glyph>
<glyph name="dcroat" format="2">
  <advance width="551"/>
  <unicode hex="0111"/>
  <anchor x="222" y="0" name="bottom"/>
  <anchor x="384" y="760" name="top"/>
  <outline>
    <contour>
      <point x="184" y="-10" type="curve" smooth="yes"/>
      <point x="255" y="-10"/>
      <point x="307" y="40"/>
      <point x="352" y="99" type="curve"/>
      <point x="356" y="99" type="line"/>
      <point x="345" y="0" type="line"/>
      <point x="416" y="0" type="line"/>
      <point x="544" y="604" type="line"/>
      <point x="613" y="604" type="line"/>
      <point x="628" y="670" type="line"/>
      <point x="558" y="670" type="line"/>
      <point x="577" y="760" type="line"/>
      <point x="490" y="760" type="line"/>
      <point x="472" y="670" type="line"/>
      <point x="303" y="670" type="line"/>
      <point x="289" y="604" type="line"/>
      <point x="456" y="604" type="line"/>
      <point x="444" y="544" type="line" smooth="yes"/>
      <point x="438" y="514"/>
      <point x="434" y="479"/>
      <point x="431" y="455" type="curve"/>
      <point x="426" y="455" type="line"/>
      <point x="406" y="503"/>
      <point x="366" y="546"/>
      <point x="297" y="546" type="curve" smooth="yes"/>
      <point x="141" y="546"/>
      <point x="47" y="365"/>
      <point x="47" y="170" type="curve" smooth="yes"/>
      <point x="47" y="51"/>
      <point x="103" y="-10"/>
    </contour>
    <contour>
      <point x="215" y="63" type="curve" smooth="yes"/>
      <point x="164" y="63"/>
      <point x="137" y="98"/>
      <point x="137" y="169" type="curve" smooth="yes"/>
      <point x="137" y="318"/>
      <point x="205" y="473"/>
      <point x="306" y="473" type="curve" smooth="yes"/>
      <point x="370" y="473"/>
      <point x="398" y="430"/>
      <point x="398" y="366" type="curve" smooth="yes"/>
      <point x="398" y="207"/>
      <point x="298" y="63"/>
    </contour>
  </outline>
</glyph>
<glyph name="eogonek" format="2">
  <advance width="478"/>
  <unicode hex="0119"/>
  <anchor x="179" y="-217" name="bottom"/>
  <anchor x="307" y="536" name="top"/>
  <outline>
    <contour>
      <point x="274" y="-217" type="curve"/>
      <point x="292" y="-217"/>
      <point x="313" y="-215"/>
      <point x="330" y="-210" type="curve"/>
      <point x="330" y="-155" type="line"/>
      <point x="318" y="-157"/>
      <point x="304" y="-159"/>
      <point x="290" y="-159" type="curve"/>
      <point x="270" y="-159"/>
      <point x="257" y="-149"/>
      <point x="257" y="-126" type="curve"/>
      <point x="257" y="-73"/>
      <point x="316" y="-23"/>
      <point x="373" y="23" type="curve"/>
      <point x="289" y="0" type="line"/>
      <point x="229" y="-37"/>
      <point x="185" y="-75"/>
      <point x="185" y="-137" type="curve"/>
      <point x="185" y="-192"/>
      <point x="223" y="-217"/>
    </contour>
    <component base="e"/>
  </outline>
</glyph>
<glyph name="Hbar" format="2">
  <advance width="647"/>
  <unicode hex="0126"/>
  <anchor x="270" y="0" name="bottom"/>
  <anchor x="422" y="714" name="top"/>
  <outline>
    <contour>
      <point x="38" y="0" type="line"/>
      <point x="127" y="0" type="line"/>
      <point x="197" y="333" type="line"/>
      <point x="489" y="333" type="line"/>
      <point x="419" y="0" type="line"/>
      <point x="509" y="0" type="line"/>
      <point x="619" y="522" type="line"/>
      <point x="707" y="522" type="line"/>
      <point x="721" y="594" type="line"/>
      <point x="635" y="594" type="line"/>
      <point x="660" y="714" type="line"/>
      <point x="570" y="714" type="line"/>
      <point x="545" y="594" type="line"/>
      <point x="252" y="594" type="line"/>
      <point x="278" y="714" type="line"/>
      <point x="189" y="714" type="line"/>
      <point x="163" y="594" type="line"/>
      <point x="77" y="594" type="line"/>
      <point x="62" y="522" type="line"/>
      <point x="148" y="522" type="line"/>
    </contour>
    <contour>
      <point x="214" y="412" type="line"/>
      <point x="237" y="522" type="line"/>
      <point x="529" y="522" type="line"/>
      <point x="507" y="412" type="line"/>
    </contour>
  </outline>
</glyph>
<glyph name="hbar" format="2">
  <advance width="552"/>
  <unicode hex="0127"/>
  <anchor x="222" y="0" name="bottom"/>
  <anchor x="384" y="760" name="top"/>
  <outline>
    <contour>
      <point x="26" y="0" type="line"/>
      <point x="114" y="0" type="line"/>
      <point x="160" y="223" type="line" smooth="yes"/>
      <point x="196" y="398"/>
      <point x="284" y="465"/>
      <point x="348" y="465" type="curve" smooth="yes"/>
      <point x="393" y="465"/>
      <point x="413" y="438"/>
      <point x="413" y="393" type="curve" smooth="yes"/>
      <point x="413" y="378"/>
      <point x="410" y="357"/>
      <point x="404" y="327" type="curve"/>
      <point x="335" y="0" type="line"/>
      <point x="423" y="0" type="line"/>
      <point x="490" y="317" type="line"/>
      <point x="496" y="349"/>
      <point x="501" y="374"/>
      <point x="501" y="401" type="curve" smooth="yes"/>
      <point x="501" y="491"/>
      <point x="454" y="538"/>
      <point x="374" y="538" type="curve" smooth="yes"/>
      <point x="294" y="538"/>
      <point x="240" y="478"/>
      <point x="204" y="428" type="curve"/>
      <point x="199" y="428" type="line"/>
      <point x="207" y="463"/>
      <point x="224" y="528"/>
      <point x="242" y="604" type="curve"/>
      <point x="399" y="604" type="line"/>
      <point x="414" y="670" type="line"/>
      <point x="255" y="670" type="line"/>
      <point x="275" y="760" type="line"/>
      <point x="187" y="760" type="line"/>
      <point x="168" y="670" type="line"/>
      <point x="98" y="670" type="line"/>
      <point x="83" y="604" type="line"/>
      <point x="155" y="604" type="line"/>
    </contour>
  </outline>
</glyph>
<glyph name="idotless" format="2">
  <advance width="248"/>
  <unicode hex="0131"/>
  <anchor x="70" y="0" name="bottom"/>
  <anchor x="184" y="536" name="top"/>
  <outline>
    <contour>
      <point x="26" y="0" type="line"/>
      <point x="114" y="0" type="line"/>
      <point x="228" y="536" type="line"/>
      <point x="140" y="536" type="line"/>
    </contour>
  </outline>
</glyph>
<glyph name="kgreenlandic" format="2">
  <advance width="475"/>
  <unicode hex="0138"/>
  <anchor x="184" y="0" name="bottom"/>
  <anchor x="298" y="536" name="top"/>
  <outline>
    <contour>
      <point x="25" y="0" type="line"/>
      <point x="114" y="0" type="line"/>
      <point x="154" y="194" type="line"/>
      <point x="222" y="251" type="line"/>
      <point x="325" y="0" type="line"/>
      <point x="422" y="0" type="line"/>
      <point x="289" y="306" type="line"/>
      <point x="511" y="536" type="line"/>
      <point x="408" y="536" type="line"/>
      <point x="166" y="276" type="line"/>
      <point x="164" y="276" type="line"/>
      <point x="172" y="303"/>
      <point x="187" y="351"/>
      <point x="198" y="401" type="curve" smooth="yes"/>
      <point x="227" y="536" type="line"/>
      <point x="138" y="536" type="line"/>
    </contour>
  </outline>
</glyph>
<glyph name="Lslash" format="2">
  <advance width="457"/>
  <unicode hex="0141"/>
  <anchor x="175" y="0" name="bottom"/>
  <anchor x="327" y="714" name="top"/>
  <outline>
    <contour>
      <point x="37" y="0" type="line"/>
      <point x="385" y="0" type="line"/>
      <point x="402" y="80" type="line"/>
      <point x="145" y="80" type="line"/>
      <point x="191" y="304" type="line"/>
      <point x="344" y="396" type="line"/>
      <point x="313" y="452" type="line"/>
      <point x="210" y="389" type="line"/>
      <point x="278" y="714" type="line"/>
      <point x="188" y="714" type="line"/>
      <point x="108" y="331" type="line"/>
      <point x="12" y="274" type="line"/>
      <point x="42" y="216" type="line"/>
      <point x="90" y="246" type="line"/>
    </contour>
  </outline>
</glyph>
<glyph name="lslash" format="2">
  <advance width="250"/>
  <unicode hex="0142"/>
  <anchor x="71" y="0" name="bottom"/>
  <anchor x="233" y="760" name="top"/>
  <outline>
    <contour>
      <point x="26" y="0" type="line"/>
      <point x="114" y="0" type="line"/>
      <point x="187" y="345" type="line"/>
      <point x="287" y="407" type="line"/>
      <point x="260" y="462" type="line"/>
      <point x="206" y="428" type="line"/>
      <point x="276" y="760" type="line"/>
      <point x="188" y="760" type="line"/>
      <point x="104" y="369" type="line"/>
      <point x="6" y="307" type="line"/>
      <point x="35" y="252" type="line"/>
      <point x="86" y="285" type="line"/>
    </contour>
  </outline>
</glyph>
<glyph name="Eng" format="2">
  <advance width="675"/>
  <unicode hex="014A"/>
  <anchor x="243" y="-189" name="bottom"/>
  <anchor x="436" y="714" name="top"/>
  <outline>
    <contour>
      <point x="331" y="-189" type="curve" smooth="yes"/>
      <point x="433" y="-189"/>
      <point x="508" y="-135"/>
      <point x="537" y="0" type="curve" smooth="yes"/>
      <point x="688" y="714" type="line"/>
      <point x="602" y="714" type="line"/>
      <point x="523" y="339" type="line" smooth="yes"/>
      <point x="508" y="269"/>
      <point x="494" y="187"/>
      <point x="486" y="131" type="curve"/>
      <point x="483" y="131" type="line"/>
      <point x="283" y="714" type="line"/>
      <point x="188" y="714" type="line"/>
      <point x="37" y="0" type="line"/>
      <point x="120" y="0" type="line"/>
      <point x="202" y="388" type="line" smooth="yes"/>
      <point x="217" y="461"/>
      <point x="230" y="542"/>
      <point x="237" y="592" type="curve"/>
      <point x="241" y="592" type="line"/>
      <point x="449" y="0" type="line"/>
      <point x="432" y="-80"/>
      <point x="386" y="-110"/>
      <point x="330" y="-110" type="curve" smooth="yes"/>
      <point x="303" y="-110"/>
      <point x="280" y="-106"/>
      <point x="261" y="-100" type="curve"/>
      <point x="258" y="-177" type="line"/>
      <point x="271" y="-184"/>
      <point x="301" y="-189"/>
    </contour>
  </outline>
</glyph>
<glyph name="eng" format="2">
  <advance width="552"/>
  <unicode hex="014B"/>
  <anchor x="171" y="-240" name="bottom"/>
  <anchor x="336" y="536" name="top"/>
  <anchor x="589" y="536" name="topright"/>
  <outline>
    <contour>
      <point x="247" y="-240" type="curve"/>
      <point x="343" y="-240"/>
      <point x="386" y="-177"/>
      <point x="407" y="-78" type="curve" smooth="yes"/>
      <point x="492" y="326" type="line"/>
      <point x="498" y="357"/>
      <point x="504" y="384"/>
      <point x="504" y="416" type="curve" smooth="yes"/>
      <point x="504" y="501"/>
      <point x="454" y="546"/>
      <point x="376" y="546" type="curve" smooth="yes"/>
      <point x="295" y="546"/>
      <point x="242" y="486"/>
      <point x="205" y="437" type="curve"/>
      <point x="200" y="437" type="line"/>
      <point x="211" y="536" type="line"/>
      <point x="140" y="536" type="line"/>
      <point x="26" y="0" type="line"/>
      <point x="114" y="0" type="line"/>
      <point x="162" y="231" type="line" smooth="yes"/>
      <point x="199" y="407"/>
      <point x="286" y="472"/>
      <point x="350" y="472" type="curve" smooth="yes"/>
      <point x="395" y="472"/>
      <point x="416" y="446"/>
      <point x="416" y="406" type="curve" smooth="yes"/>
      <point x="416" y="387"/>
      <point x="412" y="367"/>
      <point x="405" y="336" type="curve" smooth="yes"/>
      <point x="320" y="-68" type="line" smooth="yes"/>
      <point x="306" y="-134"/>
      <point x="280" y="-167"/>
      <point x="242" y="-167" type="curve" smooth="yes"/>
      <point x="221" y="-167"/>
      <point x="204" y="-162"/>
      <point x="187" y="-156" type="curve"/>
      <point x="186" y="-230" type="line"/>
      <point x="203" y="-236"/>
      <point x="224" y="-240"/>
    </contour>
  </outline>
</glyph>
<glyph name="OE" format="2">
  <advance width="819"/>
  <unicode hex="0152"/>
  <anchor x="355" y="0" name="bottom"/>
  <anchor x="507" y="714" name="top"/>
  <outline>
    <contour>
      <point x="319" y="-10" type="curve"/>
      <point x="346" y="-10"/>
      <point x="371" y="-6"/>
      <point x="394" y="0" type="curve"/>
      <point x="713" y="0" type="line"/>
      <point x="730" y="79" type="line"/>
      <point x="472" y="79" type="line"/>
      <point x="525" y="334" type="line"/>
      <point x="766" y="334" type="line"/>
      <point x="783" y="412" type="line"/>
      <point x="542" y="412" type="line"/>
      <point x="589" y="635" type="line"/>
      <point x="847" y="635" type="line"/>
      <point x="864" y="714" type="line"/>
      <point x="527" y="714" type="line"/>
      <point x="498" y="722"/>
      <point x="466" y="725"/>
      <point x="419" y="725" type="curve"/>
      <point x="203" y="725"/>
      <point x="70" y="513"/>
      <point x="70" y="267" type="curve" smooth="yes"/>
      <point x="70" y="96"/>
      <point x="156" y="-10"/>
    </contour>
    <contour>
      <point x="323" y="69" type="curve"/>
      <point x="223" y="69"/>
      <point x="164" y="143"/>
      <point x="164" y="269" type="curve" smooth="yes"/>
      <point x="164" y="477"/>
      <point x="263" y="646"/>
      <point x="412" y="646" type="curve"/>
      <point x="446" y="646"/>
      <point x="475" y="642"/>
      <point x="499" y="635" type="curve"/>
      <point x="382" y="78" type="line"/>
      <point x="365" y="72"/>
      <point x="345" y="69"/>
    </contour>
  </outline>
</glyph>
<glyph name="oe" format="2">
  <advance width="824"/>
  <unicode hex="0153"/>
  <anchor x="357" y="0" name="bottom"/>
  <anchor x="471" y="536" name="top"/>
  <outline>
    <contour>
      <point x="230" y="-8" type="curve" smooth="yes"/>
      <point x="312" y="-8"/>
      <point x="372" y="33"/>
      <point x="413" y="96" type="curve"/>
      <point x="440" y="26"/>
      <point x="497" y="-10"/>
      <point x="576" y="-10" type="curve" smooth="yes"/>
      <point x="634" y="-10"/>
      <point x="681" y="2"/>
      <point x="732" y="27" type="curve"/>
      <point x="733" y="104" type="line"/>
      <point x="681" y="80"/>
      <point x="641" y="63"/>
      <point x="593" y="63" type="curve" smooth="yes"/>
      <point x="518" y="63"/>
      <point x="481" y="112"/>
      <point x="481" y="193" type="curve" smooth="yes"/>
      <point x="481" y="205"/>
      <point x="482" y="219"/>
      <point x="484" y="232" type="curve"/>
      <point x="504" y="232" type="line" smooth="yes"/>
      <point x="714" y="232"/>
      <point x="800" y="317"/>
      <point x="800" y="423" type="curve" smooth="yes"/>
      <point x="800" y="506"/>
      <point x="743" y="546"/>
      <point x="659" y="546" type="curve" smooth="yes"/>
      <point x="584" y="546"/>
      <point x="519" y="505"/>
      <point x="472" y="436" type="curve"/>
      <point x="448" y="498"/>
      <point x="401" y="543"/>
      <point x="311" y="543" type="curve" smooth="yes"/>
      <point x="135" y="543"/>
      <point x="47" y="359"/>
      <point x="47" y="195" type="curve" smooth="yes"/>
      <point x="47" y="70"/>
      <point x="118" y="-8"/>
    </contour>
    <contour>
      <point x="237" y="65" type="curve" smooth="yes"/>
      <point x="174" y="65"/>
      <point x="136" y="111"/>
      <point x="136" y="197" type="curve" smooth="yes"/>
      <point x="136" y="342"/>
      <point x="201" y="470"/>
      <point x="306" y="470" type="curve"/>
      <point x="374" y="470"/>
      <point x="406" y="422"/>
      <point x="406" y="348" type="curve" smooth="yes"/>
      <point x="406" y="190"/>
      <point x="347" y="65"/>
    </contour>
    <contour>
      <point x="505" y="303" type="curve" smooth="yes"/>
      <point x="494" y="303" type="line"/>
      <point x="523" y="416"/>
      <point x="588" y="473"/>
      <point x="657" y="473" type="curve" smooth="yes"/>
      <point x="695" y="473"/>
      <point x="714" y="448"/>
      <point x="714" y="418" type="curve" smooth="yes"/>
      <point x="714" y="332"/>
      <point x="619" y="303"/>
    </contour>
  </outline>
</glyph>
<glyph name="Tbar" format="2">
  <advance width="478"/>
  <unicode hex="0166"/>
  <anchor x="185" y="0" name="bottom"/>
  <anchor x="337" y="714" name="top"/>
  <outline>
    <contour>
      <point x="143" y="0" type="line"/>
      <point x="232" y="0" type="line"/>
      <point x="301" y="327" type="line"/>
      <point x="433" y="327" type="line"/>
      <point x="449" y="400" type="line"/>
      <point x="317" y="400" type="line"/>
      <point x="367" y="635" type="line"/>
      <point x="551" y="635" type="line"/>
      <point x="568" y="714" type="line"/>
      <point x="109" y="714" type="line"/>
      <point x="91" y="635" type="line"/>
      <point x="276" y="635" type="line"/>
      <point x="226" y="400" type="line"/>
      <point x="99" y="400" type="line"/>
      <point x="82" y="327" type="line"/>
      <point x="211" y="327" type="line"/>
    </contour>
  </outline>
</glyph>
<glyph name="tbar" format="2">
  <advance width="322"/>
  <unicode hex="0167"/>
  <anchor x="107" y="0" name="bottom"/>
  <anchor x="247" y="658" name="top"/>
  <outline>
    <contour>
      <point x="177" y="-10" type="curve"/>
      <point x="206" y="-10"/>
      <point x="244" y="0"/>
      <point x="260" y="8" type="curve"/>
      <point x="261" y="75" type="line"/>
      <point x="236" y="67"/>
      <point x="216" y="62"/>
      <point x="193" y="62" type="curve"/>
      <point x="158" y="62"/>
      <point x="144" y="86"/>
      <point x="144" y="117" type="curve"/>
      <point x="144" y="136"/>
      <point x="149" y="159"/>
      <point x="153" y="177" type="curve"/>
      <point x="174" y="282" type="line"/>
      <point x="287" y="282" type="line"/>
      <point x="300" y="348" type="line"/>
      <point x="189" y="348" type="line"/>
      <point x="214" y="469" type="line"/>
      <point x="342" y="469" type="line"/>
      <point x="357" y="536" type="line"/>
      <point x="228" y="536" type="line"/>
      <point x="255" y="658" type="line"/>
      <point x="202" y="658" type="line"/>
      <point x="142" y="547" type="line"/>
      <point x="56" y="509" type="line"/>
      <point x="47" y="469" type="line"/>
      <point x="125" y="469" type="line"/>
      <point x="100" y="348" type="line"/>
      <point x="36" y="348" type="line"/>
      <point x="22" y="282" type="line"/>
      <point x="85" y="282" type="line"/>
      <point x="64" y="178" type="line" smooth="yes"/>
      <point x="59" y="152"/>
      <point x="56" y="127"/>
      <point x="56" y="107" type="curve"/>
      <point x="55" y="20"/>
      <point x="108" y="-10"/>
    </contour>
  </outline>
</glyph>
<glyph name="longs" format="2">
  <advance width="274"/>
  <unicode hex="017F"/>
  <anchor x="-58" y="-240" name="bottom"/>
  <anchor x="326" y="765" name="top"/>
  <outline>
    <contour>
      <point x="-62" y="-240" type="curve" smooth="yes"/>
      <point x="32" y="-240"/>
      <point x="77" y="-174"/>
      <point x="101" y="-63" type="curve" smooth="yes"/>
      <point x="238" y="587" type="line" smooth="yes"/>
      <point x="255" y="670"/>
      <point x="282" y="693"/>
      <point x="331" y="693" type="curve" smooth="yes"/>
      <point x="354" y="693"/>
      <point x="376" y="686"/>
      <point x="393" y="679" type="curve"/>
      <point x="417" y="746" type="line"/>
      <point x="396" y="756"/>
      <point x="359" y="765"/>
      <point x="326" y="765" type="curve" smooth="yes"/>
      <point x="231" y="765"/>
      <point x="179" y="724"/>
      <point x="150" y="587" type="curve" smooth="yes"/>
      <point x="15" y="-53" type="line" smooth="yes"/>
      <point x="-1" y="-130"/>
      <point x="-30" y="-167"/>
      <point x="-69" y="-167" type="curve" smooth="yes"/>
      <point x="-89" y="-167"/>
      <point x="-105" y="-162"/>
      <point x="-121" y="-156" type="curve"/>
      <point x="-122" y="-230" type="line"/>
      <point x="-107" y="-236"/>
      <point x="-86" y="-240"/>
    </contour>
  </outline>
</glyph>
<glyph name="Ohorn" format="2">
  <advance width="687"/>
  <unicode hex="01A0"/>
  <anchor x="301" y="0" name="bottom"/>
  <anchor x="420" y="714" name="top"/>
  <outline>
    <contour>
      <point x="319" y="-10" type="curve"/>
      <point x="540" y="-10"/>
      <point x="660" y="197"/>
      <point x="660" y="444" type="curve" smooth="yes"/>
      <point x="660" y="491"/>
      <point x="654" y="532"/>
      <point x="643" y="568" type="curve"/>
      <point x="733" y="606"/>
      <point x="781" y="660"/>
      <point x="804" y="749" type="curve"/>
      <point x="800" y="760" type="line"/>
      <point x="705" y="760" type="line"/>
      <point x="694" y="689"/>
      <point x="674" y="643"/>
      <point x="621" y="619" type="curve"/>
      <point x="580" y="687"/>
      <point x="512" y="725"/>
      <point x="419" y="725" type="curve"/>
      <point x="203" y="725"/>
      <point x="70" y="513"/>
      <point x="70" y="267" type="curve" smooth="yes"/>
      <point x="70" y="96"/>
      <point x="156" y="-10"/>
    </contour>
    <contour>
      <point x="323" y="69" type="curve"/>
      <point x="223" y="69"/>
      <point x="164" y="143"/>
      <point x="164" y="269" type="curve" smooth="yes"/>
      <point x="164" y="477"/>
      <point x="263" y="646"/>
      <point x="412" y="646" type="curve"/>
      <point x="509" y="646"/>
      <point x="566" y="573"/>
      <point x="566" y="446" type="curve" smooth="yes"/>
      <point x="566" y="244"/>
      <point x="471" y="69"/>
    </contour>
  </outline>
</glyph>
<glyph name="ohorn" format="2">
  <advance width="544"/>
  <unicode hex="01A1"/>
  <anchor x="218" y="0" name="bottom"/>
  <anchor x="313" y="536" name="top"/>
  <outline>
    <contour>
      <point x="235" y="-8" type="curve" smooth="yes"/>
      <point x="408" y="-8"/>
      <point x="495" y="176"/>
      <point x="495" y="339" type="curve" smooth="yes"/>
      <point x="495" y="372"/>
      <point x="491" y="401"/>
      <point x="482" y="427" type="curve"/>
      <point x="576" y="463"/>
      <point x="622" y="519"/>
      <point x="643" y="607" type="curve"/>
      <point x="640" y="618" type="line"/>
      <point x="546" y="618" type="line"/>
      <point x="535" y="551"/>
      <point x="516" y="499"/>
      <point x="457" y="473" type="curve"/>
      <point x="426" y="518"/>
      <point x="373" y="543"/>
      <point x="307" y="543" type="curve" smooth="yes"/>
      <point x="136" y="543"/>
      <point x="47" y="359"/>
      <point x="47" y="195" type="curve" smooth="yes"/>
      <point x="47" y="70"/>
      <point x="119" y="-8"/>
    </contour>
    <contour>
      <point x="242" y="65" type="curve" smooth="yes"/>
      <point x="174" y="65"/>
      <point x="136" y="111"/>
      <point x="136" y="193" type="curve" smooth="yes"/>
      <point x="136" y="342"/>
      <point x="201" y="470"/>
      <point x="306" y="470" type="curve" smooth="yes"/>
      <point x="379" y="470"/>
      <point x="406" y="406"/>
      <point x="406" y="348" type="curve" smooth="yes"/>
      <point x="406" y="171"/>
      <point x="332" y="65"/>
    </contour>
  </outline>
</glyph>
<glyph name="Uhorn" format="2">
  <advance width="694"/>
  <unicode hex="01AF"/>
  <anchor x="290" y="0" name="bottom"/>
  <anchor x="407" y="714" name="top"/>
  <outline>
    <contour>
      <point x="287" y="-10" type="curve"/>
      <point x="453" y="-10"/>
      <point x="529" y="87"/>
      <point x="562" y="243" type="curve" smooth="yes"/>
      <point x="628" y="557" type="line"/>
      <point x="734" y="577"/>
      <point x="812" y="643"/>
      <point x="835" y="749" type="curve"/>
      <point x="831" y="760" type="line"/>
      <point x="737" y="760" type="line"/>
      <point x="723" y="670"/>
      <point x="690" y="629"/>
      <point x="641" y="618" type="curve"/>
      <point x="662" y="714" type="line"/>
      <point x="573" y="714" type="line"/>
      <point x="474" y="251" type="line" smooth="yes"/>
      <point x="448" y="129"/>
      <point x="396" y="69"/>
      <point x="291" y="69" type="curve" smooth="yes"/>
      <point x="201" y="69"/>
      <point x="165" y="118"/>
      <point x="165" y="193" type="curve" smooth="yes"/>
      <point x="165" y="214"/>
      <point x="168" y="243"/>
      <point x="176" y="277" type="curve" smooth="yes"/>
      <point x="269" y="714" type="line"/>
      <point x="180" y="714" type="line"/>
      <point x="88" y="283" type="line" smooth="yes"/>
      <point x="81" y="250"/>
      <point x="76" y="212"/>
      <point x="76" y="187" type="curve" smooth="yes"/>
      <point x="76" y="62"/>
      <point x="146" y="-10"/>
    </contour>
  </outline>
</glyph>
<glyph name="uhorn" format="2">
  <advance width="601"/>
  <unicode hex="01B0"/>
  <anchor x="226" y="0" name="bottom"/>
  <anchor x="330" y="536" name="top"/>
  <outline>
    <contour>
      <point x="179" y="-10" type="curve"/>
      <point x="261" y="-10"/>
      <point x="315" y="50"/>
      <point x="352" y="99" type="curve"/>
      <point x="357" y="99" type="line"/>
      <point x="345" y="0" type="line"/>
      <point x="416" y="0" type="line"/>
      <point x="504" y="414" type="line"/>
      <point x="611" y="435"/>
      <point x="688" y="500"/>
      <point x="713" y="607" type="curve"/>
      <point x="709" y="618" type="line"/>
      <point x="615" y="618" type="line"/>
      <point x="601" y="527"/>
      <point x="569" y="486"/>
      <point x="518" y="475" type="curve"/>
      <point x="530" y="536" type="line"/>
      <point x="444" y="536" type="line"/>
      <point x="395" y="305" type="line" smooth="yes"/>
      <point x="358" y="130"/>
      <point x="271" y="63"/>
      <point x="206" y="63" type="curve"/>
      <point x="160" y="63"/>
      <point x="142" y="89"/>
      <point x="142" y="134" type="curve" smooth="yes"/>
      <point x="142" y="148"/>
      <point x="145" y="170"/>
      <point x="151" y="199" type="curve"/>
      <point x="223" y="536" type="line"/>
      <point x="134" y="536" type="line"/>
      <point x="65" y="209" type="line" smooth="yes"/>
      <point x="59" y="180"/>
      <point x="53" y="152"/>
      <point x="53" y="126" type="curve" smooth="yes"/>
      <point x="53" y="36"/>
      <point x="101" y="-10"/>
    </contour>
  </outline>
</glyph>
<glyph name="Aringacute" format="2">
  <advance width="539"/>
  <unicode hex="01FA"/>
  <anchor x="215" y="0" name="bottom"/>
  <anchor x="419" y="958" name="top"/>
  <outline>
    <contour>
      <point x="278" y="631" type="curve"/>
      <point x="-54" y="0" type="line"/>
      <point x="43" y="0" type="line"/>
      <point x="154" y="222" type="line"/>
      <point x="383" y="222" type="line"/>
      <point x="405" y="0" type="line"/>
      <point x="492" y="0" type="line"/>
      <point x="426" y="612" type="line"/>
      <point x="451" y="631"/>
      <point x="468" y="662"/>
      <point x="468" y="701" type="curve" smooth="yes"/>
      <point x="468" y="765"/>
      <point x="425" y="804"/>
      <point x="364" y="804" type="curve" smooth="yes"/>
      <point x="306" y="804"/>
      <point x="259" y="765"/>
      <point x="259" y="697" type="curve" smooth="yes"/>
      <point x="259" y="670"/>
      <point x="265" y="648"/>
    </contour>
    <contour>
      <point x="197" y="302" type="line"/>
      <point x="270" y="443" type="line" smooth="yes"/>
      <point x="297" y="495"/>
      <point x="319" y="544"/>
      <point x="339" y="587" type="curve"/>
      <point x="351" y="587" type="line"/>
      <point x="353" y="544"/>
      <point x="357" y="494"/>
      <point x="361" y="443" type="curve" smooth="yes"/>
      <point x="374" y="302" type="line"/>
    </contour>
    <contour>
      <point x="362" y="644" type="curve" smooth="yes"/>
      <point x="330" y="644"/>
      <point x="311" y="665"/>
      <point x="311" y="698" type="curve" smooth="yes"/>
      <point x="311" y="734"/>
      <point x="334" y="755"/>
      <point x="363" y="755" type="curve" smooth="yes"/>
      <point x="394" y="755"/>
      <point x="415" y="734"/>
      <point x="415" y="700" type="curve" smooth="yes"/>
      <point x="415" y="665"/>
      <point x="393" y="644"/>
    </contour>
    <contour>
      <point x="332" y="839" type="curve"/>
      <point x="332" y="829" type="line"/>
      <point x="394" y="829" type="line"/>
      <point x="443" y="861"/>
      <point x="519" y="922"/>
      <point x="546" y="949" type="curve"/>
      <point x="546" y="958" type="line"/>
      <point x="437" y="958" type="line"/>
      <point x="409" y="922"/>
      <point x="366" y="870"/>
    </contour>
  </outline>
</glyph>
<glyph name="aringacute" format="2">
  <advance width="541"/>
  <unicode hex="01FB"/>
  <anchor x="216" y="0" name="bottom"/>
  <anchor x="420" y="958" name="top"/>
  <outline>
    <contour>
      <point x="183" y="-10" type="curve" smooth="yes"/>
      <point x="254" y="-10"/>
      <point x="312" y="40"/>
      <point x="356" y="99" type="curve"/>
      <point x="359" y="99" type="line"/>
      <point x="346" y="0" type="line"/>
      <point x="416" y="0" type="line"/>
      <point x="530" y="536" type="line"/>
      <point x="463" y="536" type="line"/>
      <point x="432" y="453" type="line"/>
      <point x="427" y="453" type="line"/>
      <point x="407" y="502"/>
      <point x="367" y="546"/>
      <point x="300" y="546" type="curve" smooth="yes"/>
      <point x="152" y="546"/>
      <point x="47" y="370"/>
      <point x="47" y="170" type="curve" smooth="yes"/>
      <point x="47" y="52"/>
      <point x="103" y="-10"/>
    </contour>
    <contour>
      <point x="214" y="63" type="curve" smooth="yes"/>
      <point x="165" y="63"/>
      <point x="137" y="98"/>
      <point x="137" y="169" type="curve" smooth="yes"/>
      <point x="137" y="326"/>
      <point x="211" y="472"/>
      <point x="309" y="472" type="curve" smooth="yes"/>
      <point x="363" y="472"/>
      <point x="397" y="429"/>
      <point x="397" y="366" type="curve" smooth="yes"/>
      <point x="397" y="340"/>
      <point x="394" y="306"/>
      <point x="384" y="266" type="curve" smooth="yes"/>
      <point x="355" y="151"/>
      <point x="282" y="63"/>
    </contour>
    <contour>
      <point x="343" y="585" type="curve"/>
      <point x="402" y="585"/>
      <point x="447" y="623"/>
      <point x="448" y="690" type="curve"/>
      <point x="449" y="756"/>
      <point x="405" y="794"/>
      <point x="345" y="794" type="curve"/>
      <point x="287" y="794"/>
      <point x="240" y="756"/>
      <point x="240" y="689" type="curve"/>
      <point x="239" y="624"/>
      <point x="281" y="585"/>
    </contour>
    <contour>
      <point x="343" y="634" type="curve"/>
      <point x="309" y="634"/>
      <point x="292" y="656"/>
      <point x="292" y="689" type="curve"/>
      <point x="293" y="724"/>
      <point x="314" y="744"/>
      <point x="345" y="744" type="curve"/>
      <point x="374" y="744"/>
      <point x="396" y="724"/>
      <point x="396" y="689" type="curve"/>
      <point x="395" y="656"/>
      <point x="373" y="634"/>
    </contour>
    <contour>
      <point x="316" y="839" type="curve"/>
      <point x="316" y="830" type="line"/>
      <point x="377" y="830" type="line"/>
      <point x="428" y="861"/>
      <point x="503" y="922"/>
      <point x="530" y="949" type="curve"/>
      <point x="530" y="958" type="line"/>
      <point x="422" y="958" type="line"/>
      <point x="394" y="922"/>
      <point x="350" y="871"/>
    </contour>
  </outline>
</glyph>
<glyph name="Cstroke" format="2">
  <advance width="559"/>
  <unicode hex="023B"/>
  <anchor x="275" y="-75" name="bottom"/>
  <anchor x="439" y="760" name="top"/>
  <outline>
    <contour>
      <point x="87" y="-75" type="line"/>
      <point x="154" y="-75" type="line"/>
      <point x="591" y="760" type="line"/>
      <point x="525" y="760" type="line"/>
    </contour>
    <component base="C"/>
  </outline>
</glyph>
<glyph name="Estroke" format="2">
  <advance width="491"/>
  <unicode hex="0246"/>
  <anchor x="209" y="-75" name="bottom"/>
  <anchor x="388" y="760" name="top"/>
  <outline>
    <contour>
      <point x="93" y="-75" type="line"/>
      <point x="164" y="-75" type="line"/>
      <point x="525" y="760" type="line"/>
      <point x="455" y="760" type="line"/>
    </contour>
    <component base="E"/>
  </outline>
</glyph>
<glyph name="schwahook" format="2">
  <advance width="676"/>
  <unicode hex="025A"/>
  <anchor x="171" y="-10" name="bottom"/>
  <anchor x="248" y="545" name="top"/>
  <outline>
    <contour>
      <point x="171" y="-10" type="curve" smooth="yes"/>
      <point x="313" y="-10"/>
      <point x="406" y="140"/>
      <point x="425" y="294" type="curve"/>
      <point x="467" y="305" type="line"/>
      <point x="475" y="212"/>
      <point x="512" y="178"/>
      <point x="570" y="178" type="curve" smooth="yes"/>
      <point x="610" y="178"/>
      <point x="643" y="191"/>
      <point x="675" y="214" type="curve"/>
      <point x="652" y="278" type="line"/>
      <point x="629" y="264"/>
      <point x="611" y="255"/>
      <point x="586" y="255" type="curve" smooth="yes"/>
      <point x="557" y="255"/>
      <point x="545" y="277"/>
      <point x="541" y="333" type="curve" smooth="yes"/>
      <point x="537" y="393" type="line"/>
      <point x="428" y="364" type="line"/>
      <point x="422" y="475"/>
      <point x="358" y="545"/>
      <point x="248" y="545" type="curve" smooth="yes"/>
      <point x="183" y="545"/>
      <point x="142" y="529"/>
      <point x="94" y="506" type="curve"/>
      <point x="94" y="435" type="line"/>
      <point x="144" y="460"/>
      <point x="185" y="476"/>
      <point x="232" y="476" type="curve" smooth="yes"/>
      <point x="309" y="476"/>
      <point x="346" y="425"/>
      <point x="345" y="343" type="curve"/>
      <point x="326" y="339" type="line" smooth="yes"/>
      <point x="116" y="294"/>
      <point x="28" y="216"/>
      <point x="28" y="111" type="curve" smooth="yes"/>
      <point x="28" y="35"/>
      <point x="77" y="-10"/>
    </contour>
    <contour>
      <point x="177" y="60" type="curve" smooth="yes"/>
      <point x="131" y="60"/>
      <point x="109" y="86"/>
      <point x="109" y="119" type="curve" smooth="yes"/>
      <point x="109" y="206"/>
      <point x="216" y="249"/>
      <point x="321" y="271" type="curve" smooth="yes"/>
      <point x="340" y="275" type="line"/>
      <point x="319" y="159"/>
      <point x="257" y="60"/>
    </contour>
  </outline>
</glyph>
<glyph name="eopenreversedhook" format="2">
  <advance width="631"/>
  <unicode hex="025D"/>
  <anchor x="148" y="-10" name="bottom"/>
  <anchor x="253" y="546" name="top"/>
  <outline>
    <contour>
      <point x="539" y="261" type="curve" smooth="yes"/>
      <point x="579" y="261"/>
      <point x="616" y="276"/>
      <point x="648" y="299" type="curve"/>
      <point x="622" y="361" type="line"/>
      <point x="598" y="347"/>
      <point x="580" y="338"/>
      <point x="555" y="338" type="curve" smooth="yes"/>
      <point x="526" y="338"/>
      <point x="514" y="360"/>
      <point x="510" y="416" type="curve" smooth="yes"/>
      <point x="506" y="476" type="line"/>
      <point x="344" y="434" type="line"/>
      <point x="347" y="366" type="line"/>
      <point x="436" y="388" type="line"/>
      <point x="444" y="295"/>
      <point x="481" y="261"/>
    </contour>
    <component base="ze-cy"/>
  </outline>
</glyph>
<glyph name="rlongleg" format="2">
  <advance width="379"/>
  <unicode hex="027C"/>
  <anchor x="85" y="-240" name="bottom"/>
  <anchor x="250" y="536" name="top"/>
  <outline>
    <contour>
      <point x="-25" y="-240" type="line"/>
      <point x="63" y="-240" type="line"/>
      <point x="166" y="245" type="line" smooth="yes"/>
      <point x="189" y="351"/>
      <point x="254" y="466"/>
      <point x="347" y="466" type="curve" smooth="yes"/>
      <point x="364" y="466"/>
      <point x="379" y="464"/>
      <point x="396" y="460" type="curve"/>
      <point x="415" y="539" type="line"/>
      <point x="399" y="544"/>
      <point x="379" y="546"/>
      <point x="361" y="546" type="curve" smooth="yes"/>
      <point x="289" y="546"/>
      <point x="245" y="492"/>
      <point x="205" y="437" type="curve"/>
      <point x="200" y="437" type="line"/>
      <point x="211" y="536" type="line"/>
      <point x="140" y="536" type="line"/>
    </contour>
  </outline>
</glyph>
<glyph name="rfishhookreversed" format="2">
  <advance width="305"/>
  <unicode hex="027F"/>
  <anchor x="47" y="-240" name="bottom"/>
  <anchor x="213" y="536" name="top"/>
  <outline>
    <contour>
      <point x="166" y="376" type="curve" smooth="yes"/>
      <point x="35" y="-240" type="line"/>
      <point x="123" y="-240" type="line"/>
      <point x="254" y="372" type="line" smooth="yes"/>
      <point x="258" y="392"/>
      <point x="260" y="415"/>
      <point x="260" y="430" type="curve" smooth="yes"/>
      <point x="260" y="502"/>
      <point x="219" y="546"/>
      <point x="141" y="546" type="curve" smooth="yes"/>
      <point x="112" y="546"/>
      <point x="79" y="540"/>
      <point x="55" y="531" type="curve"/>
      <point x="54" y="456" type="line"/>
      <point x="70" y="462"/>
      <point x="96" y="470"/>
      <point x="124" y="470" type="curve" smooth="yes"/>
      <point x="156" y="470"/>
      <point x="172" y="453"/>
      <point x="172" y="418" type="curve" smooth="yes"/>
      <point x="172" y="407"/>
      <point x="170" y="392"/>
    </contour>
  </outline>
</glyph>
<glyph name="eshsquatreversed" format="2">
  <advance width="249"/>
  <unicode hex="0285"/>
  <anchor x="19" y="-240" name="bottom"/>
  <anchor x="184" y="536" name="top"/>
  <outline>
    <contour>
      <point x="117" y="-240" type="curve" smooth="yes"/>
      <point x="146" y="-240"/>
      <point x="175" y="-233"/>
      <point x="189" y="-224" type="curve"/>
      <point x="190" y="-157" type="line"/>
      <point x="179" y="-162"/>
      <point x="161" y="-168"/>
      <point x="138" y="-168" type="curve" smooth="yes"/>
      <point x="115" y="-168"/>
      <point x="97" y="-155"/>
      <point x="97" y="-121" type="curve" smooth="yes"/>
      <point x="97" y="-107"/>
      <point x="100" y="-89"/>
      <point x="104" y="-70" type="curve" smooth="yes"/>
      <point x="198" y="374" type="line"/>
      <point x="204" y="397"/>
      <point x="206" y="417"/>
      <point x="206" y="438" type="curve" smooth="yes"/>
      <point x="206" y="517"/>
      <point x="160" y="546"/>
      <point x="99" y="546" type="curve" smooth="yes"/>
      <point x="69" y="546"/>
      <point x="41" y="539"/>
      <point x="25" y="530" type="curve"/>
      <point x="25" y="463" type="line"/>
      <point x="36" y="468"/>
      <point x="53" y="474"/>
      <point x="77" y="474" type="curve" smooth="yes"/>
      <point x="100" y="474"/>
      <point x="117" y="461"/>
      <point x="117" y="427" type="curve" smooth="yes"/>
      <point x="117" y="413"/>
      <point x="115" y="395"/>
      <point x="111" y="377" type="curve" smooth="yes"/>
      <point x="17" y="-68" type="line" smooth="yes"/>
      <point x="12" y="-91"/>
      <point x="9" y="-111"/>
      <point x="9" y="-132" type="curve" smooth="yes"/>
      <point x="9" y="-211"/>
      <point x="54" y="-240"/>
    </contour>
  </outline>
</glyph>
<glyph name="eshcurl" format="2">
  <advance width="249"/>
  <unicode hex="0286"/>
  <anchor x="20" y="-240" name="bottom"/>
  <anchor x="234" y="765" name="top"/>
  <outline>
    <contour>
      <point x="-64" y="-240" type="curve" smooth="yes"/>
      <point x="14" y="-240"/>
      <point x="70" y="-203"/>
      <point x="100" y="-72" type="curve"/>
      <point x="171" y="-72" type="line"/>
      <point x="187" y="0" type="line"/>
      <point x="115" y="0" type="line"/>
      <point x="237" y="578" type="line" smooth="yes"/>
      <point x="253" y="653"/>
      <point x="278" y="692"/>
      <point x="320" y="692" type="curve" smooth="yes"/>
      <point x="340" y="692"/>
      <point x="356" y="687"/>
      <point x="372" y="681" type="curve"/>
      <point x="372" y="754" type="line"/>
      <point x="358" y="760"/>
      <point x="335" y="765"/>
      <point x="310" y="765" type="curve" smooth="yes"/>
      <point x="214" y="765"/>
      <point x="173" y="695"/>
      <point x="150" y="588" type="curve" smooth="yes"/>
      <point x="25" y="0" type="line"/>
      <point x="-19" y="0" type="line" smooth="yes"/>
      <point x="-124" y="0"/>
      <point x="-185" y="-46"/>
      <point x="-185" y="-132" type="curve" smooth="yes"/>
      <point x="-185" y="-197"/>
      <point x="-141" y="-240"/>
    </contour>
    <contour>
      <point x="-63" y="-168" type="curve" smooth="yes"/>
      <point x="-92" y="-168"/>
      <point x="-105" y="-153"/>
      <point x="-105" y="-129" type="curve" smooth="yes"/>
      <point x="-105" y="-83"/>
      <point x="-69" y="-72"/>
      <point x="-30" y="-72" type="curve" smooth="yes"/>
      <point x="9" y="-72" type="line"/>
      <point x="-6" y="-143"/>
      <point x="-25" y="-168"/>
    </contour>
  </outline>
</glyph>
<glyph name="ezhcurl" format="2">
  <advance width="446"/>
  <unicode hex="0293"/>
  <anchor x="118" y="-240" name="bottom"/>
  <anchor x="283" y="536" name="top"/>
  <outline>
    <contour>
      <point x="88" y="-240" type="curve" smooth="yes"/>
      <point x="164" y="-240"/>
      <point x="227" y="-216"/>
      <point x="270" y="-175" type="curve"/>
      <point x="284" y="-194"/>
      <point x="296" y="-213"/>
      <point x="310" y="-240" type="curve"/>
      <point x="372" y="-200" type="line"/>
      <point x="356" y="-172"/>
      <point x="336" y="-138"/>
      <point x="319" y="-116" type="curve"/>
      <point x="346" y="-75"/>
      <point x="360" y="-27"/>
      <point x="360" y="27" type="curve" smooth="yes"/>
      <point x="360" y="149"/>
      <point x="286" y="214"/>
      <point x="193" y="222" type="curve"/>
      <point x="425" y="472" type="line"/>
      <point x="438" y="536" type="line"/>
      <point x="90" y="536" type="line"/>
      <point x="73" y="462" type="line"/>
      <point x="319" y="462" type="line"/>
      <point x="97" y="219" type="line"/>
      <point x="83" y="159" type="line"/>
      <point x="120" y="159" type="line" smooth="yes"/>
      <point x="214" y="159"/>
      <point x="272" y="118"/>
      <point x="272" y="23" type="curve" smooth="yes"/>
      <point x="272" y="-2"/>
      <point x="268" y="-25"/>
      <point x="259" y="-47" type="curve"/>
      <point x="214" y="-1"/>
      <point x="159" y="24"/>
      <point x="91" y="24" type="curve" smooth="yes"/>
      <point x="-7" y="24"/>
      <point x="-77" y="-21"/>
      <point x="-77" y="-112" type="curve" smooth="yes"/>
      <point x="-77" y="-197"/>
      <point x="-8" y="-240"/>
    </contour>
    <contour>
      <point x="89" y="-168" type="curve" smooth="yes"/>
      <point x="32" y="-168"/>
      <point x="1" y="-146"/>
      <point x="1" y="-109" type="curve" smooth="yes"/>
      <point x="1" y="-78"/>
      <point x="24" y="-49"/>
      <point x="85" y="-49" type="curve" smooth="yes"/>
      <point x="136" y="-49"/>
      <point x="178" y="-71"/>
      <point x="219" y="-115" type="curve"/>
      <point x="183" y="-154"/>
      <point x="136" y="-168"/>
    </contour>
  </outline>
</glyph>
<glyph name="cstretched" format="2">
  <advance width="449"/>
  <unicode hex="0297"/>
  <anchor x="170" y="-239" name="bottom"/>
  <anchor x="345" y="536" name="top"/>
  <outline>
    <contour>
      <point x="197" y="-239" type="curve" smooth="yes"/>
      <point x="250" y="-239"/>
      <point x="291" y="-226"/>
      <point x="324" y="-207" type="curve"/>
      <point x="325" y="-132" type="line"/>
      <point x="291" y="-149"/>
      <point x="256" y="-165"/>
      <point x="211" y="-165" type="curve" smooth="yes"/>
      <point x="146" y="-165"/>
      <point x="108" y="-121"/>
      <point x="108" y="-9" type="curve" smooth="yes"/>
      <point x="108" y="203"/>
      <point x="177" y="472"/>
      <point x="340" y="472" type="curve" smooth="yes"/>
      <point x="373" y="472"/>
      <point x="410" y="459"/>
      <point x="436" y="447" type="curve"/>
      <point x="462" y="520" type="line"/>
      <point x="434" y="533"/>
      <point x="386" y="546"/>
      <point x="339" y="546" type="curve" smooth="yes"/>
      <point x="81" y="546"/>
      <point x="19" y="172"/>
      <point x="19" y="-12" type="curve" smooth="yes"/>
      <point x="19" y="-159"/>
      <point x="80" y="-239"/>
    </contour>
  </outline>
</glyph>
<glyph name="eopenclosed" format="2">
  <advance width="529"/>
  <unicode hex="029A"/>
  <anchor x="211" y="0" name="bottom"/>
  <anchor x="325" y="536" name="top"/>
  <outline>
    <contour>
      <point x="213" y="-10" type="curve" smooth="yes"/>
      <point x="400" y="-10"/>
      <point x="491" y="133"/>
      <point x="491" y="317" type="curve" smooth="yes"/>
      <point x="491" y="455"/>
      <point x="419" y="546"/>
      <point x="276" y="546" type="curve" smooth="yes"/>
      <point x="155" y="546"/>
      <point x="78" y="486"/>
      <point x="78" y="386" type="curve" smooth="yes"/>
      <point x="78" y="323"/>
      <point x="111" y="293"/>
      <point x="163" y="278" type="curve"/>
      <point x="163" y="276" type="line"/>
      <point x="77" y="260"/>
      <point x="26" y="214"/>
      <point x="26" y="135" type="curve" smooth="yes"/>
      <point x="26" y="41"/>
      <point x="101" y="-10"/>
    </contour>
    <contour>
      <point x="221" y="65" type="curve" smooth="yes"/>
      <point x="154" y="65"/>
      <point x="114" y="94"/>
      <point x="114" y="145" type="curve" smooth="yes"/>
      <point x="114" y="213"/>
      <point x="171" y="243"/>
      <point x="264" y="243" type="curve" smooth="yes"/>
      <point x="286" y="243" type="line"/>
      <point x="299" y="315" type="line"/>
      <point x="273" y="315" type="line" smooth="yes"/>
      <point x="200" y="315"/>
      <point x="163" y="334"/>
      <point x="163" y="390" type="curve" smooth="yes"/>
      <point x="163" y="442"/>
      <point x="204" y="473"/>
      <point x="271" y="473" type="curve" smooth="yes"/>
      <point x="358" y="473"/>
      <point x="403" y="421"/>
      <point x="403" y="318" type="curve" smooth="yes"/>
      <point x="403" y="188"/>
      <point x="357" y="65"/>
    </contour>
  </outline>
</glyph>
<glyph name="kturned" format="2">
  <advance width="475"/>
  <unicode hex="029E"/>
  <anchor x="130" y="-240" name="bottom"/>
  <anchor x="294.965" y="536" name="top"/>
  <anchor x="454" y="536" name="topright"/>
  <outline>
    <contour>
      <point x="270" y="78" type="curve" smooth="yes"/>
      <point x="201" y="-240" type="line"/>
      <point x="289" y="-240" type="line"/>
      <point x="454" y="536" type="line"/>
      <point x="365" y="536" type="line"/>
      <point x="326" y="342" type="line"/>
      <point x="258" y="285" type="line"/>
      <point x="155" y="536" type="line"/>
      <point x="58" y="536" type="line"/>
      <point x="190" y="230" type="line"/>
      <point x="-32" y="0" type="line"/>
      <point x="71" y="0" type="line"/>
      <point x="313" y="259" type="line"/>
      <point x="315" y="259" type="line"/>
      <point x="309" y="240"/>
      <point x="292" y="185"/>
    </contour>
  </outline>
</glyph>
<glyph name="qhook" format="2">
  <advance width="551"/>
  <unicode hex="02A0"/>
  <anchor x="171" y="-240" name="bottom"/>
  <anchor x="385" y="765" name="top"/>
  <outline>
    <contour>
      <point x="325" y="-12" type="curve" smooth="yes"/>
      <point x="278" y="-240" type="line"/>
      <point x="365" y="-240" type="line"/>
      <point x="550" y="632" type="line" smooth="yes"/>
      <point x="558" y="672"/>
      <point x="577" y="689"/>
      <point x="603" y="689" type="curve" smooth="yes"/>
      <point x="623" y="689"/>
      <point x="641" y="684"/>
      <point x="652" y="679" type="curve"/>
      <point x="653" y="752" type="line"/>
      <point x="642" y="758"/>
      <point x="619" y="765"/>
      <point x="596" y="765" type="curve" smooth="yes"/>
      <point x="515" y="765"/>
      <point x="481" y="716"/>
      <point x="461" y="624" type="curve" smooth="yes"/>
      <point x="452" y="582" type="line" smooth="yes"/>
      <point x="442" y="535"/>
      <point x="437" y="497"/>
      <point x="431" y="453" type="curve"/>
      <point x="427" y="453" type="line"/>
      <point x="407" y="502"/>
      <point x="368" y="546"/>
      <point x="301" y="546" type="curve" smooth="yes"/>
      <point x="145" y="546"/>
      <point x="47" y="364"/>
      <point x="47" y="170" type="curve" smooth="yes"/>
      <point x="47" y="51"/>
      <point x="103" y="-10"/>
      <point x="184" y="-10" type="curve" smooth="yes"/>
      <point x="255" y="-10"/>
      <point x="307" y="40"/>
      <point x="351" y="99" type="curve"/>
      <point x="355" y="99" type="line"/>
      <point x="345" y="66"/>
      <point x="330" y="13"/>
    </contour>
    <contour>
      <point x="215" y="63" type="curve" smooth="yes"/>
      <point x="164" y="63"/>
      <point x="137" y="98"/>
      <point x="137" y="169" type="curve" smooth="yes"/>
      <point x="137" y="318"/>
      <point x="208" y="472"/>
      <point x="307" y="472" type="curve" smooth="yes"/>
      <point x="370" y="472"/>
      <point x="397" y="424"/>
      <point x="397" y="366" type="curve" smooth="yes"/>
      <point x="397" y="211"/>
      <point x="301" y="63"/>
    </contour>
  </outline>
</glyph>
<glyph name="circumflex" format="2">
  <advance width="383"/>
  <unicode hex="02C6"/>
  <outline>
    <contour>
      <point x="115" y="619" type="curve"/>
      <point x="115" y="606" type="line"/>
      <point x="174" y="606" type="line"/>
      <point x="207" y="629"/>
      <point x="247" y="661"/>
      <point x="285" y="697" type="curve"/>
      <point x="310" y="661"/>
      <point x="337" y="627"/>
      <point x="359" y="606" type="curve"/>
      <point x="415" y="606" type="line"/>
      <point x="415" y="619" type="line"/>
      <point x="391" y="658"/>
      <point x="355" y="714"/>
      <point x="337" y="766" type="curve"/>
      <point x="250" y="766" type="line"/>
      <point x="222" y="721"/>
      <point x="148" y="650"/>
    </contour>
  </outline>
</glyph>
<glyph name="caron" format="2">
  <advance width="383"/>
  <unicode hex="02C7"/>
  <outline>
    <contour>
      <point x="223" y="606" type="curve"/>
      <point x="310" y="606" type="line"/>
      <point x="338" y="651"/>
      <point x="413" y="722"/>
      <point x="446" y="753" type="curve"/>
      <point x="446" y="766" type="line"/>
      <point x="388" y="766" type="line"/>
      <point x="354" y="743"/>
      <point x="313" y="711"/>
      <point x="274" y="675" type="curve"/>
      <point x="250" y="711"/>
      <point x="224" y="745"/>
      <point x="200" y="766" type="curve"/>
      <point x="146" y="766" type="line"/>
      <point x="146" y="753" type="line"/>
      <point x="169" y="714"/>
      <point x="206" y="657"/>
    </contour>
  </outline>
</glyph>
<glyph name="breve" format="2">
  <advance width="356"/>
  <unicode hex="02D8"/>
  <outline>
    <contour>
      <point x="258" y="606" type="curve" smooth="yes"/>
      <point x="340" y="606"/>
      <point x="395" y="644"/>
      <point x="416" y="740" type="curve"/>
      <point x="362" y="740" type="line"/>
      <point x="352" y="703"/>
      <point x="324" y="679"/>
      <point x="267" y="679" type="curve" smooth="yes"/>
      <point x="212" y="679"/>
      <point x="192" y="701"/>
      <point x="192" y="740" type="curve"/>
      <point x="140" y="740" type="line"/>
      <point x="139" y="732"/>
      <point x="139" y="725"/>
      <point x="139" y="717" type="curve" smooth="yes"/>
      <point x="139" y="645"/>
      <point x="187" y="606"/>
    </contour>
  </outline>
</glyph>
<glyph name="dotaccent" format="2">
  <advance width="184"/>
  <unicode hex="02D9"/>
  <outline>
    <contour>
      <point x="175" y="625" type="curve"/>
      <point x="204" y="625"/>
      <point x="232" y="650"/>
      <point x="232" y="691" type="curve"/>
      <point x="232" y="719"/>
      <point x="217" y="736"/>
      <point x="187" y="736" type="curve"/>
      <point x="150" y="736"/>
      <point x="128" y="706"/>
      <point x="128" y="672" type="curve"/>
      <point x="128" y="642"/>
      <point x="148" y="625"/>
    </contour>
  </outline>
</glyph>
<glyph name="ring" format="2">
  <advance width="294"/>
  <unicode hex="02DA"/>
  <outline>
    <contour>
      <point x="239" y="606" type="curve" smooth="yes"/>
      <point x="299" y="606"/>
      <point x="345" y="644"/>
      <point x="345" y="713" type="curve" smooth="yes"/>
      <point x="345" y="777"/>
      <point x="302" y="815"/>
      <point x="242" y="815" type="curve" smooth="yes"/>
      <point x="184" y="815"/>
      <point x="137" y="777"/>
      <point x="137" y="710" type="curve" smooth="yes"/>
      <point x="137" y="644"/>
      <point x="179" y="606"/>
    </contour>
    <contour>
      <point x="240" y="656" type="curve" smooth="yes"/>
      <point x="207" y="656"/>
      <point x="189" y="677"/>
      <point x="189" y="710" type="curve" smooth="yes"/>
      <point x="189" y="745"/>
      <point x="211" y="766"/>
      <point x="241" y="766" type="curve" smooth="yes"/>
      <point x="272" y="766"/>
      <point x="293" y="745"/>
      <point x="293" y="712" type="curve" smooth="yes"/>
      <point x="293" y="677"/>
      <point x="271" y="656"/>
    </contour>
  </outline>
</glyph>
<glyph name="ogonek" format="2">
  <advance width="239"/>
  <unicode hex="02DB"/>
  <outline>
    <contour>
      <point x="42" y="-217" type="curve"/>
      <point x="60" y="-217"/>
      <point x="80" y="-215"/>
      <point x="97" y="-210" type="curve"/>
      <point x="98" y="-155" type="line"/>
      <point x="86" y="-157"/>
      <point x="72" y="-159"/>
      <point x="59" y="-159" type="curve"/>
      <point x="40" y="-159"/>
      <point x="28" y="-149"/>
      <point x="28" y="-126" type="curve"/>
      <point x="29" y="-73"/>
      <point x="80" y="-31"/>
      <point x="118" y="0" type="curve"/>
      <point x="57" y="0" type="line"/>
      <point x="0" y="-37"/>
      <point x="-43" y="-75"/>
      <point x="-43" y="-137" type="curve" smooth="yes"/>
      <point x="-43" y="-192"/>
      <point x="-8" y="-217"/>
    </contour>
  </outline>
</glyph>
<glyph name="tilde" format="2">
  <advance width="403"/>
  <unicode hex="02DC"/>
  <outline>
    <contour>
      <point x="112" y="606" type="curve"/>
      <point x="164" y="606" type="line"/>
      <point x="177" y="643"/>
      <point x="191" y="662"/>
      <point x="217" y="662" type="curve" smooth="yes"/>
      <point x="258" y="662"/>
      <point x="297" y="607"/>
      <point x="348" y="607" type="curve" smooth="yes"/>
      <point x="403" y="607"/>
      <point x="441" y="652"/>
      <point x="462" y="735" type="curve"/>
      <point x="410" y="735" type="line"/>
      <point x="394" y="695"/>
      <point x="382" y="679"/>
      <point x="355" y="679" type="curve" smooth="yes"/>
      <point x="321" y="679"/>
      <point x="280" y="734"/>
      <point x="224" y="734" type="curve" smooth="yes"/>
      <point x="168" y="734"/>
      <point x="130" y="689"/>
    </contour>
  </outline>
</glyph>
<glyph name="hungarumlaut" format="2">
  <advance width="411"/>
  <unicode hex="02DD"/>
  <outline>
    <contour>
      <point x="277" y="619" type="curve"/>
      <point x="277" y="606" type="line"/>
      <point x="324" y="606" type="line"/>
      <point x="373" y="642"/>
      <point x="449" y="721"/>
      <point x="475" y="756" type="curve"/>
      <point x="475" y="766" type="line"/>
      <point x="386" y="766" type="line"/>
      <point x="358" y="721"/>
      <point x="311" y="657"/>
    </contour>
    <contour>
      <point x="115" y="619" type="curve"/>
      <point x="115" y="606" type="line"/>
      <point x="162" y="606" type="line"/>
      <point x="210" y="642"/>
      <point x="287" y="721"/>
      <point x="313" y="756" type="curve"/>
      <point x="313" y="766" type="line"/>
      <point x="223" y="766" type="line"/>
      <point x="196" y="721"/>
      <point x="149" y="657"/>
    </contour>
  </outline>
</glyph>
<glyph name="rhotichookmod" format="2">
  <advance width="230"/>
  <unicode hex="02DE"/>
  <outline>
    <contour>
      <point x="120" y="177" type="curve" smooth="yes"/>
      <point x="160" y="177"/>
      <point x="197" y="192"/>
      <point x="229" y="215" type="curve"/>
      <point x="203" y="277" type="line"/>
      <point x="179" y="263"/>
      <point x="161" y="254"/>
      <point x="136" y="254" type="curve" smooth="yes"/>
      <point x="107" y="254"/>
      <point x="95" y="276"/>
      <point x="91" y="332" type="curve" smooth="yes"/>
      <point x="87" y="392" type="line"/>
      <point x="-75" y="350" type="line"/>
      <point x="-72" y="282" type="line"/>
      <point x="17" y="304" type="line"/>
      <point x="25" y="211"/>
      <point x="62" y="177"/>
    </contour>
  </outline>
</glyph>
<glyph name="dblverticallineabovecomb" format="2">
  <unicode hex="030E"/>
  <anchor x="64" y="536" name="_top"/>
  <anchor x="97" y="760" name="top"/>
  <outline>
    <contour>
      <point x="111" y="596" type="line"/>
      <point x="188" y="596" type="line"/>
      <point x="223" y="760" type="line"/>
      <point x="146" y="760" type="line"/>
    </contour>
    <contour>
      <point x="-35" y="596" type="line"/>
      <point x="41" y="596" type="line"/>
      <point x="77" y="760" type="line"/>
      <point x="0" y="760" type="line"/>
    </contour>
  </outline>
</glyph>
<glyph name="dblgravecomb" format="2">
  <unicode hex="030F"/>
  <anchor x="-245" y="536" name="_top"/>
  <anchor x="-294" y="766" name="top"/>
  <outline>
    <contour>
      <point x="-190" y="606" type="curve"/>
      <point x="-136" y="606" type="line"/>
      <point x="-136" y="618" type="line"/>
      <point x="-161" y="663"/>
      <point x="-187" y="717"/>
      <point x="-199" y="766" type="curve"/>
      <point x="-293" y="766" type="line"/>
      <point x="-293" y="756" type="line"/>
      <point x="-273" y="714"/>
      <point x="-226" y="644"/>
    </contour>
    <contour>
      <point x="-354" y="606" type="curve"/>
      <point x="-299" y="606" type="line"/>
      <point x="-299" y="618" type="line"/>
      <point x="-326" y="663"/>
      <point x="-350" y="717"/>
      <point x="-364" y="766" type="curve"/>
      <point x="-457" y="766" type="line"/>
      <point x="-457" y="756" type="line"/>
      <point x="-437" y="714"/>
      <point x="-389" y="644"/>
    </contour>
  </outline>
</glyph>
<glyph name="candraBinducomb" format="2">
  <unicode hex="0310"/>
  <anchor x="62" y="536" name="_top"/>
  <anchor x="106" y="843" name="top"/>
  <outline>
    <contour>
      <point x="83" y="606" type="curve" smooth="yes"/>
      <point x="164" y="606"/>
      <point x="219" y="644"/>
      <point x="241" y="740" type="curve"/>
      <point x="188" y="740" type="line"/>
      <point x="177" y="703"/>
      <point x="150" y="677"/>
      <point x="92" y="677" type="curve" smooth="yes"/>
      <point x="36" y="677"/>
      <point x="16" y="701"/>
      <point x="16" y="740" type="curve"/>
      <point x="-35" y="740" type="line"/>
      <point x="-36" y="732"/>
      <point x="-36" y="725"/>
      <point x="-36" y="717" type="curve" smooth="yes"/>
      <point x="-36" y="645"/>
      <point x="13" y="606"/>
    </contour>
    <contour>
      <point x="100" y="732" type="curve"/>
      <point x="128" y="732"/>
      <point x="154" y="757"/>
      <point x="155" y="798" type="curve"/>
      <point x="155" y="826"/>
      <point x="141" y="843"/>
      <point x="112" y="843" type="curve"/>
      <point x="76" y="843"/>
      <point x="56" y="813"/>
      <point x="55" y="779" type="curve"/>
      <point x="55" y="749"/>
      <point x="74" y="732"/>
    </contour>
  </outline>
</glyph>
<glyph name="breveinvertedcomb" format="2">
  <unicode hex="0311"/>
  <anchor x="60" y="536" name="_top"/>
  <anchor x="82" y="740" name="top"/>
  <outline>
    <contour>
      <point x="-60" y="606" type="curve"/>
      <point x="-5" y="606" type="line"/>
      <point x="5" y="643"/>
      <point x="32" y="667"/>
      <point x="89" y="667" type="curve" smooth="yes"/>
      <point x="145" y="667"/>
      <point x="165" y="645"/>
      <point x="164" y="606" type="curve"/>
      <point x="216" y="606" type="line"/>
      <point x="217" y="614"/>
      <point x="217" y="621"/>
      <point x="217" y="629" type="curve" smooth="yes"/>
      <point x="217" y="701"/>
      <point x="169" y="740"/>
      <point x="98" y="740" type="curve" smooth="yes"/>
      <point x="16" y="740"/>
      <point x="-38" y="702"/>
    </contour>
  </outline>
</glyph>
<glyph name="lefttackbelowcomb" format="2">
  <unicode hex="0318"/>
  <anchor x="-36" y="22" name="_bottom"/>
  <anchor x="-66" y="-218" name="bottom"/>
  <outline>
    <contour>
      <point x="-72" y="-218" type="line"/>
      <point x="-11" y="-218" type="line"/>
      <point x="30" y="-28" type="line"/>
      <point x="-32" y="-28" type="line"/>
      <point x="-46" y="-93" type="line"/>
      <point x="-150" y="-93" type="line"/>
      <point x="-163" y="-153" type="line"/>
      <point x="-58" y="-153" type="line"/>
    </contour>
  </outline>
</glyph>
<glyph name="righttackbelowcomb" format="2">
  <unicode hex="0319"/>
  <anchor x="-49" y="22" name="_bottom"/>
  <anchor x="-79" y="-218" name="bottom"/>
  <outline>
    <contour>
      <point x="-177" y="-218" type="line"/>
      <point x="-114" y="-218" type="line"/>
      <point x="-100" y="-153" type="line"/>
      <point x="3" y="-153" type="line"/>
      <point x="16" y="-93" type="line"/>
      <point x="-87" y="-93" type="line"/>
      <point x="-73" y="-28" type="line"/>
      <point x="-136" y="-28" type="line"/>
    </contour>
  </outline>
</glyph>
<glyph name="leftangleabovecomb" format="2">
  <unicode hex="031A"/>
  <anchor x="247" y="650" name="_topright"/>
  <outline>
    <contour>
      <point x="183" y="690" type="line"/>
      <point x="245" y="690" type="line"/>
      <point x="294" y="916" type="line"/>
      <point x="57" y="916" type="line"/>
      <point x="44" y="856" type="line"/>
      <point x="219" y="856" type="line"/>
    </contour>
  </outline>
</glyph>
<glyph name="uptackbelowcomb" format="2">
  <unicode hex="031D"/>
  <anchor x="-58" y="2" name="_bottom"/>
  <anchor x="-84" y="-208" name="bottom"/>
  <outline>
    <contour>
      <point x="-191" y="-208" type="line"/>
      <point x="8" y="-208" type="line"/>
      <point x="21" y="-148" type="line"/>
      <point x="-48" y="-148" type="line"/>
      <point x="-27" y="-48" type="line"/>
      <point x="-89" y="-48" type="line"/>
      <point x="-110" y="-148" type="line"/>
      <point x="-178" y="-148" type="line"/>
    </contour>
  </outline>
</glyph>
<glyph name="downtackbelowcomb" format="2">
  <unicode hex="031E"/>
  <anchor x="-56" y="0" name="_bottom"/>
  <anchor x="-101" y="-208" name="bottom"/>
  <outline>
    <contour>
      <point x="-132" y="-208" type="line"/>
      <point x="-69" y="-208" type="line"/>
      <point x="-48" y="-108" type="line"/>
      <point x="21" y="-108" type="line"/>
      <point x="33" y="-48" type="line"/>
      <point x="-166" y="-48" type="line"/>
      <point x="-178" y="-108" type="line"/>
      <point x="-110" y="-108" type="line"/>
    </contour>
  </outline>
</glyph>
<glyph name="plusbelowcomb" format="2">
  <unicode hex="031F"/>
  <anchor x="-42" y="22" name="_bottom"/>
  <anchor x="-73" y="-228" name="bottom"/>
  <outline>
    <contour>
      <point x="-127" y="-228" type="line"/>
      <point x="-64" y="-228" type="line"/>
      <point x="-49" y="-158" type="line"/>
      <point x="19" y="-158" type="line"/>
      <point x="32" y="-98" type="line"/>
      <point x="-37" y="-98" type="line"/>
      <point x="-22" y="-28" type="line"/>
      <point x="-84" y="-28" type="line"/>
      <point x="-99" y="-98" type="line"/>
      <point x="-167" y="-98" type="line"/>
      <point x="-180" y="-158" type="line"/>
      <point x="-112" y="-158" type="line"/>
    </contour>
  </outline>
</glyph>
